<?xml version="1.0" encoding="utf-8" standalone="no"?>
<!DOCTYPE svg PUBLIC "-//W3C//DTD SVG 1.1//EN"
  "http://www.w3.org/Graphics/SVG/1.1/DTD/svg11.dtd">
<svg xmlns:xlink="http://www.w3.org/1999/xlink" width="460.8pt" height="345.6pt" viewBox="0 0 460.8 345.6" xmlns="http://www.w3.org/2000/svg" version="1.1">
 <metadata>
  <rdf:RDF xmlns:dc="http://purl.org/dc/elements/1.1/" xmlns:cc="http://creativecommons.org/ns#" xmlns:rdf="http://www.w3.org/1999/02/22-rdf-syntax-ns#">
   <cc:Work>
    <dc:type rdf:resource="http://purl.org/dc/dcmitype/StillImage"/>
    <dc:date>2023-07-31T23:58:02.466573</dc:date>
    <dc:format>image/svg+xml</dc:format>
    <dc:creator>
     <cc:Agent>
      <dc:title>Matplotlib v3.7.1, https://matplotlib.org/</dc:title>
     </cc:Agent>
    </dc:creator>
   </cc:Work>
  </rdf:RDF>
 </metadata>
 <defs>
  <style type="text/css">*{stroke-linejoin: round; stroke-linecap: butt}</style>
 </defs>
 <g id="figure_1">
  <g id="patch_1">
   <path d="M 0 345.6 
L 460.8 345.6 
L 460.8 0 
L 0 0 
z
" style="fill: #ffffff"/>
  </g>
  <g id="axes_1">
   <g id="patch_2">
    <path d="M 57.6 307.584 
L 414.72 307.584 
L 414.72 41.472 
L 57.6 41.472 
z
" style="fill: #ffffff"/>
   </g>
   <g id="PathCollection_1">
    <defs>
     <path id="m0c76cf6b42" d="M 0 3 
C 0.795609 3 1.55874 2.683901 2.12132 2.12132 
C 2.683901 1.55874 3 0.795609 3 0 
C 3 -0.795609 2.683901 -1.55874 2.12132 -2.12132 
C 1.55874 -2.683901 0.795609 -3 0 -3 
C -0.795609 -3 -1.55874 -2.683901 -2.12132 -2.12132 
C -2.683901 -1.55874 -3 -0.795609 -3 0 
C -3 0.795609 -2.683901 1.55874 -2.12132 2.12132 
C -1.55874 2.683901 -0.795609 3 0 3 
z
" style="stroke: #1f77b4"/>
    </defs>
    <g clip-path="url(#pb114bb8886)">
     <use xlink:href="#m0c76cf6b42" x="73.832727" y="281.610823" style="fill: #1f77b4; stroke: #1f77b4"/>
     <use xlink:href="#m0c76cf6b42" x="80.076084" y="284.011907" style="fill: #1f77b4; stroke: #1f77b4"/>
     <use xlink:href="#m0c76cf6b42" x="85.715245" y="275.281788" style="fill: #1f77b4; stroke: #1f77b4"/>
     <use xlink:href="#m0c76cf6b42" x="91.958601" y="275.325313" style="fill: #1f77b4; stroke: #1f77b4"/>
     <use xlink:href="#m0c76cf6b42" x="98.000559" y="283.881171" style="fill: #1f77b4; stroke: #1f77b4"/>
     <use xlink:href="#m0c76cf6b42" x="104.243916" y="277.900549" style="fill: #1f77b4; stroke: #1f77b4"/>
     <use xlink:href="#m0c76cf6b42" x="110.285874" y="279.0357" style="fill: #1f77b4; stroke: #1f77b4"/>
     <use xlink:href="#m0c76cf6b42" x="116.529231" y="270.30537" style="fill: #1f77b4; stroke: #1f77b4"/>
     <use xlink:href="#m0c76cf6b42" x="122.772587" y="269.083285" style="fill: #1f77b4; stroke: #1f77b4"/>
     <use xlink:href="#m0c76cf6b42" x="128.814545" y="271.527169" style="fill: #1f77b4; stroke: #1f77b4"/>
     <use xlink:href="#m0c76cf6b42" x="135.057902" y="265.240111" style="fill: #1f77b4; stroke: #1f77b4"/>
     <use xlink:href="#m0c76cf6b42" x="141.09986" y="271.437764" style="fill: #1f77b4; stroke: #1f77b4"/>
     <use xlink:href="#m0c76cf6b42" x="147.343217" y="277.679811" style="fill: #1f77b4; stroke: #1f77b4"/>
     <use xlink:href="#m0c76cf6b42" x="153.586573" y="260.487083" style="fill: #1f77b4; stroke: #1f77b4"/>
     <use xlink:href="#m0c76cf6b42" x="159.427133" y="205.297926" style="fill: #1f77b4; stroke: #1f77b4"/>
     <use xlink:href="#m0c76cf6b42" x="165.67049" y="98.444815" style="fill: #1f77b4; stroke: #1f77b4"/>
     <use xlink:href="#m0c76cf6b42" x="171.712448" y="53.568" style="fill: #1f77b4; stroke: #1f77b4"/>
     <use xlink:href="#m0c76cf6b42" x="177.955804" y="79.987411" style="fill: #1f77b4; stroke: #1f77b4"/>
     <use xlink:href="#m0c76cf6b42" x="183.997762" y="130.022842" style="fill: #1f77b4; stroke: #1f77b4"/>
     <use xlink:href="#m0c76cf6b42" x="190.241119" y="130.069356" style="fill: #1f77b4; stroke: #1f77b4"/>
     <use xlink:href="#m0c76cf6b42" x="196.484476" y="179.969772" style="fill: #1f77b4; stroke: #1f77b4"/>
     <use xlink:href="#m0c76cf6b42" x="202.526434" y="189.831646" style="fill: #1f77b4; stroke: #1f77b4"/>
     <use xlink:href="#m0c76cf6b42" x="208.76979" y="199.508357" style="fill: #1f77b4; stroke: #1f77b4"/>
     <use xlink:href="#m0c76cf6b42" x="214.811748" y="204.161886" style="fill: #1f77b4; stroke: #1f77b4"/>
     <use xlink:href="#m0c76cf6b42" x="221.055105" y="203.974855" style="fill: #1f77b4; stroke: #1f77b4"/>
     <use xlink:href="#m0c76cf6b42" x="227.298462" y="214.204984" style="fill: #1f77b4; stroke: #1f77b4"/>
     <use xlink:href="#m0c76cf6b42" x="232.937622" y="221.57523" style="fill: #1f77b4; stroke: #1f77b4"/>
     <use xlink:href="#m0c76cf6b42" x="239.180979" y="221.856327" style="fill: #1f77b4; stroke: #1f77b4"/>
     <use xlink:href="#m0c76cf6b42" x="245.222937" y="220.588857" style="fill: #1f77b4; stroke: #1f77b4"/>
     <use xlink:href="#m0c76cf6b42" x="251.466294" y="229.320919" style="fill: #1f77b4; stroke: #1f77b4"/>
     <use xlink:href="#m0c76cf6b42" x="257.508252" y="235.517608" style="fill: #1f77b4; stroke: #1f77b4"/>
     <use xlink:href="#m0c76cf6b42" x="263.751608" y="237.958209" style="fill: #1f77b4; stroke: #1f77b4"/>
     <use xlink:href="#m0c76cf6b42" x="269.994965" y="241.666344" style="fill: #1f77b4; stroke: #1f77b4"/>
     <use xlink:href="#m0c76cf6b42" x="276.036923" y="254.346633" style="fill: #1f77b4; stroke: #1f77b4"/>
     <use xlink:href="#m0c76cf6b42" x="282.28028" y="255.663429" style="fill: #1f77b4; stroke: #1f77b4"/>
     <use xlink:href="#m0c76cf6b42" x="288.322238" y="265.761942" style="fill: #1f77b4; stroke: #1f77b4"/>
     <use xlink:href="#m0c76cf6b42" x="294.565594" y="269.276841" style="fill: #1f77b4; stroke: #1f77b4"/>
     <use xlink:href="#m0c76cf6b42" x="300.808951" y="278.058596" style="fill: #1f77b4; stroke: #1f77b4"/>
     <use xlink:href="#m0c76cf6b42" x="306.448112" y="272.888394" style="fill: #1f77b4; stroke: #1f77b4"/>
     <use xlink:href="#m0c76cf6b42" x="312.691469" y="275.474351" style="fill: #1f77b4; stroke: #1f77b4"/>
     <use xlink:href="#m0c76cf6b42" x="318.733427" y="287.670787" style="fill: #1f77b4; stroke: #1f77b4"/>
     <use xlink:href="#m0c76cf6b42" x="324.976783" y="280.108583" style="fill: #1f77b4; stroke: #1f77b4"/>
     <use xlink:href="#m0c76cf6b42" x="331.018741" y="282.841401" style="fill: #1f77b4; stroke: #1f77b4"/>
     <use xlink:href="#m0c76cf6b42" x="337.262098" y="282.792399" style="fill: #1f77b4; stroke: #1f77b4"/>
     <use xlink:href="#m0c76cf6b42" x="343.505455" y="290.256692" style="fill: #1f77b4; stroke: #1f77b4"/>
     <use xlink:href="#m0c76cf6b42" x="349.547413" y="282.841443" style="fill: #1f77b4; stroke: #1f77b4"/>
     <use xlink:href="#m0c76cf6b42" x="355.790769" y="288.161359" style="fill: #1f77b4; stroke: #1f77b4"/>
     <use xlink:href="#m0c76cf6b42" x="361.832727" y="294.209043" style="fill: #1f77b4; stroke: #1f77b4"/>
     <use xlink:href="#m0c76cf6b42" x="368.076084" y="287.915681" style="fill: #1f77b4; stroke: #1f77b4"/>
     <use xlink:href="#m0c76cf6b42" x="374.319441" y="270.40092" style="fill: #1f77b4; stroke: #1f77b4"/>
     <use xlink:href="#m0c76cf6b42" x="379.958601" y="284.109846" style="fill: #1f77b4; stroke: #1f77b4"/>
     <use xlink:href="#m0c76cf6b42" x="386.201958" y="271.766969" style="fill: #1f77b4; stroke: #1f77b4"/>
     <use xlink:href="#m0c76cf6b42" x="392.243916" y="271.522678" style="fill: #1f77b4; stroke: #1f77b4"/>
     <use xlink:href="#m0c76cf6b42" x="398.487273" y="256.496894" style="fill: #1f77b4; stroke: #1f77b4"/>
    </g>
   </g>
   <g id="matplotlib.axis_1">
    <g id="xtick_1">
     <g id="line2d_1">
      <defs>
       <path id="m1387205946" d="M 0 0 
L 0 3.5 
" style="stroke: #000000; stroke-width: 0.8"/>
      </defs>
      <g>
       <use xlink:href="#m1387205946" x="73.832727" y="307.584" style="stroke: #000000; stroke-width: 0.8"/>
      </g>
     </g>
     <g id="text_1">
      <!-- 2019-01 -->
      <g transform="translate(52.941321 322.182437) scale(0.1 -0.1)">
       <defs>
        <path id="DejaVuSans-32" d="M 1228 531 
L 3431 531 
L 3431 0 
L 469 0 
L 469 531 
Q 828 903 1448 1529 
Q 2069 2156 2228 2338 
Q 2531 2678 2651 2914 
Q 2772 3150 2772 3378 
Q 2772 3750 2511 3984 
Q 2250 4219 1831 4219 
Q 1534 4219 1204 4116 
Q 875 4013 500 3803 
L 500 4441 
Q 881 4594 1212 4672 
Q 1544 4750 1819 4750 
Q 2544 4750 2975 4387 
Q 3406 4025 3406 3419 
Q 3406 3131 3298 2873 
Q 3191 2616 2906 2266 
Q 2828 2175 2409 1742 
Q 1991 1309 1228 531 
z
" transform="scale(0.015625)"/>
        <path id="DejaVuSans-30" d="M 2034 4250 
Q 1547 4250 1301 3770 
Q 1056 3291 1056 2328 
Q 1056 1369 1301 889 
Q 1547 409 2034 409 
Q 2525 409 2770 889 
Q 3016 1369 3016 2328 
Q 3016 3291 2770 3770 
Q 2525 4250 2034 4250 
z
M 2034 4750 
Q 2819 4750 3233 4129 
Q 3647 3509 3647 2328 
Q 3647 1150 3233 529 
Q 2819 -91 2034 -91 
Q 1250 -91 836 529 
Q 422 1150 422 2328 
Q 422 3509 836 4129 
Q 1250 4750 2034 4750 
z
" transform="scale(0.015625)"/>
        <path id="DejaVuSans-31" d="M 794 531 
L 1825 531 
L 1825 4091 
L 703 3866 
L 703 4441 
L 1819 4666 
L 2450 4666 
L 2450 531 
L 3481 531 
L 3481 0 
L 794 0 
L 794 531 
z
" transform="scale(0.015625)"/>
        <path id="DejaVuSans-39" d="M 703 97 
L 703 672 
Q 941 559 1184 500 
Q 1428 441 1663 441 
Q 2288 441 2617 861 
Q 2947 1281 2994 2138 
Q 2813 1869 2534 1725 
Q 2256 1581 1919 1581 
Q 1219 1581 811 2004 
Q 403 2428 403 3163 
Q 403 3881 828 4315 
Q 1253 4750 1959 4750 
Q 2769 4750 3195 4129 
Q 3622 3509 3622 2328 
Q 3622 1225 3098 567 
Q 2575 -91 1691 -91 
Q 1453 -91 1209 -44 
Q 966 3 703 97 
z
M 1959 2075 
Q 2384 2075 2632 2365 
Q 2881 2656 2881 3163 
Q 2881 3666 2632 3958 
Q 2384 4250 1959 4250 
Q 1534 4250 1286 3958 
Q 1038 3666 1038 3163 
Q 1038 2656 1286 2365 
Q 1534 2075 1959 2075 
z
" transform="scale(0.015625)"/>
        <path id="DejaVuSans-2d" d="M 313 2009 
L 1997 2009 
L 1997 1497 
L 313 1497 
L 313 2009 
z
" transform="scale(0.015625)"/>
       </defs>
       <use xlink:href="#DejaVuSans-32"/>
       <use xlink:href="#DejaVuSans-30" x="63.623047"/>
       <use xlink:href="#DejaVuSans-31" x="127.246094"/>
       <use xlink:href="#DejaVuSans-39" x="190.869141"/>
       <use xlink:href="#DejaVuSans-2d" x="254.492188"/>
       <use xlink:href="#DejaVuSans-30" x="290.576172"/>
       <use xlink:href="#DejaVuSans-31" x="354.199219"/>
      </g>
     </g>
    </g>
    <g id="xtick_2">
     <g id="line2d_2">
      <g>
       <use xlink:href="#m1387205946" x="110.285874" y="307.584" style="stroke: #000000; stroke-width: 0.8"/>
      </g>
     </g>
     <g id="text_2">
      <!-- 2019-07 -->
      <g transform="translate(89.394468 322.182437) scale(0.1 -0.1)">
       <defs>
        <path id="DejaVuSans-37" d="M 525 4666 
L 3525 4666 
L 3525 4397 
L 1831 0 
L 1172 0 
L 2766 4134 
L 525 4134 
L 525 4666 
z
" transform="scale(0.015625)"/>
       </defs>
       <use xlink:href="#DejaVuSans-32"/>
       <use xlink:href="#DejaVuSans-30" x="63.623047"/>
       <use xlink:href="#DejaVuSans-31" x="127.246094"/>
       <use xlink:href="#DejaVuSans-39" x="190.869141"/>
       <use xlink:href="#DejaVuSans-2d" x="254.492188"/>
       <use xlink:href="#DejaVuSans-30" x="290.576172"/>
       <use xlink:href="#DejaVuSans-37" x="354.199219"/>
      </g>
     </g>
    </g>
    <g id="xtick_3">
     <g id="line2d_3">
      <g>
       <use xlink:href="#m1387205946" x="147.343217" y="307.584" style="stroke: #000000; stroke-width: 0.8"/>
      </g>
     </g>
     <g id="text_3">
      <!-- 2020-01 -->
      <g transform="translate(126.451811 322.182437) scale(0.1 -0.1)">
       <use xlink:href="#DejaVuSans-32"/>
       <use xlink:href="#DejaVuSans-30" x="63.623047"/>
       <use xlink:href="#DejaVuSans-32" x="127.246094"/>
       <use xlink:href="#DejaVuSans-30" x="190.869141"/>
       <use xlink:href="#DejaVuSans-2d" x="254.492188"/>
       <use xlink:href="#DejaVuSans-30" x="290.576172"/>
       <use xlink:href="#DejaVuSans-31" x="354.199219"/>
      </g>
     </g>
    </g>
    <g id="xtick_4">
     <g id="line2d_4">
      <g>
       <use xlink:href="#m1387205946" x="183.997762" y="307.584" style="stroke: #000000; stroke-width: 0.8"/>
      </g>
     </g>
     <g id="text_4">
      <!-- 2020-07 -->
      <g transform="translate(163.106356 322.182437) scale(0.1 -0.1)">
       <use xlink:href="#DejaVuSans-32"/>
       <use xlink:href="#DejaVuSans-30" x="63.623047"/>
       <use xlink:href="#DejaVuSans-32" x="127.246094"/>
       <use xlink:href="#DejaVuSans-30" x="190.869141"/>
       <use xlink:href="#DejaVuSans-2d" x="254.492188"/>
       <use xlink:href="#DejaVuSans-30" x="290.576172"/>
       <use xlink:href="#DejaVuSans-37" x="354.199219"/>
      </g>
     </g>
    </g>
    <g id="xtick_5">
     <g id="line2d_5">
      <g>
       <use xlink:href="#m1387205946" x="221.055105" y="307.584" style="stroke: #000000; stroke-width: 0.8"/>
      </g>
     </g>
     <g id="text_5">
      <!-- 2021-01 -->
      <g transform="translate(200.163699 322.182437) scale(0.1 -0.1)">
       <use xlink:href="#DejaVuSans-32"/>
       <use xlink:href="#DejaVuSans-30" x="63.623047"/>
       <use xlink:href="#DejaVuSans-32" x="127.246094"/>
       <use xlink:href="#DejaVuSans-31" x="190.869141"/>
       <use xlink:href="#DejaVuSans-2d" x="254.492188"/>
       <use xlink:href="#DejaVuSans-30" x="290.576172"/>
       <use xlink:href="#DejaVuSans-31" x="354.199219"/>
      </g>
     </g>
    </g>
    <g id="xtick_6">
     <g id="line2d_6">
      <g>
       <use xlink:href="#m1387205946" x="257.508252" y="307.584" style="stroke: #000000; stroke-width: 0.8"/>
      </g>
     </g>
     <g id="text_6">
      <!-- 2021-07 -->
      <g transform="translate(236.616845 322.182437) scale(0.1 -0.1)">
       <use xlink:href="#DejaVuSans-32"/>
       <use xlink:href="#DejaVuSans-30" x="63.623047"/>
       <use xlink:href="#DejaVuSans-32" x="127.246094"/>
       <use xlink:href="#DejaVuSans-31" x="190.869141"/>
       <use xlink:href="#DejaVuSans-2d" x="254.492188"/>
       <use xlink:href="#DejaVuSans-30" x="290.576172"/>
       <use xlink:href="#DejaVuSans-37" x="354.199219"/>
      </g>
     </g>
    </g>
    <g id="xtick_7">
     <g id="line2d_7">
      <g>
       <use xlink:href="#m1387205946" x="294.565594" y="307.584" style="stroke: #000000; stroke-width: 0.8"/>
      </g>
     </g>
     <g id="text_7">
      <!-- 2022-01 -->
      <g transform="translate(273.674188 322.182437) scale(0.1 -0.1)">
       <use xlink:href="#DejaVuSans-32"/>
       <use xlink:href="#DejaVuSans-30" x="63.623047"/>
       <use xlink:href="#DejaVuSans-32" x="127.246094"/>
       <use xlink:href="#DejaVuSans-32" x="190.869141"/>
       <use xlink:href="#DejaVuSans-2d" x="254.492188"/>
       <use xlink:href="#DejaVuSans-30" x="290.576172"/>
       <use xlink:href="#DejaVuSans-31" x="354.199219"/>
      </g>
     </g>
    </g>
    <g id="xtick_8">
     <g id="line2d_8">
      <g>
       <use xlink:href="#m1387205946" x="331.018741" y="307.584" style="stroke: #000000; stroke-width: 0.8"/>
      </g>
     </g>
     <g id="text_8">
      <!-- 2022-07 -->
      <g transform="translate(310.127335 322.182437) scale(0.1 -0.1)">
       <use xlink:href="#DejaVuSans-32"/>
       <use xlink:href="#DejaVuSans-30" x="63.623047"/>
       <use xlink:href="#DejaVuSans-32" x="127.246094"/>
       <use xlink:href="#DejaVuSans-32" x="190.869141"/>
       <use xlink:href="#DejaVuSans-2d" x="254.492188"/>
       <use xlink:href="#DejaVuSans-30" x="290.576172"/>
       <use xlink:href="#DejaVuSans-37" x="354.199219"/>
      </g>
     </g>
    </g>
    <g id="xtick_9">
     <g id="line2d_9">
      <g>
       <use xlink:href="#m1387205946" x="368.076084" y="307.584" style="stroke: #000000; stroke-width: 0.8"/>
      </g>
     </g>
     <g id="text_9">
      <!-- 2023-01 -->
      <g transform="translate(347.184678 322.182437) scale(0.1 -0.1)">
       <defs>
        <path id="DejaVuSans-33" d="M 2597 2516 
Q 3050 2419 3304 2112 
Q 3559 1806 3559 1356 
Q 3559 666 3084 287 
Q 2609 -91 1734 -91 
Q 1441 -91 1130 -33 
Q 819 25 488 141 
L 488 750 
Q 750 597 1062 519 
Q 1375 441 1716 441 
Q 2309 441 2620 675 
Q 2931 909 2931 1356 
Q 2931 1769 2642 2001 
Q 2353 2234 1838 2234 
L 1294 2234 
L 1294 2753 
L 1863 2753 
Q 2328 2753 2575 2939 
Q 2822 3125 2822 3475 
Q 2822 3834 2567 4026 
Q 2313 4219 1838 4219 
Q 1578 4219 1281 4162 
Q 984 4106 628 3988 
L 628 4550 
Q 988 4650 1302 4700 
Q 1616 4750 1894 4750 
Q 2613 4750 3031 4423 
Q 3450 4097 3450 3541 
Q 3450 3153 3228 2886 
Q 3006 2619 2597 2516 
z
" transform="scale(0.015625)"/>
       </defs>
       <use xlink:href="#DejaVuSans-32"/>
       <use xlink:href="#DejaVuSans-30" x="63.623047"/>
       <use xlink:href="#DejaVuSans-32" x="127.246094"/>
       <use xlink:href="#DejaVuSans-33" x="190.869141"/>
       <use xlink:href="#DejaVuSans-2d" x="254.492188"/>
       <use xlink:href="#DejaVuSans-30" x="290.576172"/>
       <use xlink:href="#DejaVuSans-31" x="354.199219"/>
      </g>
     </g>
    </g>
    <g id="xtick_10">
     <g id="line2d_10">
      <g>
       <use xlink:href="#m1387205946" x="404.529231" y="307.584" style="stroke: #000000; stroke-width: 0.8"/>
      </g>
     </g>
     <g id="text_10">
      <!-- 2023-07 -->
      <g transform="translate(383.637825 322.182437) scale(0.1 -0.1)">
       <use xlink:href="#DejaVuSans-32"/>
       <use xlink:href="#DejaVuSans-30" x="63.623047"/>
       <use xlink:href="#DejaVuSans-32" x="127.246094"/>
       <use xlink:href="#DejaVuSans-33" x="190.869141"/>
       <use xlink:href="#DejaVuSans-2d" x="254.492188"/>
       <use xlink:href="#DejaVuSans-30" x="290.576172"/>
       <use xlink:href="#DejaVuSans-37" x="354.199219"/>
      </g>
     </g>
    </g>
   </g>
   <g id="matplotlib.axis_2">
    <g id="ytick_1">
     <g id="line2d_11">
      <defs>
       <path id="m9f7723102d" d="M 0 0 
L -3.5 0 
" style="stroke: #000000; stroke-width: 0.8"/>
      </defs>
      <g>
       <use xlink:href="#m9f7723102d" x="57.6" y="296.452425" style="stroke: #000000; stroke-width: 0.8"/>
      </g>
     </g>
     <g id="text_11">
      <!-- 4 -->
      <g transform="translate(44.2375 300.251644) scale(0.1 -0.1)">
       <defs>
        <path id="DejaVuSans-34" d="M 2419 4116 
L 825 1625 
L 2419 1625 
L 2419 4116 
z
M 2253 4666 
L 3047 4666 
L 3047 1625 
L 3713 1625 
L 3713 1100 
L 3047 1100 
L 3047 0 
L 2419 0 
L 2419 1100 
L 313 1100 
L 313 1709 
L 2253 4666 
z
" transform="scale(0.015625)"/>
       </defs>
       <use xlink:href="#DejaVuSans-34"/>
      </g>
     </g>
    </g>
    <g id="ytick_2">
     <g id="line2d_12">
      <g>
       <use xlink:href="#m9f7723102d" x="57.6" y="246.690353" style="stroke: #000000; stroke-width: 0.8"/>
      </g>
     </g>
     <g id="text_12">
      <!-- 6 -->
      <g transform="translate(44.2375 250.489571) scale(0.1 -0.1)">
       <defs>
        <path id="DejaVuSans-36" d="M 2113 2584 
Q 1688 2584 1439 2293 
Q 1191 2003 1191 1497 
Q 1191 994 1439 701 
Q 1688 409 2113 409 
Q 2538 409 2786 701 
Q 3034 994 3034 1497 
Q 3034 2003 2786 2293 
Q 2538 2584 2113 2584 
z
M 3366 4563 
L 3366 3988 
Q 3128 4100 2886 4159 
Q 2644 4219 2406 4219 
Q 1781 4219 1451 3797 
Q 1122 3375 1075 2522 
Q 1259 2794 1537 2939 
Q 1816 3084 2150 3084 
Q 2853 3084 3261 2657 
Q 3669 2231 3669 1497 
Q 3669 778 3244 343 
Q 2819 -91 2113 -91 
Q 1303 -91 875 529 
Q 447 1150 447 2328 
Q 447 3434 972 4092 
Q 1497 4750 2381 4750 
Q 2619 4750 2861 4703 
Q 3103 4656 3366 4563 
z
" transform="scale(0.015625)"/>
       </defs>
       <use xlink:href="#DejaVuSans-36"/>
      </g>
     </g>
    </g>
    <g id="ytick_3">
     <g id="line2d_13">
      <g>
       <use xlink:href="#m9f7723102d" x="57.6" y="196.92828" style="stroke: #000000; stroke-width: 0.8"/>
      </g>
     </g>
     <g id="text_13">
      <!-- 8 -->
      <g transform="translate(44.2375 200.727499) scale(0.1 -0.1)">
       <defs>
        <path id="DejaVuSans-38" d="M 2034 2216 
Q 1584 2216 1326 1975 
Q 1069 1734 1069 1313 
Q 1069 891 1326 650 
Q 1584 409 2034 409 
Q 2484 409 2743 651 
Q 3003 894 3003 1313 
Q 3003 1734 2745 1975 
Q 2488 2216 2034 2216 
z
M 1403 2484 
Q 997 2584 770 2862 
Q 544 3141 544 3541 
Q 544 4100 942 4425 
Q 1341 4750 2034 4750 
Q 2731 4750 3128 4425 
Q 3525 4100 3525 3541 
Q 3525 3141 3298 2862 
Q 3072 2584 2669 2484 
Q 3125 2378 3379 2068 
Q 3634 1759 3634 1313 
Q 3634 634 3220 271 
Q 2806 -91 2034 -91 
Q 1263 -91 848 271 
Q 434 634 434 1313 
Q 434 1759 690 2068 
Q 947 2378 1403 2484 
z
M 1172 3481 
Q 1172 3119 1398 2916 
Q 1625 2713 2034 2713 
Q 2441 2713 2670 2916 
Q 2900 3119 2900 3481 
Q 2900 3844 2670 4047 
Q 2441 4250 2034 4250 
Q 1625 4250 1398 4047 
Q 1172 3844 1172 3481 
z
" transform="scale(0.015625)"/>
       </defs>
       <use xlink:href="#DejaVuSans-38"/>
      </g>
     </g>
    </g>
    <g id="ytick_4">
     <g id="line2d_14">
      <g>
       <use xlink:href="#m9f7723102d" x="57.6" y="147.166208" style="stroke: #000000; stroke-width: 0.8"/>
      </g>
     </g>
     <g id="text_14">
      <!-- 10 -->
      <g transform="translate(37.875 150.965427) scale(0.1 -0.1)">
       <use xlink:href="#DejaVuSans-31"/>
       <use xlink:href="#DejaVuSans-30" x="63.623047"/>
      </g>
     </g>
    </g>
    <g id="ytick_5">
     <g id="line2d_15">
      <g>
       <use xlink:href="#m9f7723102d" x="57.6" y="97.404136" style="stroke: #000000; stroke-width: 0.8"/>
      </g>
     </g>
     <g id="text_15">
      <!-- 12 -->
      <g transform="translate(37.875 101.203355) scale(0.1 -0.1)">
       <use xlink:href="#DejaVuSans-31"/>
       <use xlink:href="#DejaVuSans-32" x="63.623047"/>
      </g>
     </g>
    </g>
    <g id="ytick_6">
     <g id="line2d_16">
      <g>
       <use xlink:href="#m9f7723102d" x="57.6" y="47.642064" style="stroke: #000000; stroke-width: 0.8"/>
      </g>
     </g>
     <g id="text_16">
      <!-- 14 -->
      <g transform="translate(37.875 51.441282) scale(0.1 -0.1)">
       <use xlink:href="#DejaVuSans-31"/>
       <use xlink:href="#DejaVuSans-34" x="63.623047"/>
      </g>
     </g>
    </g>
   </g>
   <g id="line2d_17">
    <path d="M 73.832727 242.841354 
L 80.076084 242.841354 
L 85.715245 242.841354 
L 91.958601 242.841354 
L 98.000559 242.841354 
L 104.243916 242.841354 
L 110.285874 242.841354 
L 116.529231 242.841354 
L 122.772587 242.841354 
L 128.814545 242.841354 
L 135.057902 242.841354 
L 141.09986 242.841354 
L 147.343217 242.841354 
L 153.586573 242.841866 
L 159.427133 242.905506 
L 165.67049 242.919185 
L 171.712448 242.887072 
L 177.955804 242.863664 
L 183.997762 242.880928 
L 190.241119 242.993286 
L 196.484476 243.071409 
L 202.526434 243.286981 
L 208.76979 244.077656 
L 214.811748 244.153219 
L 221.055105 244.130177 
L 227.298462 243.771963 
L 232.937622 244.063245 
L 239.180979 244.891445 
L 245.222937 244.245826 
L 251.466294 243.107326 
L 257.508252 243.029641 
L 263.751608 243.88593 
L 269.994965 244.237634 
L 276.036923 244.4554 
L 282.28028 243.719515 
L 288.322238 244.357233 
L 294.565594 248.989945 
L 300.808951 244.704036 
L 306.448112 243.395096 
L 312.691469 243.593186 
L 318.733427 243.290712 
L 324.976783 243.051586 
L 331.018741 243.183694 
L 337.262098 243.072653 
L 343.505455 243.021594 
L 349.547413 243.063436 
L 355.790769 242.998699 
L 361.832727 243.065045 
L 368.076084 242.982167 
L 374.319441 242.94391 
L 379.958601 242.956784 
L 386.201958 243.032274 
L 392.243916 242.945007 
L 398.487273 242.894534 
" clip-path="url(#pb114bb8886)" style="fill: none; stroke: #1f77b4; stroke-width: 1.5; stroke-linecap: square"/>
   </g>
   <g id="line2d_18">
    <path d="M 73.832727 234.830065 
L 80.076084 234.830065 
L 85.715245 234.830065 
L 91.958601 234.830065 
L 98.000559 234.830065 
L 104.243916 234.830065 
L 110.285874 234.830065 
L 116.529231 234.830065 
L 122.772587 234.830065 
L 128.814545 234.830065 
L 135.057902 234.830065 
L 141.09986 234.830065 
L 147.343217 234.830065 
L 153.586573 234.830065 
L 159.427133 236.111603 
L 165.67049 241.55814 
L 171.712448 239.956217 
L 177.955804 235.631027 
L 183.997762 236.191699 
L 190.241119 235.871315 
L 196.484476 236.912565 
L 202.526434 237.473237 
L 208.76979 246.604195 
L 214.811748 269.832071 
L 221.055105 262.22294 
L 227.298462 248.126022 
L 232.937622 242.599389 
L 239.180979 243.720735 
L 245.222937 245.723138 
L 251.466294 238.834872 
L 257.508252 236.59218 
L 263.751608 237.713526 
L 269.994965 244.04112 
L 276.036923 253.572558 
L 282.28028 248.126022 
L 288.322238 242.198909 
L 294.565594 249.487656 
L 300.808951 255.174481 
L 306.448112 245.402754 
L 312.691469 254.293423 
L 318.733427 260.540921 
L 324.976783 250.84929 
L 331.018741 250.288617 
L 337.262098 251.249771 
L 343.505455 245.88333 
L 349.547413 254.213327 
L 355.790769 247.244964 
L 361.832727 252.130828 
L 368.076084 251.650251 
L 374.319441 243.800831 
L 379.958601 244.521696 
L 386.201958 249.327464 
L 392.243916 246.283811 
L 398.487273 243.320254 
" clip-path="url(#pb114bb8886)" style="fill: none; stroke: #ff7f0e; stroke-width: 1.5; stroke-linecap: square"/>
   </g>
   <g id="line2d_19">
    <path d="M 73.832727 235.293762 
L 80.076084 235.293762 
L 85.715245 235.293762 
L 91.958601 235.293762 
L 98.000559 235.293762 
L 104.243916 235.293762 
L 110.285874 235.293762 
L 116.529231 235.293762 
L 122.772587 235.293762 
L 128.814545 235.293762 
L 135.057902 235.293762 
L 141.09986 235.293762 
L 147.343217 235.293762 
L 153.586573 235.292343 
L 159.427133 236.554531 
L 165.67049 242.630375 
L 171.712448 240.921195 
L 177.955804 236.131021 
L 183.997762 236.712543 
L 190.241119 236.041578 
L 196.484476 236.993909 
L 202.526434 237.025936 
L 208.76979 245.084571 
L 214.811748 270.948524 
L 221.055105 262.471108 
L 227.298462 247.639868 
L 232.937622 240.629099 
L 239.180979 239.592949 
L 245.222937 243.629597 
L 251.466294 239.052181 
L 257.508252 236.750013 
L 263.751608 235.63603 
L 269.994965 241.764229 
L 276.036923 251.859877 
L 282.28028 247.785197 
L 288.322238 239.364945 
L 294.565594 234.709779 
L 300.808951 252.969092 
L 306.448112 245.627256 
L 312.691469 255.058163 
L 318.733427 262.909116 
L 324.976783 252.692838 
L 331.018741 251.697422 
L 337.262098 253.084003 
L 343.505455 247.201642 
L 349.547413 256.43614 
L 355.790769 248.793521 
L 361.832727 254.094071 
L 368.076084 253.784271 
L 374.319441 245.07929 
L 379.958601 245.852789 
L 386.201958 251.038095 
L 392.243916 247.863399 
L 398.487273 244.676658 
" clip-path="url(#pb114bb8886)" style="fill: none; stroke: #2ca02c; stroke-width: 1.5; stroke-linecap: square"/>
   </g>
   <g id="line2d_20">
    <path d="M 73.832727 229.117953 
L 80.076084 229.117953 
L 85.715245 229.117953 
L 91.958601 229.117953 
L 98.000559 229.117953 
L 104.243916 229.117953 
L 110.285874 229.117953 
L 116.529231 229.117953 
L 122.772587 229.117953 
L 128.814545 229.117953 
L 135.057902 229.117953 
L 141.09986 229.117953 
L 147.343217 229.117953 
L 153.586573 229.117963 
L 159.427133 229.911087 
L 165.67049 238.282747 
L 171.712448 233.67062 
L 177.955804 229.297898 
L 183.997762 229.654497 
L 190.241119 230.777835 
L 196.484476 233.119822 
L 202.526434 237.038457 
L 208.76979 225.539478 
L 214.811748 197.190223 
L 221.055105 225.580927 
L 227.298462 232.139044 
L 232.937622 234.282959 
L 239.180979 235.798448 
L 245.222937 230.004939 
L 251.466294 236.318413 
L 257.508252 232.074977 
L 263.751608 231.630505 
L 269.994965 232.488411 
L 276.036923 228.01609 
L 282.28028 235.311335 
L 288.322238 229.106467 
L 294.565594 269.237015 
L 300.808951 283.171996 
L 306.448112 248.213127 
L 312.691469 265.133855 
L 318.733427 292.21575 
L 324.976783 283.328048 
L 331.018741 279.47662 
L 337.262098 285.644026 
L 343.505455 257.305177 
L 349.547413 295.488 
L 355.790769 263.731322 
L 361.832727 289.384891 
L 368.076084 283.607091 
L 374.319441 246.501499 
L 379.958601 249.800775 
L 386.201958 275.268462 
L 392.243916 257.426614 
L 398.487273 243.07727 
" clip-path="url(#pb114bb8886)" style="fill: none; stroke: #d62728; stroke-width: 1.5; stroke-linecap: square"/>
   </g>
   <g id="patch_3">
    <path d="M 57.6 307.584 
L 57.6 41.472 
" style="fill: none; stroke: #000000; stroke-width: 0.8; stroke-linejoin: miter; stroke-linecap: square"/>
   </g>
   <g id="patch_4">
    <path d="M 414.72 307.584 
L 414.72 41.472 
" style="fill: none; stroke: #000000; stroke-width: 0.8; stroke-linejoin: miter; stroke-linecap: square"/>
   </g>
   <g id="patch_5">
    <path d="M 57.6 307.584 
L 414.72 307.584 
" style="fill: none; stroke: #000000; stroke-width: 0.8; stroke-linejoin: miter; stroke-linecap: square"/>
   </g>
   <g id="patch_6">
    <path d="M 57.6 41.472 
L 414.72 41.472 
" style="fill: none; stroke: #000000; stroke-width: 0.8; stroke-linejoin: miter; stroke-linecap: square"/>
   </g>
   <g id="text_17">
    <!-- linear and polynomial fits of British Columbia unemployment rate -->
    <g transform="translate(39.334688 35.472) scale(0.12 -0.12)">
     <defs>
      <path id="DejaVuSans-6c" d="M 603 4863 
L 1178 4863 
L 1178 0 
L 603 0 
L 603 4863 
z
" transform="scale(0.015625)"/>
      <path id="DejaVuSans-69" d="M 603 3500 
L 1178 3500 
L 1178 0 
L 603 0 
L 603 3500 
z
M 603 4863 
L 1178 4863 
L 1178 4134 
L 603 4134 
L 603 4863 
z
" transform="scale(0.015625)"/>
      <path id="DejaVuSans-6e" d="M 3513 2113 
L 3513 0 
L 2938 0 
L 2938 2094 
Q 2938 2591 2744 2837 
Q 2550 3084 2163 3084 
Q 1697 3084 1428 2787 
Q 1159 2491 1159 1978 
L 1159 0 
L 581 0 
L 581 3500 
L 1159 3500 
L 1159 2956 
Q 1366 3272 1645 3428 
Q 1925 3584 2291 3584 
Q 2894 3584 3203 3211 
Q 3513 2838 3513 2113 
z
" transform="scale(0.015625)"/>
      <path id="DejaVuSans-65" d="M 3597 1894 
L 3597 1613 
L 953 1613 
Q 991 1019 1311 708 
Q 1631 397 2203 397 
Q 2534 397 2845 478 
Q 3156 559 3463 722 
L 3463 178 
Q 3153 47 2828 -22 
Q 2503 -91 2169 -91 
Q 1331 -91 842 396 
Q 353 884 353 1716 
Q 353 2575 817 3079 
Q 1281 3584 2069 3584 
Q 2775 3584 3186 3129 
Q 3597 2675 3597 1894 
z
M 3022 2063 
Q 3016 2534 2758 2815 
Q 2500 3097 2075 3097 
Q 1594 3097 1305 2825 
Q 1016 2553 972 2059 
L 3022 2063 
z
" transform="scale(0.015625)"/>
      <path id="DejaVuSans-61" d="M 2194 1759 
Q 1497 1759 1228 1600 
Q 959 1441 959 1056 
Q 959 750 1161 570 
Q 1363 391 1709 391 
Q 2188 391 2477 730 
Q 2766 1069 2766 1631 
L 2766 1759 
L 2194 1759 
z
M 3341 1997 
L 3341 0 
L 2766 0 
L 2766 531 
Q 2569 213 2275 61 
Q 1981 -91 1556 -91 
Q 1019 -91 701 211 
Q 384 513 384 1019 
Q 384 1609 779 1909 
Q 1175 2209 1959 2209 
L 2766 2209 
L 2766 2266 
Q 2766 2663 2505 2880 
Q 2244 3097 1772 3097 
Q 1472 3097 1187 3025 
Q 903 2953 641 2809 
L 641 3341 
Q 956 3463 1253 3523 
Q 1550 3584 1831 3584 
Q 2591 3584 2966 3190 
Q 3341 2797 3341 1997 
z
" transform="scale(0.015625)"/>
      <path id="DejaVuSans-72" d="M 2631 2963 
Q 2534 3019 2420 3045 
Q 2306 3072 2169 3072 
Q 1681 3072 1420 2755 
Q 1159 2438 1159 1844 
L 1159 0 
L 581 0 
L 581 3500 
L 1159 3500 
L 1159 2956 
Q 1341 3275 1631 3429 
Q 1922 3584 2338 3584 
Q 2397 3584 2469 3576 
Q 2541 3569 2628 3553 
L 2631 2963 
z
" transform="scale(0.015625)"/>
      <path id="DejaVuSans-20" transform="scale(0.015625)"/>
      <path id="DejaVuSans-64" d="M 2906 2969 
L 2906 4863 
L 3481 4863 
L 3481 0 
L 2906 0 
L 2906 525 
Q 2725 213 2448 61 
Q 2172 -91 1784 -91 
Q 1150 -91 751 415 
Q 353 922 353 1747 
Q 353 2572 751 3078 
Q 1150 3584 1784 3584 
Q 2172 3584 2448 3432 
Q 2725 3281 2906 2969 
z
M 947 1747 
Q 947 1113 1208 752 
Q 1469 391 1925 391 
Q 2381 391 2643 752 
Q 2906 1113 2906 1747 
Q 2906 2381 2643 2742 
Q 2381 3103 1925 3103 
Q 1469 3103 1208 2742 
Q 947 2381 947 1747 
z
" transform="scale(0.015625)"/>
      <path id="DejaVuSans-70" d="M 1159 525 
L 1159 -1331 
L 581 -1331 
L 581 3500 
L 1159 3500 
L 1159 2969 
Q 1341 3281 1617 3432 
Q 1894 3584 2278 3584 
Q 2916 3584 3314 3078 
Q 3713 2572 3713 1747 
Q 3713 922 3314 415 
Q 2916 -91 2278 -91 
Q 1894 -91 1617 61 
Q 1341 213 1159 525 
z
M 3116 1747 
Q 3116 2381 2855 2742 
Q 2594 3103 2138 3103 
Q 1681 3103 1420 2742 
Q 1159 2381 1159 1747 
Q 1159 1113 1420 752 
Q 1681 391 2138 391 
Q 2594 391 2855 752 
Q 3116 1113 3116 1747 
z
" transform="scale(0.015625)"/>
      <path id="DejaVuSans-6f" d="M 1959 3097 
Q 1497 3097 1228 2736 
Q 959 2375 959 1747 
Q 959 1119 1226 758 
Q 1494 397 1959 397 
Q 2419 397 2687 759 
Q 2956 1122 2956 1747 
Q 2956 2369 2687 2733 
Q 2419 3097 1959 3097 
z
M 1959 3584 
Q 2709 3584 3137 3096 
Q 3566 2609 3566 1747 
Q 3566 888 3137 398 
Q 2709 -91 1959 -91 
Q 1206 -91 779 398 
Q 353 888 353 1747 
Q 353 2609 779 3096 
Q 1206 3584 1959 3584 
z
" transform="scale(0.015625)"/>
      <path id="DejaVuSans-79" d="M 2059 -325 
Q 1816 -950 1584 -1140 
Q 1353 -1331 966 -1331 
L 506 -1331 
L 506 -850 
L 844 -850 
Q 1081 -850 1212 -737 
Q 1344 -625 1503 -206 
L 1606 56 
L 191 3500 
L 800 3500 
L 1894 763 
L 2988 3500 
L 3597 3500 
L 2059 -325 
z
" transform="scale(0.015625)"/>
      <path id="DejaVuSans-6d" d="M 3328 2828 
Q 3544 3216 3844 3400 
Q 4144 3584 4550 3584 
Q 5097 3584 5394 3201 
Q 5691 2819 5691 2113 
L 5691 0 
L 5113 0 
L 5113 2094 
Q 5113 2597 4934 2840 
Q 4756 3084 4391 3084 
Q 3944 3084 3684 2787 
Q 3425 2491 3425 1978 
L 3425 0 
L 2847 0 
L 2847 2094 
Q 2847 2600 2669 2842 
Q 2491 3084 2119 3084 
Q 1678 3084 1418 2786 
Q 1159 2488 1159 1978 
L 1159 0 
L 581 0 
L 581 3500 
L 1159 3500 
L 1159 2956 
Q 1356 3278 1631 3431 
Q 1906 3584 2284 3584 
Q 2666 3584 2933 3390 
Q 3200 3197 3328 2828 
z
" transform="scale(0.015625)"/>
      <path id="DejaVuSans-66" d="M 2375 4863 
L 2375 4384 
L 1825 4384 
Q 1516 4384 1395 4259 
Q 1275 4134 1275 3809 
L 1275 3500 
L 2222 3500 
L 2222 3053 
L 1275 3053 
L 1275 0 
L 697 0 
L 697 3053 
L 147 3053 
L 147 3500 
L 697 3500 
L 697 3744 
Q 697 4328 969 4595 
Q 1241 4863 1831 4863 
L 2375 4863 
z
" transform="scale(0.015625)"/>
      <path id="DejaVuSans-74" d="M 1172 4494 
L 1172 3500 
L 2356 3500 
L 2356 3053 
L 1172 3053 
L 1172 1153 
Q 1172 725 1289 603 
Q 1406 481 1766 481 
L 2356 481 
L 2356 0 
L 1766 0 
Q 1100 0 847 248 
Q 594 497 594 1153 
L 594 3053 
L 172 3053 
L 172 3500 
L 594 3500 
L 594 4494 
L 1172 4494 
z
" transform="scale(0.015625)"/>
      <path id="DejaVuSans-73" d="M 2834 3397 
L 2834 2853 
Q 2591 2978 2328 3040 
Q 2066 3103 1784 3103 
Q 1356 3103 1142 2972 
Q 928 2841 928 2578 
Q 928 2378 1081 2264 
Q 1234 2150 1697 2047 
L 1894 2003 
Q 2506 1872 2764 1633 
Q 3022 1394 3022 966 
Q 3022 478 2636 193 
Q 2250 -91 1575 -91 
Q 1294 -91 989 -36 
Q 684 19 347 128 
L 347 722 
Q 666 556 975 473 
Q 1284 391 1588 391 
Q 1994 391 2212 530 
Q 2431 669 2431 922 
Q 2431 1156 2273 1281 
Q 2116 1406 1581 1522 
L 1381 1569 
Q 847 1681 609 1914 
Q 372 2147 372 2553 
Q 372 3047 722 3315 
Q 1072 3584 1716 3584 
Q 2034 3584 2315 3537 
Q 2597 3491 2834 3397 
z
" transform="scale(0.015625)"/>
      <path id="DejaVuSans-42" d="M 1259 2228 
L 1259 519 
L 2272 519 
Q 2781 519 3026 730 
Q 3272 941 3272 1375 
Q 3272 1813 3026 2020 
Q 2781 2228 2272 2228 
L 1259 2228 
z
M 1259 4147 
L 1259 2741 
L 2194 2741 
Q 2656 2741 2882 2914 
Q 3109 3088 3109 3444 
Q 3109 3797 2882 3972 
Q 2656 4147 2194 4147 
L 1259 4147 
z
M 628 4666 
L 2241 4666 
Q 2963 4666 3353 4366 
Q 3744 4066 3744 3513 
Q 3744 3084 3544 2831 
Q 3344 2578 2956 2516 
Q 3422 2416 3680 2098 
Q 3938 1781 3938 1306 
Q 3938 681 3513 340 
Q 3088 0 2303 0 
L 628 0 
L 628 4666 
z
" transform="scale(0.015625)"/>
      <path id="DejaVuSans-68" d="M 3513 2113 
L 3513 0 
L 2938 0 
L 2938 2094 
Q 2938 2591 2744 2837 
Q 2550 3084 2163 3084 
Q 1697 3084 1428 2787 
Q 1159 2491 1159 1978 
L 1159 0 
L 581 0 
L 581 4863 
L 1159 4863 
L 1159 2956 
Q 1366 3272 1645 3428 
Q 1925 3584 2291 3584 
Q 2894 3584 3203 3211 
Q 3513 2838 3513 2113 
z
" transform="scale(0.015625)"/>
      <path id="DejaVuSans-43" d="M 4122 4306 
L 4122 3641 
Q 3803 3938 3442 4084 
Q 3081 4231 2675 4231 
Q 1875 4231 1450 3742 
Q 1025 3253 1025 2328 
Q 1025 1406 1450 917 
Q 1875 428 2675 428 
Q 3081 428 3442 575 
Q 3803 722 4122 1019 
L 4122 359 
Q 3791 134 3420 21 
Q 3050 -91 2638 -91 
Q 1578 -91 968 557 
Q 359 1206 359 2328 
Q 359 3453 968 4101 
Q 1578 4750 2638 4750 
Q 3056 4750 3426 4639 
Q 3797 4528 4122 4306 
z
" transform="scale(0.015625)"/>
      <path id="DejaVuSans-75" d="M 544 1381 
L 544 3500 
L 1119 3500 
L 1119 1403 
Q 1119 906 1312 657 
Q 1506 409 1894 409 
Q 2359 409 2629 706 
Q 2900 1003 2900 1516 
L 2900 3500 
L 3475 3500 
L 3475 0 
L 2900 0 
L 2900 538 
Q 2691 219 2414 64 
Q 2138 -91 1772 -91 
Q 1169 -91 856 284 
Q 544 659 544 1381 
z
M 1991 3584 
L 1991 3584 
z
" transform="scale(0.015625)"/>
      <path id="DejaVuSans-62" d="M 3116 1747 
Q 3116 2381 2855 2742 
Q 2594 3103 2138 3103 
Q 1681 3103 1420 2742 
Q 1159 2381 1159 1747 
Q 1159 1113 1420 752 
Q 1681 391 2138 391 
Q 2594 391 2855 752 
Q 3116 1113 3116 1747 
z
M 1159 2969 
Q 1341 3281 1617 3432 
Q 1894 3584 2278 3584 
Q 2916 3584 3314 3078 
Q 3713 2572 3713 1747 
Q 3713 922 3314 415 
Q 2916 -91 2278 -91 
Q 1894 -91 1617 61 
Q 1341 213 1159 525 
L 1159 0 
L 581 0 
L 581 4863 
L 1159 4863 
L 1159 2969 
z
" transform="scale(0.015625)"/>
     </defs>
     <use xlink:href="#DejaVuSans-6c"/>
     <use xlink:href="#DejaVuSans-69" x="27.783203"/>
     <use xlink:href="#DejaVuSans-6e" x="55.566406"/>
     <use xlink:href="#DejaVuSans-65" x="118.945312"/>
     <use xlink:href="#DejaVuSans-61" x="180.46875"/>
     <use xlink:href="#DejaVuSans-72" x="241.748047"/>
     <use xlink:href="#DejaVuSans-20" x="282.861328"/>
     <use xlink:href="#DejaVuSans-61" x="314.648438"/>
     <use xlink:href="#DejaVuSans-6e" x="375.927734"/>
     <use xlink:href="#DejaVuSans-64" x="439.306641"/>
     <use xlink:href="#DejaVuSans-20" x="502.783203"/>
     <use xlink:href="#DejaVuSans-70" x="534.570312"/>
     <use xlink:href="#DejaVuSans-6f" x="598.046875"/>
     <use xlink:href="#DejaVuSans-6c" x="659.228516"/>
     <use xlink:href="#DejaVuSans-79" x="687.011719"/>
     <use xlink:href="#DejaVuSans-6e" x="746.191406"/>
     <use xlink:href="#DejaVuSans-6f" x="809.570312"/>
     <use xlink:href="#DejaVuSans-6d" x="870.751953"/>
     <use xlink:href="#DejaVuSans-69" x="968.164062"/>
     <use xlink:href="#DejaVuSans-61" x="995.947266"/>
     <use xlink:href="#DejaVuSans-6c" x="1057.226562"/>
     <use xlink:href="#DejaVuSans-20" x="1085.009766"/>
     <use xlink:href="#DejaVuSans-66" x="1116.796875"/>
     <use xlink:href="#DejaVuSans-69" x="1152.001953"/>
     <use xlink:href="#DejaVuSans-74" x="1179.785156"/>
     <use xlink:href="#DejaVuSans-73" x="1218.994141"/>
     <use xlink:href="#DejaVuSans-20" x="1271.09375"/>
     <use xlink:href="#DejaVuSans-6f" x="1302.880859"/>
     <use xlink:href="#DejaVuSans-66" x="1364.0625"/>
     <use xlink:href="#DejaVuSans-20" x="1399.267578"/>
     <use xlink:href="#DejaVuSans-42" x="1431.054688"/>
     <use xlink:href="#DejaVuSans-72" x="1499.658203"/>
     <use xlink:href="#DejaVuSans-69" x="1540.771484"/>
     <use xlink:href="#DejaVuSans-74" x="1568.554688"/>
     <use xlink:href="#DejaVuSans-69" x="1607.763672"/>
     <use xlink:href="#DejaVuSans-73" x="1635.546875"/>
     <use xlink:href="#DejaVuSans-68" x="1687.646484"/>
     <use xlink:href="#DejaVuSans-20" x="1751.025391"/>
     <use xlink:href="#DejaVuSans-43" x="1782.8125"/>
     <use xlink:href="#DejaVuSans-6f" x="1852.636719"/>
     <use xlink:href="#DejaVuSans-6c" x="1913.818359"/>
     <use xlink:href="#DejaVuSans-75" x="1941.601562"/>
     <use xlink:href="#DejaVuSans-6d" x="2004.980469"/>
     <use xlink:href="#DejaVuSans-62" x="2102.392578"/>
     <use xlink:href="#DejaVuSans-69" x="2165.869141"/>
     <use xlink:href="#DejaVuSans-61" x="2193.652344"/>
     <use xlink:href="#DejaVuSans-20" x="2254.931641"/>
     <use xlink:href="#DejaVuSans-75" x="2286.71875"/>
     <use xlink:href="#DejaVuSans-6e" x="2350.097656"/>
     <use xlink:href="#DejaVuSans-65" x="2413.476562"/>
     <use xlink:href="#DejaVuSans-6d" x="2475"/>
     <use xlink:href="#DejaVuSans-70" x="2572.412109"/>
     <use xlink:href="#DejaVuSans-6c" x="2635.888672"/>
     <use xlink:href="#DejaVuSans-6f" x="2663.671875"/>
     <use xlink:href="#DejaVuSans-79" x="2724.853516"/>
     <use xlink:href="#DejaVuSans-6d" x="2784.033203"/>
     <use xlink:href="#DejaVuSans-65" x="2881.445312"/>
     <use xlink:href="#DejaVuSans-6e" x="2942.96875"/>
     <use xlink:href="#DejaVuSans-74" x="3006.347656"/>
     <use xlink:href="#DejaVuSans-20" x="3045.556641"/>
     <use xlink:href="#DejaVuSans-72" x="3077.34375"/>
     <use xlink:href="#DejaVuSans-61" x="3118.457031"/>
     <use xlink:href="#DejaVuSans-74" x="3179.736328"/>
     <use xlink:href="#DejaVuSans-65" x="3218.945312"/>
    </g>
   </g>
   <g id="legend_1">
    <g id="patch_7">
     <path d="M 226.696562 122.862625 
L 407.72 122.862625 
Q 409.72 122.862625 409.72 120.862625 
L 409.72 48.472 
Q 409.72 46.472 407.72 46.472 
L 226.696562 46.472 
Q 224.696562 46.472 224.696562 48.472 
L 224.696562 120.862625 
Q 224.696562 122.862625 226.696562 122.862625 
z
" style="fill: #ffffff; opacity: 0.8; stroke: #cccccc; stroke-linejoin: miter"/>
    </g>
    <g id="PathCollection_2">
     <g>
      <use xlink:href="#m0c76cf6b42" x="238.696562" y="55.445438" style="fill: #1f77b4; stroke: #1f77b4"/>
     </g>
    </g>
    <g id="text_18">
     <!-- unemployment -->
     <g transform="translate(256.696563 58.070438) scale(0.1 -0.1)">
      <use xlink:href="#DejaVuSans-75"/>
      <use xlink:href="#DejaVuSans-6e" x="63.378906"/>
      <use xlink:href="#DejaVuSans-65" x="126.757812"/>
      <use xlink:href="#DejaVuSans-6d" x="188.28125"/>
      <use xlink:href="#DejaVuSans-70" x="285.693359"/>
      <use xlink:href="#DejaVuSans-6c" x="349.169922"/>
      <use xlink:href="#DejaVuSans-6f" x="376.953125"/>
      <use xlink:href="#DejaVuSans-79" x="438.134766"/>
      <use xlink:href="#DejaVuSans-6d" x="497.314453"/>
      <use xlink:href="#DejaVuSans-65" x="594.726562"/>
      <use xlink:href="#DejaVuSans-6e" x="656.25"/>
      <use xlink:href="#DejaVuSans-74" x="719.628906"/>
     </g>
    </g>
    <g id="line2d_21">
     <path d="M 228.696562 69.248563 
L 238.696562 69.248563 
L 248.696562 69.248563 
" style="fill: none; stroke: #1f77b4; stroke-width: 1.5; stroke-linecap: square"/>
    </g>
    <g id="text_19">
     <!-- prediction with covid cases -->
     <g transform="translate(256.696563 72.748563) scale(0.1 -0.1)">
      <defs>
       <path id="DejaVuSans-63" d="M 3122 3366 
L 3122 2828 
Q 2878 2963 2633 3030 
Q 2388 3097 2138 3097 
Q 1578 3097 1268 2742 
Q 959 2388 959 1747 
Q 959 1106 1268 751 
Q 1578 397 2138 397 
Q 2388 397 2633 464 
Q 2878 531 3122 666 
L 3122 134 
Q 2881 22 2623 -34 
Q 2366 -91 2075 -91 
Q 1284 -91 818 406 
Q 353 903 353 1747 
Q 353 2603 823 3093 
Q 1294 3584 2113 3584 
Q 2378 3584 2631 3529 
Q 2884 3475 3122 3366 
z
" transform="scale(0.015625)"/>
       <path id="DejaVuSans-77" d="M 269 3500 
L 844 3500 
L 1563 769 
L 2278 3500 
L 2956 3500 
L 3675 769 
L 4391 3500 
L 4966 3500 
L 4050 0 
L 3372 0 
L 2619 2869 
L 1863 0 
L 1184 0 
L 269 3500 
z
" transform="scale(0.015625)"/>
       <path id="DejaVuSans-76" d="M 191 3500 
L 800 3500 
L 1894 563 
L 2988 3500 
L 3597 3500 
L 2284 0 
L 1503 0 
L 191 3500 
z
" transform="scale(0.015625)"/>
      </defs>
      <use xlink:href="#DejaVuSans-70"/>
      <use xlink:href="#DejaVuSans-72" x="63.476562"/>
      <use xlink:href="#DejaVuSans-65" x="102.339844"/>
      <use xlink:href="#DejaVuSans-64" x="163.863281"/>
      <use xlink:href="#DejaVuSans-69" x="227.339844"/>
      <use xlink:href="#DejaVuSans-63" x="255.123047"/>
      <use xlink:href="#DejaVuSans-74" x="310.103516"/>
      <use xlink:href="#DejaVuSans-69" x="349.3125"/>
      <use xlink:href="#DejaVuSans-6f" x="377.095703"/>
      <use xlink:href="#DejaVuSans-6e" x="438.277344"/>
      <use xlink:href="#DejaVuSans-20" x="501.65625"/>
      <use xlink:href="#DejaVuSans-77" x="533.443359"/>
      <use xlink:href="#DejaVuSans-69" x="615.230469"/>
      <use xlink:href="#DejaVuSans-74" x="643.013672"/>
      <use xlink:href="#DejaVuSans-68" x="682.222656"/>
      <use xlink:href="#DejaVuSans-20" x="745.601562"/>
      <use xlink:href="#DejaVuSans-63" x="777.388672"/>
      <use xlink:href="#DejaVuSans-6f" x="832.369141"/>
      <use xlink:href="#DejaVuSans-76" x="893.550781"/>
      <use xlink:href="#DejaVuSans-69" x="952.730469"/>
      <use xlink:href="#DejaVuSans-64" x="980.513672"/>
      <use xlink:href="#DejaVuSans-20" x="1043.990234"/>
      <use xlink:href="#DejaVuSans-63" x="1075.777344"/>
      <use xlink:href="#DejaVuSans-61" x="1130.757812"/>
      <use xlink:href="#DejaVuSans-73" x="1192.037109"/>
      <use xlink:href="#DejaVuSans-65" x="1244.136719"/>
      <use xlink:href="#DejaVuSans-73" x="1305.660156"/>
     </g>
    </g>
    <g id="line2d_22">
     <path d="M 228.696562 83.926688 
L 238.696562 83.926688 
L 248.696562 83.926688 
" style="fill: none; stroke: #ff7f0e; stroke-width: 1.5; stroke-linecap: square"/>
    </g>
    <g id="text_20">
     <!-- prediction with covid deaths -->
     <g transform="translate(256.696563 87.426688) scale(0.1 -0.1)">
      <use xlink:href="#DejaVuSans-70"/>
      <use xlink:href="#DejaVuSans-72" x="63.476562"/>
      <use xlink:href="#DejaVuSans-65" x="102.339844"/>
      <use xlink:href="#DejaVuSans-64" x="163.863281"/>
      <use xlink:href="#DejaVuSans-69" x="227.339844"/>
      <use xlink:href="#DejaVuSans-63" x="255.123047"/>
      <use xlink:href="#DejaVuSans-74" x="310.103516"/>
      <use xlink:href="#DejaVuSans-69" x="349.3125"/>
      <use xlink:href="#DejaVuSans-6f" x="377.095703"/>
      <use xlink:href="#DejaVuSans-6e" x="438.277344"/>
      <use xlink:href="#DejaVuSans-20" x="501.65625"/>
      <use xlink:href="#DejaVuSans-77" x="533.443359"/>
      <use xlink:href="#DejaVuSans-69" x="615.230469"/>
      <use xlink:href="#DejaVuSans-74" x="643.013672"/>
      <use xlink:href="#DejaVuSans-68" x="682.222656"/>
      <use xlink:href="#DejaVuSans-20" x="745.601562"/>
      <use xlink:href="#DejaVuSans-63" x="777.388672"/>
      <use xlink:href="#DejaVuSans-6f" x="832.369141"/>
      <use xlink:href="#DejaVuSans-76" x="893.550781"/>
      <use xlink:href="#DejaVuSans-69" x="952.730469"/>
      <use xlink:href="#DejaVuSans-64" x="980.513672"/>
      <use xlink:href="#DejaVuSans-20" x="1043.990234"/>
      <use xlink:href="#DejaVuSans-64" x="1075.777344"/>
      <use xlink:href="#DejaVuSans-65" x="1139.253906"/>
      <use xlink:href="#DejaVuSans-61" x="1200.777344"/>
      <use xlink:href="#DejaVuSans-74" x="1262.056641"/>
      <use xlink:href="#DejaVuSans-68" x="1301.265625"/>
      <use xlink:href="#DejaVuSans-73" x="1364.644531"/>
     </g>
    </g>
    <g id="line2d_23">
     <path d="M 228.696562 98.604813 
L 238.696562 98.604813 
L 248.696562 98.604813 
" style="fill: none; stroke: #2ca02c; stroke-width: 1.5; stroke-linecap: square"/>
    </g>
    <g id="text_21">
     <!-- predictions with both -->
     <g transform="translate(256.696563 102.104813) scale(0.1 -0.1)">
      <use xlink:href="#DejaVuSans-70"/>
      <use xlink:href="#DejaVuSans-72" x="63.476562"/>
      <use xlink:href="#DejaVuSans-65" x="102.339844"/>
      <use xlink:href="#DejaVuSans-64" x="163.863281"/>
      <use xlink:href="#DejaVuSans-69" x="227.339844"/>
      <use xlink:href="#DejaVuSans-63" x="255.123047"/>
      <use xlink:href="#DejaVuSans-74" x="310.103516"/>
      <use xlink:href="#DejaVuSans-69" x="349.3125"/>
      <use xlink:href="#DejaVuSans-6f" x="377.095703"/>
      <use xlink:href="#DejaVuSans-6e" x="438.277344"/>
      <use xlink:href="#DejaVuSans-73" x="501.65625"/>
      <use xlink:href="#DejaVuSans-20" x="553.755859"/>
      <use xlink:href="#DejaVuSans-77" x="585.542969"/>
      <use xlink:href="#DejaVuSans-69" x="667.330078"/>
      <use xlink:href="#DejaVuSans-74" x="695.113281"/>
      <use xlink:href="#DejaVuSans-68" x="734.322266"/>
      <use xlink:href="#DejaVuSans-20" x="797.701172"/>
      <use xlink:href="#DejaVuSans-62" x="829.488281"/>
      <use xlink:href="#DejaVuSans-6f" x="892.964844"/>
      <use xlink:href="#DejaVuSans-74" x="954.146484"/>
      <use xlink:href="#DejaVuSans-68" x="993.355469"/>
     </g>
    </g>
    <g id="line2d_24">
     <path d="M 228.696562 113.282938 
L 238.696562 113.282938 
L 248.696562 113.282938 
" style="fill: none; stroke: #d62728; stroke-width: 1.5; stroke-linecap: square"/>
    </g>
    <g id="text_22">
     <!-- polynomial regression of both -->
     <g transform="translate(256.696563 116.782938) scale(0.1 -0.1)">
      <defs>
       <path id="DejaVuSans-67" d="M 2906 1791 
Q 2906 2416 2648 2759 
Q 2391 3103 1925 3103 
Q 1463 3103 1205 2759 
Q 947 2416 947 1791 
Q 947 1169 1205 825 
Q 1463 481 1925 481 
Q 2391 481 2648 825 
Q 2906 1169 2906 1791 
z
M 3481 434 
Q 3481 -459 3084 -895 
Q 2688 -1331 1869 -1331 
Q 1566 -1331 1297 -1286 
Q 1028 -1241 775 -1147 
L 775 -588 
Q 1028 -725 1275 -790 
Q 1522 -856 1778 -856 
Q 2344 -856 2625 -561 
Q 2906 -266 2906 331 
L 2906 616 
Q 2728 306 2450 153 
Q 2172 0 1784 0 
Q 1141 0 747 490 
Q 353 981 353 1791 
Q 353 2603 747 3093 
Q 1141 3584 1784 3584 
Q 2172 3584 2450 3431 
Q 2728 3278 2906 2969 
L 2906 3500 
L 3481 3500 
L 3481 434 
z
" transform="scale(0.015625)"/>
      </defs>
      <use xlink:href="#DejaVuSans-70"/>
      <use xlink:href="#DejaVuSans-6f" x="63.476562"/>
      <use xlink:href="#DejaVuSans-6c" x="124.658203"/>
      <use xlink:href="#DejaVuSans-79" x="152.441406"/>
      <use xlink:href="#DejaVuSans-6e" x="211.621094"/>
      <use xlink:href="#DejaVuSans-6f" x="275"/>
      <use xlink:href="#DejaVuSans-6d" x="336.181641"/>
      <use xlink:href="#DejaVuSans-69" x="433.59375"/>
      <use xlink:href="#DejaVuSans-61" x="461.376953"/>
      <use xlink:href="#DejaVuSans-6c" x="522.65625"/>
      <use xlink:href="#DejaVuSans-20" x="550.439453"/>
      <use xlink:href="#DejaVuSans-72" x="582.226562"/>
      <use xlink:href="#DejaVuSans-65" x="621.089844"/>
      <use xlink:href="#DejaVuSans-67" x="682.613281"/>
      <use xlink:href="#DejaVuSans-72" x="746.089844"/>
      <use xlink:href="#DejaVuSans-65" x="784.953125"/>
      <use xlink:href="#DejaVuSans-73" x="846.476562"/>
      <use xlink:href="#DejaVuSans-73" x="898.576172"/>
      <use xlink:href="#DejaVuSans-69" x="950.675781"/>
      <use xlink:href="#DejaVuSans-6f" x="978.458984"/>
      <use xlink:href="#DejaVuSans-6e" x="1039.640625"/>
      <use xlink:href="#DejaVuSans-20" x="1103.019531"/>
      <use xlink:href="#DejaVuSans-6f" x="1134.806641"/>
      <use xlink:href="#DejaVuSans-66" x="1195.988281"/>
      <use xlink:href="#DejaVuSans-20" x="1231.193359"/>
      <use xlink:href="#DejaVuSans-62" x="1262.980469"/>
      <use xlink:href="#DejaVuSans-6f" x="1326.457031"/>
      <use xlink:href="#DejaVuSans-74" x="1387.638672"/>
      <use xlink:href="#DejaVuSans-68" x="1426.847656"/>
     </g>
    </g>
   </g>
  </g>
 </g>
 <defs>
  <clipPath id="pb114bb8886">
   <rect x="57.6" y="41.472" width="357.12" height="266.112"/>
  </clipPath>
 </defs>
</svg>
