<?xml version="1.0" encoding="utf-8" standalone="no"?>
<!DOCTYPE svg PUBLIC "-//W3C//DTD SVG 1.1//EN"
  "http://www.w3.org/Graphics/SVG/1.1/DTD/svg11.dtd">
<svg xmlns:xlink="http://www.w3.org/1999/xlink" width="460.8pt" height="345.6pt" viewBox="0 0 460.8 345.6" xmlns="http://www.w3.org/2000/svg" version="1.1">
 <metadata>
  <rdf:RDF xmlns:dc="http://purl.org/dc/elements/1.1/" xmlns:cc="http://creativecommons.org/ns#" xmlns:rdf="http://www.w3.org/1999/02/22-rdf-syntax-ns#">
   <cc:Work>
    <dc:type rdf:resource="http://purl.org/dc/dcmitype/StillImage"/>
    <dc:date>2023-07-31T23:58:10.510193</dc:date>
    <dc:format>image/svg+xml</dc:format>
    <dc:creator>
     <cc:Agent>
      <dc:title>Matplotlib v3.7.1, https://matplotlib.org/</dc:title>
     </cc:Agent>
    </dc:creator>
   </cc:Work>
  </rdf:RDF>
 </metadata>
 <defs>
  <style type="text/css">*{stroke-linejoin: round; stroke-linecap: butt}</style>
 </defs>
 <g id="figure_1">
  <g id="patch_1">
   <path d="M 0 345.6 
L 460.8 345.6 
L 460.8 0 
L 0 0 
z
" style="fill: #ffffff"/>
  </g>
  <g id="axes_1">
   <g id="patch_2">
    <path d="M 57.6 307.584 
L 414.72 307.584 
L 414.72 41.472 
L 57.6 41.472 
z
" style="fill: #ffffff"/>
   </g>
   <g id="PathCollection_1">
    <defs>
     <path id="mbac31f1cfa" d="M 0 3 
C 0.795609 3 1.55874 2.683901 2.12132 2.12132 
C 2.683901 1.55874 3 0.795609 3 0 
C 3 -0.795609 2.683901 -1.55874 2.12132 -2.12132 
C 1.55874 -2.683901 0.795609 -3 0 -3 
C -0.795609 -3 -1.55874 -2.683901 -2.12132 -2.12132 
C -2.683901 -1.55874 -3 -0.795609 -3 0 
C -3 0.795609 -2.683901 1.55874 -2.12132 2.12132 
C -1.55874 2.683901 -0.795609 3 0 3 
z
" style="stroke: #1f77b4"/>
    </defs>
    <g clip-path="url(#pc0d533db71)">
     <use xlink:href="#mbac31f1cfa" x="73.832727" y="261.44093" style="fill: #1f77b4; stroke: #1f77b4"/>
     <use xlink:href="#mbac31f1cfa" x="80.076084" y="260.704394" style="fill: #1f77b4; stroke: #1f77b4"/>
     <use xlink:href="#mbac31f1cfa" x="85.715245" y="258.362041" style="fill: #1f77b4; stroke: #1f77b4"/>
     <use xlink:href="#mbac31f1cfa" x="91.958601" y="266.940414" style="fill: #1f77b4; stroke: #1f77b4"/>
     <use xlink:href="#mbac31f1cfa" x="98.000559" y="263.830301" style="fill: #1f77b4; stroke: #1f77b4"/>
     <use xlink:href="#mbac31f1cfa" x="104.243916" y="264.603767" style="fill: #1f77b4; stroke: #1f77b4"/>
     <use xlink:href="#mbac31f1cfa" x="110.285874" y="266.140203" style="fill: #1f77b4; stroke: #1f77b4"/>
     <use xlink:href="#mbac31f1cfa" x="116.529231" y="270.827013" style="fill: #1f77b4; stroke: #1f77b4"/>
     <use xlink:href="#mbac31f1cfa" x="122.772587" y="261.471388" style="fill: #1f77b4; stroke: #1f77b4"/>
     <use xlink:href="#mbac31f1cfa" x="128.814545" y="262.233688" style="fill: #1f77b4; stroke: #1f77b4"/>
     <use xlink:href="#mbac31f1cfa" x="135.057902" y="257.546685" style="fill: #1f77b4; stroke: #1f77b4"/>
     <use xlink:href="#mbac31f1cfa" x="141.09986" y="263.790932" style="fill: #1f77b4; stroke: #1f77b4"/>
     <use xlink:href="#mbac31f1cfa" x="147.343217" y="267.688299" style="fill: #1f77b4; stroke: #1f77b4"/>
     <use xlink:href="#mbac31f1cfa" x="153.586573" y="270.791796" style="fill: #1f77b4; stroke: #1f77b4"/>
     <use xlink:href="#mbac31f1cfa" x="159.427133" y="206.02675" style="fill: #1f77b4; stroke: #1f77b4"/>
     <use xlink:href="#mbac31f1cfa" x="165.67049" y="56.565747" style="fill: #1f77b4; stroke: #1f77b4"/>
     <use xlink:href="#mbac31f1cfa" x="171.712448" y="122.01207" style="fill: #1f77b4; stroke: #1f77b4"/>
     <use xlink:href="#mbac31f1cfa" x="177.955804" y="172.604685" style="fill: #1f77b4; stroke: #1f77b4"/>
     <use xlink:href="#mbac31f1cfa" x="183.997762" y="196.034614" style="fill: #1f77b4; stroke: #1f77b4"/>
     <use xlink:href="#mbac31f1cfa" x="190.241119" y="210.794522" style="fill: #1f77b4; stroke: #1f77b4"/>
     <use xlink:href="#mbac31f1cfa" x="196.484476" y="227.937491" style="fill: #1f77b4; stroke: #1f77b4"/>
     <use xlink:href="#mbac31f1cfa" x="202.526434" y="223.288532" style="fill: #1f77b4; stroke: #1f77b4"/>
     <use xlink:href="#mbac31f1cfa" x="208.76979" y="231.08252" style="fill: #1f77b4; stroke: #1f77b4"/>
     <use xlink:href="#mbac31f1cfa" x="214.811748" y="236.532427" style="fill: #1f77b4; stroke: #1f77b4"/>
     <use xlink:href="#mbac31f1cfa" x="221.055105" y="212.347774" style="fill: #1f77b4; stroke: #1f77b4"/>
     <use xlink:href="#mbac31f1cfa" x="227.298462" y="240.405514" style="fill: #1f77b4; stroke: #1f77b4"/>
     <use xlink:href="#mbac31f1cfa" x="232.937622" y="238.866167" style="fill: #1f77b4; stroke: #1f77b4"/>
     <use xlink:href="#mbac31f1cfa" x="239.180979" y="237.294201" style="fill: #1f77b4; stroke: #1f77b4"/>
     <use xlink:href="#mbac31f1cfa" x="245.222937" y="238.052297" style="fill: #1f77b4; stroke: #1f77b4"/>
     <use xlink:href="#mbac31f1cfa" x="251.466294" y="245.860716" style="fill: #1f77b4; stroke: #1f77b4"/>
     <use xlink:href="#mbac31f1cfa" x="257.508252" y="243.526051" style="fill: #1f77b4; stroke: #1f77b4"/>
     <use xlink:href="#mbac31f1cfa" x="263.751608" y="252.888082" style="fill: #1f77b4; stroke: #1f77b4"/>
     <use xlink:href="#mbac31f1cfa" x="269.994965" y="248.981591" style="fill: #1f77b4; stroke: #1f77b4"/>
     <use xlink:href="#mbac31f1cfa" x="276.036923" y="259.106112" style="fill: #1f77b4; stroke: #1f77b4"/>
     <use xlink:href="#mbac31f1cfa" x="282.28028" y="272.365574" style="fill: #1f77b4; stroke: #1f77b4"/>
     <use xlink:href="#mbac31f1cfa" x="288.322238" y="269.225893" style="fill: #1f77b4; stroke: #1f77b4"/>
     <use xlink:href="#mbac31f1cfa" x="294.565594" y="262.217265" style="fill: #1f77b4; stroke: #1f77b4"/>
     <use xlink:href="#mbac31f1cfa" x="300.808951" y="273.118526" style="fill: #1f77b4; stroke: #1f77b4"/>
     <use xlink:href="#mbac31f1cfa" x="306.448112" y="277.001802" style="fill: #1f77b4; stroke: #1f77b4"/>
     <use xlink:href="#mbac31f1cfa" x="312.691469" y="274.671808" style="fill: #1f77b4; stroke: #1f77b4"/>
     <use xlink:href="#mbac31f1cfa" x="318.733427" y="274.703562" style="fill: #1f77b4; stroke: #1f77b4"/>
     <use xlink:href="#mbac31f1cfa" x="324.976783" y="273.899451" style="fill: #1f77b4; stroke: #1f77b4"/>
     <use xlink:href="#mbac31f1cfa" x="331.018741" y="277.028176" style="fill: #1f77b4; stroke: #1f77b4"/>
     <use xlink:href="#mbac31f1cfa" x="337.262098" y="273.916375" style="fill: #1f77b4; stroke: #1f77b4"/>
     <use xlink:href="#mbac31f1cfa" x="343.505455" y="273.920345" style="fill: #1f77b4; stroke: #1f77b4"/>
     <use xlink:href="#mbac31f1cfa" x="349.547413" y="278.577286" style="fill: #1f77b4; stroke: #1f77b4"/>
     <use xlink:href="#mbac31f1cfa" x="355.790769" y="281.700971" style="fill: #1f77b4; stroke: #1f77b4"/>
     <use xlink:href="#mbac31f1cfa" x="361.832727" y="278.576617" style="fill: #1f77b4; stroke: #1f77b4"/>
     <use xlink:href="#mbac31f1cfa" x="368.076084" y="280.918876" style="fill: #1f77b4; stroke: #1f77b4"/>
     <use xlink:href="#mbac31f1cfa" x="374.319441" y="277.021561" style="fill: #1f77b4; stroke: #1f77b4"/>
     <use xlink:href="#mbac31f1cfa" x="379.958601" y="275.449084" style="fill: #1f77b4; stroke: #1f77b4"/>
     <use xlink:href="#mbac31f1cfa" x="386.201958" y="277.790985" style="fill: #1f77b4; stroke: #1f77b4"/>
     <use xlink:href="#mbac31f1cfa" x="392.243916" y="280.135066" style="fill: #1f77b4; stroke: #1f77b4"/>
     <use xlink:href="#mbac31f1cfa" x="398.487273" y="273.904713" style="fill: #1f77b4; stroke: #1f77b4"/>
    </g>
   </g>
   <g id="matplotlib.axis_1">
    <g id="xtick_1">
     <g id="line2d_1">
      <defs>
       <path id="m3b98fb4784" d="M 0 0 
L 0 3.5 
" style="stroke: #000000; stroke-width: 0.8"/>
      </defs>
      <g>
       <use xlink:href="#m3b98fb4784" x="73.832727" y="307.584" style="stroke: #000000; stroke-width: 0.8"/>
      </g>
     </g>
     <g id="text_1">
      <!-- 2019-01 -->
      <g transform="translate(52.941321 322.182437) scale(0.1 -0.1)">
       <defs>
        <path id="DejaVuSans-32" d="M 1228 531 
L 3431 531 
L 3431 0 
L 469 0 
L 469 531 
Q 828 903 1448 1529 
Q 2069 2156 2228 2338 
Q 2531 2678 2651 2914 
Q 2772 3150 2772 3378 
Q 2772 3750 2511 3984 
Q 2250 4219 1831 4219 
Q 1534 4219 1204 4116 
Q 875 4013 500 3803 
L 500 4441 
Q 881 4594 1212 4672 
Q 1544 4750 1819 4750 
Q 2544 4750 2975 4387 
Q 3406 4025 3406 3419 
Q 3406 3131 3298 2873 
Q 3191 2616 2906 2266 
Q 2828 2175 2409 1742 
Q 1991 1309 1228 531 
z
" transform="scale(0.015625)"/>
        <path id="DejaVuSans-30" d="M 2034 4250 
Q 1547 4250 1301 3770 
Q 1056 3291 1056 2328 
Q 1056 1369 1301 889 
Q 1547 409 2034 409 
Q 2525 409 2770 889 
Q 3016 1369 3016 2328 
Q 3016 3291 2770 3770 
Q 2525 4250 2034 4250 
z
M 2034 4750 
Q 2819 4750 3233 4129 
Q 3647 3509 3647 2328 
Q 3647 1150 3233 529 
Q 2819 -91 2034 -91 
Q 1250 -91 836 529 
Q 422 1150 422 2328 
Q 422 3509 836 4129 
Q 1250 4750 2034 4750 
z
" transform="scale(0.015625)"/>
        <path id="DejaVuSans-31" d="M 794 531 
L 1825 531 
L 1825 4091 
L 703 3866 
L 703 4441 
L 1819 4666 
L 2450 4666 
L 2450 531 
L 3481 531 
L 3481 0 
L 794 0 
L 794 531 
z
" transform="scale(0.015625)"/>
        <path id="DejaVuSans-39" d="M 703 97 
L 703 672 
Q 941 559 1184 500 
Q 1428 441 1663 441 
Q 2288 441 2617 861 
Q 2947 1281 2994 2138 
Q 2813 1869 2534 1725 
Q 2256 1581 1919 1581 
Q 1219 1581 811 2004 
Q 403 2428 403 3163 
Q 403 3881 828 4315 
Q 1253 4750 1959 4750 
Q 2769 4750 3195 4129 
Q 3622 3509 3622 2328 
Q 3622 1225 3098 567 
Q 2575 -91 1691 -91 
Q 1453 -91 1209 -44 
Q 966 3 703 97 
z
M 1959 2075 
Q 2384 2075 2632 2365 
Q 2881 2656 2881 3163 
Q 2881 3666 2632 3958 
Q 2384 4250 1959 4250 
Q 1534 4250 1286 3958 
Q 1038 3666 1038 3163 
Q 1038 2656 1286 2365 
Q 1534 2075 1959 2075 
z
" transform="scale(0.015625)"/>
        <path id="DejaVuSans-2d" d="M 313 2009 
L 1997 2009 
L 1997 1497 
L 313 1497 
L 313 2009 
z
" transform="scale(0.015625)"/>
       </defs>
       <use xlink:href="#DejaVuSans-32"/>
       <use xlink:href="#DejaVuSans-30" x="63.623047"/>
       <use xlink:href="#DejaVuSans-31" x="127.246094"/>
       <use xlink:href="#DejaVuSans-39" x="190.869141"/>
       <use xlink:href="#DejaVuSans-2d" x="254.492188"/>
       <use xlink:href="#DejaVuSans-30" x="290.576172"/>
       <use xlink:href="#DejaVuSans-31" x="354.199219"/>
      </g>
     </g>
    </g>
    <g id="xtick_2">
     <g id="line2d_2">
      <g>
       <use xlink:href="#m3b98fb4784" x="110.285874" y="307.584" style="stroke: #000000; stroke-width: 0.8"/>
      </g>
     </g>
     <g id="text_2">
      <!-- 2019-07 -->
      <g transform="translate(89.394468 322.182437) scale(0.1 -0.1)">
       <defs>
        <path id="DejaVuSans-37" d="M 525 4666 
L 3525 4666 
L 3525 4397 
L 1831 0 
L 1172 0 
L 2766 4134 
L 525 4134 
L 525 4666 
z
" transform="scale(0.015625)"/>
       </defs>
       <use xlink:href="#DejaVuSans-32"/>
       <use xlink:href="#DejaVuSans-30" x="63.623047"/>
       <use xlink:href="#DejaVuSans-31" x="127.246094"/>
       <use xlink:href="#DejaVuSans-39" x="190.869141"/>
       <use xlink:href="#DejaVuSans-2d" x="254.492188"/>
       <use xlink:href="#DejaVuSans-30" x="290.576172"/>
       <use xlink:href="#DejaVuSans-37" x="354.199219"/>
      </g>
     </g>
    </g>
    <g id="xtick_3">
     <g id="line2d_3">
      <g>
       <use xlink:href="#m3b98fb4784" x="147.343217" y="307.584" style="stroke: #000000; stroke-width: 0.8"/>
      </g>
     </g>
     <g id="text_3">
      <!-- 2020-01 -->
      <g transform="translate(126.451811 322.182437) scale(0.1 -0.1)">
       <use xlink:href="#DejaVuSans-32"/>
       <use xlink:href="#DejaVuSans-30" x="63.623047"/>
       <use xlink:href="#DejaVuSans-32" x="127.246094"/>
       <use xlink:href="#DejaVuSans-30" x="190.869141"/>
       <use xlink:href="#DejaVuSans-2d" x="254.492188"/>
       <use xlink:href="#DejaVuSans-30" x="290.576172"/>
       <use xlink:href="#DejaVuSans-31" x="354.199219"/>
      </g>
     </g>
    </g>
    <g id="xtick_4">
     <g id="line2d_4">
      <g>
       <use xlink:href="#m3b98fb4784" x="183.997762" y="307.584" style="stroke: #000000; stroke-width: 0.8"/>
      </g>
     </g>
     <g id="text_4">
      <!-- 2020-07 -->
      <g transform="translate(163.106356 322.182437) scale(0.1 -0.1)">
       <use xlink:href="#DejaVuSans-32"/>
       <use xlink:href="#DejaVuSans-30" x="63.623047"/>
       <use xlink:href="#DejaVuSans-32" x="127.246094"/>
       <use xlink:href="#DejaVuSans-30" x="190.869141"/>
       <use xlink:href="#DejaVuSans-2d" x="254.492188"/>
       <use xlink:href="#DejaVuSans-30" x="290.576172"/>
       <use xlink:href="#DejaVuSans-37" x="354.199219"/>
      </g>
     </g>
    </g>
    <g id="xtick_5">
     <g id="line2d_5">
      <g>
       <use xlink:href="#m3b98fb4784" x="221.055105" y="307.584" style="stroke: #000000; stroke-width: 0.8"/>
      </g>
     </g>
     <g id="text_5">
      <!-- 2021-01 -->
      <g transform="translate(200.163699 322.182437) scale(0.1 -0.1)">
       <use xlink:href="#DejaVuSans-32"/>
       <use xlink:href="#DejaVuSans-30" x="63.623047"/>
       <use xlink:href="#DejaVuSans-32" x="127.246094"/>
       <use xlink:href="#DejaVuSans-31" x="190.869141"/>
       <use xlink:href="#DejaVuSans-2d" x="254.492188"/>
       <use xlink:href="#DejaVuSans-30" x="290.576172"/>
       <use xlink:href="#DejaVuSans-31" x="354.199219"/>
      </g>
     </g>
    </g>
    <g id="xtick_6">
     <g id="line2d_6">
      <g>
       <use xlink:href="#m3b98fb4784" x="257.508252" y="307.584" style="stroke: #000000; stroke-width: 0.8"/>
      </g>
     </g>
     <g id="text_6">
      <!-- 2021-07 -->
      <g transform="translate(236.616845 322.182437) scale(0.1 -0.1)">
       <use xlink:href="#DejaVuSans-32"/>
       <use xlink:href="#DejaVuSans-30" x="63.623047"/>
       <use xlink:href="#DejaVuSans-32" x="127.246094"/>
       <use xlink:href="#DejaVuSans-31" x="190.869141"/>
       <use xlink:href="#DejaVuSans-2d" x="254.492188"/>
       <use xlink:href="#DejaVuSans-30" x="290.576172"/>
       <use xlink:href="#DejaVuSans-37" x="354.199219"/>
      </g>
     </g>
    </g>
    <g id="xtick_7">
     <g id="line2d_7">
      <g>
       <use xlink:href="#m3b98fb4784" x="294.565594" y="307.584" style="stroke: #000000; stroke-width: 0.8"/>
      </g>
     </g>
     <g id="text_7">
      <!-- 2022-01 -->
      <g transform="translate(273.674188 322.182437) scale(0.1 -0.1)">
       <use xlink:href="#DejaVuSans-32"/>
       <use xlink:href="#DejaVuSans-30" x="63.623047"/>
       <use xlink:href="#DejaVuSans-32" x="127.246094"/>
       <use xlink:href="#DejaVuSans-32" x="190.869141"/>
       <use xlink:href="#DejaVuSans-2d" x="254.492188"/>
       <use xlink:href="#DejaVuSans-30" x="290.576172"/>
       <use xlink:href="#DejaVuSans-31" x="354.199219"/>
      </g>
     </g>
    </g>
    <g id="xtick_8">
     <g id="line2d_8">
      <g>
       <use xlink:href="#m3b98fb4784" x="331.018741" y="307.584" style="stroke: #000000; stroke-width: 0.8"/>
      </g>
     </g>
     <g id="text_8">
      <!-- 2022-07 -->
      <g transform="translate(310.127335 322.182437) scale(0.1 -0.1)">
       <use xlink:href="#DejaVuSans-32"/>
       <use xlink:href="#DejaVuSans-30" x="63.623047"/>
       <use xlink:href="#DejaVuSans-32" x="127.246094"/>
       <use xlink:href="#DejaVuSans-32" x="190.869141"/>
       <use xlink:href="#DejaVuSans-2d" x="254.492188"/>
       <use xlink:href="#DejaVuSans-30" x="290.576172"/>
       <use xlink:href="#DejaVuSans-37" x="354.199219"/>
      </g>
     </g>
    </g>
    <g id="xtick_9">
     <g id="line2d_9">
      <g>
       <use xlink:href="#m3b98fb4784" x="368.076084" y="307.584" style="stroke: #000000; stroke-width: 0.8"/>
      </g>
     </g>
     <g id="text_9">
      <!-- 2023-01 -->
      <g transform="translate(347.184678 322.182437) scale(0.1 -0.1)">
       <defs>
        <path id="DejaVuSans-33" d="M 2597 2516 
Q 3050 2419 3304 2112 
Q 3559 1806 3559 1356 
Q 3559 666 3084 287 
Q 2609 -91 1734 -91 
Q 1441 -91 1130 -33 
Q 819 25 488 141 
L 488 750 
Q 750 597 1062 519 
Q 1375 441 1716 441 
Q 2309 441 2620 675 
Q 2931 909 2931 1356 
Q 2931 1769 2642 2001 
Q 2353 2234 1838 2234 
L 1294 2234 
L 1294 2753 
L 1863 2753 
Q 2328 2753 2575 2939 
Q 2822 3125 2822 3475 
Q 2822 3834 2567 4026 
Q 2313 4219 1838 4219 
Q 1578 4219 1281 4162 
Q 984 4106 628 3988 
L 628 4550 
Q 988 4650 1302 4700 
Q 1616 4750 1894 4750 
Q 2613 4750 3031 4423 
Q 3450 4097 3450 3541 
Q 3450 3153 3228 2886 
Q 3006 2619 2597 2516 
z
" transform="scale(0.015625)"/>
       </defs>
       <use xlink:href="#DejaVuSans-32"/>
       <use xlink:href="#DejaVuSans-30" x="63.623047"/>
       <use xlink:href="#DejaVuSans-32" x="127.246094"/>
       <use xlink:href="#DejaVuSans-33" x="190.869141"/>
       <use xlink:href="#DejaVuSans-2d" x="254.492188"/>
       <use xlink:href="#DejaVuSans-30" x="290.576172"/>
       <use xlink:href="#DejaVuSans-31" x="354.199219"/>
      </g>
     </g>
    </g>
    <g id="xtick_10">
     <g id="line2d_10">
      <g>
       <use xlink:href="#m3b98fb4784" x="404.529231" y="307.584" style="stroke: #000000; stroke-width: 0.8"/>
      </g>
     </g>
     <g id="text_10">
      <!-- 2023-07 -->
      <g transform="translate(383.637825 322.182437) scale(0.1 -0.1)">
       <use xlink:href="#DejaVuSans-32"/>
       <use xlink:href="#DejaVuSans-30" x="63.623047"/>
       <use xlink:href="#DejaVuSans-32" x="127.246094"/>
       <use xlink:href="#DejaVuSans-33" x="190.869141"/>
       <use xlink:href="#DejaVuSans-2d" x="254.492188"/>
       <use xlink:href="#DejaVuSans-30" x="290.576172"/>
       <use xlink:href="#DejaVuSans-37" x="354.199219"/>
      </g>
     </g>
    </g>
   </g>
   <g id="matplotlib.axis_2">
    <g id="ytick_1">
     <g id="line2d_11">
      <defs>
       <path id="mdb0504f7cd" d="M 0 0 
L -3.5 0 
" style="stroke: #000000; stroke-width: 0.8"/>
      </defs>
      <g>
       <use xlink:href="#mdb0504f7cd" x="57.6" y="279.345756" style="stroke: #000000; stroke-width: 0.8"/>
      </g>
     </g>
     <g id="text_11">
      <!-- 4 -->
      <g transform="translate(44.2375 283.144975) scale(0.1 -0.1)">
       <defs>
        <path id="DejaVuSans-34" d="M 2419 4116 
L 825 1625 
L 2419 1625 
L 2419 4116 
z
M 2253 4666 
L 3047 4666 
L 3047 1625 
L 3713 1625 
L 3713 1100 
L 3047 1100 
L 3047 0 
L 2419 0 
L 2419 1100 
L 313 1100 
L 313 1709 
L 2253 4666 
z
" transform="scale(0.015625)"/>
       </defs>
       <use xlink:href="#DejaVuSans-34"/>
      </g>
     </g>
    </g>
    <g id="ytick_2">
     <g id="line2d_12">
      <g>
       <use xlink:href="#mdb0504f7cd" x="57.6" y="248.186104" style="stroke: #000000; stroke-width: 0.8"/>
      </g>
     </g>
     <g id="text_12">
      <!-- 6 -->
      <g transform="translate(44.2375 251.985323) scale(0.1 -0.1)">
       <defs>
        <path id="DejaVuSans-36" d="M 2113 2584 
Q 1688 2584 1439 2293 
Q 1191 2003 1191 1497 
Q 1191 994 1439 701 
Q 1688 409 2113 409 
Q 2538 409 2786 701 
Q 3034 994 3034 1497 
Q 3034 2003 2786 2293 
Q 2538 2584 2113 2584 
z
M 3366 4563 
L 3366 3988 
Q 3128 4100 2886 4159 
Q 2644 4219 2406 4219 
Q 1781 4219 1451 3797 
Q 1122 3375 1075 2522 
Q 1259 2794 1537 2939 
Q 1816 3084 2150 3084 
Q 2853 3084 3261 2657 
Q 3669 2231 3669 1497 
Q 3669 778 3244 343 
Q 2819 -91 2113 -91 
Q 1303 -91 875 529 
Q 447 1150 447 2328 
Q 447 3434 972 4092 
Q 1497 4750 2381 4750 
Q 2619 4750 2861 4703 
Q 3103 4656 3366 4563 
z
" transform="scale(0.015625)"/>
       </defs>
       <use xlink:href="#DejaVuSans-36"/>
      </g>
     </g>
    </g>
    <g id="ytick_3">
     <g id="line2d_13">
      <g>
       <use xlink:href="#mdb0504f7cd" x="57.6" y="217.026452" style="stroke: #000000; stroke-width: 0.8"/>
      </g>
     </g>
     <g id="text_13">
      <!-- 8 -->
      <g transform="translate(44.2375 220.825671) scale(0.1 -0.1)">
       <defs>
        <path id="DejaVuSans-38" d="M 2034 2216 
Q 1584 2216 1326 1975 
Q 1069 1734 1069 1313 
Q 1069 891 1326 650 
Q 1584 409 2034 409 
Q 2484 409 2743 651 
Q 3003 894 3003 1313 
Q 3003 1734 2745 1975 
Q 2488 2216 2034 2216 
z
M 1403 2484 
Q 997 2584 770 2862 
Q 544 3141 544 3541 
Q 544 4100 942 4425 
Q 1341 4750 2034 4750 
Q 2731 4750 3128 4425 
Q 3525 4100 3525 3541 
Q 3525 3141 3298 2862 
Q 3072 2584 2669 2484 
Q 3125 2378 3379 2068 
Q 3634 1759 3634 1313 
Q 3634 634 3220 271 
Q 2806 -91 2034 -91 
Q 1263 -91 848 271 
Q 434 634 434 1313 
Q 434 1759 690 2068 
Q 947 2378 1403 2484 
z
M 1172 3481 
Q 1172 3119 1398 2916 
Q 1625 2713 2034 2713 
Q 2441 2713 2670 2916 
Q 2900 3119 2900 3481 
Q 2900 3844 2670 4047 
Q 2441 4250 2034 4250 
Q 1625 4250 1398 4047 
Q 1172 3844 1172 3481 
z
" transform="scale(0.015625)"/>
       </defs>
       <use xlink:href="#DejaVuSans-38"/>
      </g>
     </g>
    </g>
    <g id="ytick_4">
     <g id="line2d_14">
      <g>
       <use xlink:href="#mdb0504f7cd" x="57.6" y="185.8668" style="stroke: #000000; stroke-width: 0.8"/>
      </g>
     </g>
     <g id="text_14">
      <!-- 10 -->
      <g transform="translate(37.875 189.666019) scale(0.1 -0.1)">
       <use xlink:href="#DejaVuSans-31"/>
       <use xlink:href="#DejaVuSans-30" x="63.623047"/>
      </g>
     </g>
    </g>
    <g id="ytick_5">
     <g id="line2d_15">
      <g>
       <use xlink:href="#mdb0504f7cd" x="57.6" y="154.707148" style="stroke: #000000; stroke-width: 0.8"/>
      </g>
     </g>
     <g id="text_15">
      <!-- 12 -->
      <g transform="translate(37.875 158.506367) scale(0.1 -0.1)">
       <use xlink:href="#DejaVuSans-31"/>
       <use xlink:href="#DejaVuSans-32" x="63.623047"/>
      </g>
     </g>
    </g>
    <g id="ytick_6">
     <g id="line2d_16">
      <g>
       <use xlink:href="#mdb0504f7cd" x="57.6" y="123.547496" style="stroke: #000000; stroke-width: 0.8"/>
      </g>
     </g>
     <g id="text_16">
      <!-- 14 -->
      <g transform="translate(37.875 127.346715) scale(0.1 -0.1)">
       <use xlink:href="#DejaVuSans-31"/>
       <use xlink:href="#DejaVuSans-34" x="63.623047"/>
      </g>
     </g>
    </g>
    <g id="ytick_7">
     <g id="line2d_17">
      <g>
       <use xlink:href="#mdb0504f7cd" x="57.6" y="92.387844" style="stroke: #000000; stroke-width: 0.8"/>
      </g>
     </g>
     <g id="text_17">
      <!-- 16 -->
      <g transform="translate(37.875 96.187063) scale(0.1 -0.1)">
       <use xlink:href="#DejaVuSans-31"/>
       <use xlink:href="#DejaVuSans-36" x="63.623047"/>
      </g>
     </g>
    </g>
    <g id="ytick_8">
     <g id="line2d_18">
      <g>
       <use xlink:href="#mdb0504f7cd" x="57.6" y="61.228192" style="stroke: #000000; stroke-width: 0.8"/>
      </g>
     </g>
     <g id="text_18">
      <!-- 18 -->
      <g transform="translate(37.875 65.027411) scale(0.1 -0.1)">
       <use xlink:href="#DejaVuSans-31"/>
       <use xlink:href="#DejaVuSans-38" x="63.623047"/>
      </g>
     </g>
    </g>
   </g>
   <g id="line2d_19">
    <path d="M 73.832727 248.857099 
L 80.076084 248.857099 
L 85.715245 248.857099 
L 91.958601 248.857099 
L 98.000559 248.857099 
L 104.243916 248.857099 
L 110.285874 248.857099 
L 116.529231 248.857099 
L 122.772587 248.857099 
L 128.814545 248.857099 
L 135.057902 248.857099 
L 141.09986 248.857099 
L 147.343217 248.857099 
L 153.586573 248.857099 
L 159.427133 248.970189 
L 165.67049 249.807996 
L 171.712448 249.91354 
L 177.955804 249.04001 
L 183.997762 249.01317 
L 190.241119 249.033563 
L 196.484476 249.338493 
L 202.526434 250.513611 
L 208.76979 250.477315 
L 214.811748 251.361352 
L 221.055105 252.131439 
L 227.298462 250.033554 
L 232.937622 249.889422 
L 239.180979 250.666005 
L 245.222937 250.098074 
L 251.466294 249.082944 
L 257.508252 249.008538 
L 263.751608 249.376126 
L 269.994965 249.779771 
L 276.036923 249.710953 
L 282.28028 249.78703 
L 288.322238 253.989391 
L 294.565594 263.823825 
L 300.808951 251.669148 
L 306.448112 250.623071 
L 312.691469 253.088162 
L 318.733427 249.928679 
L 324.976783 249.885076 
L 331.018741 251.628602 
L 337.262098 250.186043 
L 343.505455 249.836937 
L 349.547413 250.340873 
L 355.790769 249.93164 
L 361.832727 250.552724 
L 368.076084 249.648057 
L 374.319441 249.504641 
L 379.958601 249.405927 
L 386.201958 249.447667 
L 392.243916 249.16437 
L 398.487273 249.036333 
" clip-path="url(#pc0d533db71)" style="fill: none; stroke: #1f77b4; stroke-width: 1.5; stroke-linecap: square"/>
   </g>
   <g id="line2d_20">
    <path d="M 73.832727 265.416142 
L 80.076084 265.416142 
L 85.715245 265.416142 
L 91.958601 265.416142 
L 98.000559 265.416142 
L 104.243916 265.416142 
L 110.285874 265.416142 
L 116.529231 265.416142 
L 122.772587 265.416142 
L 128.814545 265.416142 
L 135.057902 265.416142 
L 141.09986 265.416142 
L 147.343217 265.416142 
L 153.586573 265.416142 
L 159.427133 263.52511 
L 165.67049 178.336417 
L 171.712448 133.320627 
L 177.955804 245.076016 
L 183.997762 261.218973 
L 190.241119 262.233673 
L 196.484476 262.003059 
L 202.526434 243.369474 
L 208.76979 233.499209 
L 214.811748 218.186461 
L 221.055105 192.311606 
L 227.298462 241.709056 
L 232.937622 255.315263 
L 239.180979 254.669544 
L 245.222937 254.300563 
L 251.466294 261.956937 
L 257.508252 263.894092 
L 263.751608 264.770424 
L 269.994965 261.910814 
L 276.036923 258.820591 
L 282.28028 261.956937 
L 288.322238 259.420186 
L 294.565594 190.282206 
L 300.808951 229.671022 
L 306.448112 249.503798 
L 312.691469 233.037982 
L 318.733427 250.057271 
L 324.976783 259.604677 
L 331.018741 246.044593 
L 337.262098 249.042571 
L 343.505455 256.514454 
L 349.547413 250.241762 
L 355.790769 251.763812 
L 361.832727 243.092738 
L 368.076084 250.472376 
L 374.319441 256.883436 
L 379.958601 258.267118 
L 386.201958 257.575277 
L 392.243916 261.126727 
L 398.487273 261.910814 
" clip-path="url(#pc0d533db71)" style="fill: none; stroke: #ff7f0e; stroke-width: 1.5; stroke-linecap: square"/>
   </g>
   <g id="line2d_21">
    <path d="M 73.832727 260.84161 
L 80.076084 260.84161 
L 85.715245 260.84161 
L 91.958601 260.84161 
L 98.000559 260.84161 
L 104.243916 260.84161 
L 110.285874 260.84161 
L 116.529231 260.84161 
L 122.772587 260.84161 
L 128.814545 260.84161 
L 135.057902 260.84161 
L 141.09986 260.84161 
L 147.343217 260.84161 
L 153.586573 260.84161 
L 159.427133 259.232345 
L 165.67049 151.292668 
L 171.712448 91.447179 
L 177.955804 234.926707 
L 183.997762 256.47936 
L 190.241119 258.017945 
L 196.484476 260.245901 
L 202.526434 244.89478 
L 208.76979 231.278009 
L 214.811748 217.982827 
L 221.055105 189.491019 
L 227.298462 238.657695 
L 232.937622 255.811737 
L 239.180979 261.407001 
L 245.222937 256.180317 
L 251.466294 258.055818 
L 257.508252 260.049404 
L 263.751608 264.292308 
L 269.994965 263.795822 
L 276.036923 259.054223 
L 282.28028 263.918484 
L 288.322238 295.488 
L 294.565594 284.111554 
L 300.808951 236.037896 
L 306.448112 254.081143 
L 312.691469 252.395375 
L 318.733427 249.045813 
L 324.976783 261.561781 
L 331.018741 257.787509 
L 337.262098 249.820004 
L 343.505455 256.992367 
L 349.547413 252.726865 
L 355.790769 251.372516 
L 361.832727 244.847157 
L 368.076084 247.269135 
L 374.319441 254.723206 
L 379.958601 255.767774 
L 386.201958 255.182063 
L 392.243916 257.613909 
L 398.487273 257.605487 
" clip-path="url(#pc0d533db71)" style="fill: none; stroke: #2ca02c; stroke-width: 1.5; stroke-linecap: square"/>
   </g>
   <g id="line2d_22">
    <path d="M 73.832727 255.922518 
L 80.076084 255.922518 
L 85.715245 255.922518 
L 91.958601 255.922518 
L 98.000559 255.922518 
L 104.243916 255.922518 
L 110.285874 255.922518 
L 116.529231 255.922518 
L 122.772587 255.922518 
L 128.814545 255.922518 
L 135.057902 255.922518 
L 141.09986 255.922518 
L 147.343217 255.922518 
L 153.586573 255.922518 
L 159.427133 255.786104 
L 165.67049 53.568 
L 171.712448 122.462514 
L 177.955804 244.673141 
L 183.997762 255.429861 
L 190.241119 255.5799 
L 196.484476 255.43122 
L 202.526434 263.783235 
L 208.76979 245.87503 
L 214.811748 234.153462 
L 221.055105 213.289199 
L 227.298462 247.690694 
L 232.937622 257.225551 
L 239.180979 261.238345 
L 245.222937 259.179868 
L 251.466294 255.504032 
L 257.508252 255.794892 
L 263.751608 254.886585 
L 269.994965 253.76574 
L 276.036923 255.842112 
L 282.28028 253.658942 
L 288.322238 268.735987 
L 294.565594 262.226889 
L 300.808951 266.399288 
L 306.448112 268.070753 
L 312.691469 272.729329 
L 318.733427 255.865365 
L 324.976783 255.296137 
L 331.018741 286.624988 
L 337.262098 260.034218 
L 343.505455 256.750749 
L 349.547413 263.176366 
L 355.790769 256.953426 
L 361.832727 264.614546 
L 368.076084 251.928215 
L 374.319441 254.902571 
L 379.958601 254.947644 
L 386.201958 254.878238 
L 392.243916 255.329126 
L 398.487273 255.526137 
" clip-path="url(#pc0d533db71)" style="fill: none; stroke: #d62728; stroke-width: 1.5; stroke-linecap: square"/>
   </g>
   <g id="patch_3">
    <path d="M 57.6 307.584 
L 57.6 41.472 
" style="fill: none; stroke: #000000; stroke-width: 0.8; stroke-linejoin: miter; stroke-linecap: square"/>
   </g>
   <g id="patch_4">
    <path d="M 414.72 307.584 
L 414.72 41.472 
" style="fill: none; stroke: #000000; stroke-width: 0.8; stroke-linejoin: miter; stroke-linecap: square"/>
   </g>
   <g id="patch_5">
    <path d="M 57.6 307.584 
L 414.72 307.584 
" style="fill: none; stroke: #000000; stroke-width: 0.8; stroke-linejoin: miter; stroke-linecap: square"/>
   </g>
   <g id="patch_6">
    <path d="M 57.6 41.472 
L 414.72 41.472 
" style="fill: none; stroke: #000000; stroke-width: 0.8; stroke-linejoin: miter; stroke-linecap: square"/>
   </g>
   <g id="text_19">
    <!-- linear and polynomial fits of Quebec unemployment rate -->
    <g transform="translate(65.74875 35.472) scale(0.12 -0.12)">
     <defs>
      <path id="DejaVuSans-6c" d="M 603 4863 
L 1178 4863 
L 1178 0 
L 603 0 
L 603 4863 
z
" transform="scale(0.015625)"/>
      <path id="DejaVuSans-69" d="M 603 3500 
L 1178 3500 
L 1178 0 
L 603 0 
L 603 3500 
z
M 603 4863 
L 1178 4863 
L 1178 4134 
L 603 4134 
L 603 4863 
z
" transform="scale(0.015625)"/>
      <path id="DejaVuSans-6e" d="M 3513 2113 
L 3513 0 
L 2938 0 
L 2938 2094 
Q 2938 2591 2744 2837 
Q 2550 3084 2163 3084 
Q 1697 3084 1428 2787 
Q 1159 2491 1159 1978 
L 1159 0 
L 581 0 
L 581 3500 
L 1159 3500 
L 1159 2956 
Q 1366 3272 1645 3428 
Q 1925 3584 2291 3584 
Q 2894 3584 3203 3211 
Q 3513 2838 3513 2113 
z
" transform="scale(0.015625)"/>
      <path id="DejaVuSans-65" d="M 3597 1894 
L 3597 1613 
L 953 1613 
Q 991 1019 1311 708 
Q 1631 397 2203 397 
Q 2534 397 2845 478 
Q 3156 559 3463 722 
L 3463 178 
Q 3153 47 2828 -22 
Q 2503 -91 2169 -91 
Q 1331 -91 842 396 
Q 353 884 353 1716 
Q 353 2575 817 3079 
Q 1281 3584 2069 3584 
Q 2775 3584 3186 3129 
Q 3597 2675 3597 1894 
z
M 3022 2063 
Q 3016 2534 2758 2815 
Q 2500 3097 2075 3097 
Q 1594 3097 1305 2825 
Q 1016 2553 972 2059 
L 3022 2063 
z
" transform="scale(0.015625)"/>
      <path id="DejaVuSans-61" d="M 2194 1759 
Q 1497 1759 1228 1600 
Q 959 1441 959 1056 
Q 959 750 1161 570 
Q 1363 391 1709 391 
Q 2188 391 2477 730 
Q 2766 1069 2766 1631 
L 2766 1759 
L 2194 1759 
z
M 3341 1997 
L 3341 0 
L 2766 0 
L 2766 531 
Q 2569 213 2275 61 
Q 1981 -91 1556 -91 
Q 1019 -91 701 211 
Q 384 513 384 1019 
Q 384 1609 779 1909 
Q 1175 2209 1959 2209 
L 2766 2209 
L 2766 2266 
Q 2766 2663 2505 2880 
Q 2244 3097 1772 3097 
Q 1472 3097 1187 3025 
Q 903 2953 641 2809 
L 641 3341 
Q 956 3463 1253 3523 
Q 1550 3584 1831 3584 
Q 2591 3584 2966 3190 
Q 3341 2797 3341 1997 
z
" transform="scale(0.015625)"/>
      <path id="DejaVuSans-72" d="M 2631 2963 
Q 2534 3019 2420 3045 
Q 2306 3072 2169 3072 
Q 1681 3072 1420 2755 
Q 1159 2438 1159 1844 
L 1159 0 
L 581 0 
L 581 3500 
L 1159 3500 
L 1159 2956 
Q 1341 3275 1631 3429 
Q 1922 3584 2338 3584 
Q 2397 3584 2469 3576 
Q 2541 3569 2628 3553 
L 2631 2963 
z
" transform="scale(0.015625)"/>
      <path id="DejaVuSans-20" transform="scale(0.015625)"/>
      <path id="DejaVuSans-64" d="M 2906 2969 
L 2906 4863 
L 3481 4863 
L 3481 0 
L 2906 0 
L 2906 525 
Q 2725 213 2448 61 
Q 2172 -91 1784 -91 
Q 1150 -91 751 415 
Q 353 922 353 1747 
Q 353 2572 751 3078 
Q 1150 3584 1784 3584 
Q 2172 3584 2448 3432 
Q 2725 3281 2906 2969 
z
M 947 1747 
Q 947 1113 1208 752 
Q 1469 391 1925 391 
Q 2381 391 2643 752 
Q 2906 1113 2906 1747 
Q 2906 2381 2643 2742 
Q 2381 3103 1925 3103 
Q 1469 3103 1208 2742 
Q 947 2381 947 1747 
z
" transform="scale(0.015625)"/>
      <path id="DejaVuSans-70" d="M 1159 525 
L 1159 -1331 
L 581 -1331 
L 581 3500 
L 1159 3500 
L 1159 2969 
Q 1341 3281 1617 3432 
Q 1894 3584 2278 3584 
Q 2916 3584 3314 3078 
Q 3713 2572 3713 1747 
Q 3713 922 3314 415 
Q 2916 -91 2278 -91 
Q 1894 -91 1617 61 
Q 1341 213 1159 525 
z
M 3116 1747 
Q 3116 2381 2855 2742 
Q 2594 3103 2138 3103 
Q 1681 3103 1420 2742 
Q 1159 2381 1159 1747 
Q 1159 1113 1420 752 
Q 1681 391 2138 391 
Q 2594 391 2855 752 
Q 3116 1113 3116 1747 
z
" transform="scale(0.015625)"/>
      <path id="DejaVuSans-6f" d="M 1959 3097 
Q 1497 3097 1228 2736 
Q 959 2375 959 1747 
Q 959 1119 1226 758 
Q 1494 397 1959 397 
Q 2419 397 2687 759 
Q 2956 1122 2956 1747 
Q 2956 2369 2687 2733 
Q 2419 3097 1959 3097 
z
M 1959 3584 
Q 2709 3584 3137 3096 
Q 3566 2609 3566 1747 
Q 3566 888 3137 398 
Q 2709 -91 1959 -91 
Q 1206 -91 779 398 
Q 353 888 353 1747 
Q 353 2609 779 3096 
Q 1206 3584 1959 3584 
z
" transform="scale(0.015625)"/>
      <path id="DejaVuSans-79" d="M 2059 -325 
Q 1816 -950 1584 -1140 
Q 1353 -1331 966 -1331 
L 506 -1331 
L 506 -850 
L 844 -850 
Q 1081 -850 1212 -737 
Q 1344 -625 1503 -206 
L 1606 56 
L 191 3500 
L 800 3500 
L 1894 763 
L 2988 3500 
L 3597 3500 
L 2059 -325 
z
" transform="scale(0.015625)"/>
      <path id="DejaVuSans-6d" d="M 3328 2828 
Q 3544 3216 3844 3400 
Q 4144 3584 4550 3584 
Q 5097 3584 5394 3201 
Q 5691 2819 5691 2113 
L 5691 0 
L 5113 0 
L 5113 2094 
Q 5113 2597 4934 2840 
Q 4756 3084 4391 3084 
Q 3944 3084 3684 2787 
Q 3425 2491 3425 1978 
L 3425 0 
L 2847 0 
L 2847 2094 
Q 2847 2600 2669 2842 
Q 2491 3084 2119 3084 
Q 1678 3084 1418 2786 
Q 1159 2488 1159 1978 
L 1159 0 
L 581 0 
L 581 3500 
L 1159 3500 
L 1159 2956 
Q 1356 3278 1631 3431 
Q 1906 3584 2284 3584 
Q 2666 3584 2933 3390 
Q 3200 3197 3328 2828 
z
" transform="scale(0.015625)"/>
      <path id="DejaVuSans-66" d="M 2375 4863 
L 2375 4384 
L 1825 4384 
Q 1516 4384 1395 4259 
Q 1275 4134 1275 3809 
L 1275 3500 
L 2222 3500 
L 2222 3053 
L 1275 3053 
L 1275 0 
L 697 0 
L 697 3053 
L 147 3053 
L 147 3500 
L 697 3500 
L 697 3744 
Q 697 4328 969 4595 
Q 1241 4863 1831 4863 
L 2375 4863 
z
" transform="scale(0.015625)"/>
      <path id="DejaVuSans-74" d="M 1172 4494 
L 1172 3500 
L 2356 3500 
L 2356 3053 
L 1172 3053 
L 1172 1153 
Q 1172 725 1289 603 
Q 1406 481 1766 481 
L 2356 481 
L 2356 0 
L 1766 0 
Q 1100 0 847 248 
Q 594 497 594 1153 
L 594 3053 
L 172 3053 
L 172 3500 
L 594 3500 
L 594 4494 
L 1172 4494 
z
" transform="scale(0.015625)"/>
      <path id="DejaVuSans-73" d="M 2834 3397 
L 2834 2853 
Q 2591 2978 2328 3040 
Q 2066 3103 1784 3103 
Q 1356 3103 1142 2972 
Q 928 2841 928 2578 
Q 928 2378 1081 2264 
Q 1234 2150 1697 2047 
L 1894 2003 
Q 2506 1872 2764 1633 
Q 3022 1394 3022 966 
Q 3022 478 2636 193 
Q 2250 -91 1575 -91 
Q 1294 -91 989 -36 
Q 684 19 347 128 
L 347 722 
Q 666 556 975 473 
Q 1284 391 1588 391 
Q 1994 391 2212 530 
Q 2431 669 2431 922 
Q 2431 1156 2273 1281 
Q 2116 1406 1581 1522 
L 1381 1569 
Q 847 1681 609 1914 
Q 372 2147 372 2553 
Q 372 3047 722 3315 
Q 1072 3584 1716 3584 
Q 2034 3584 2315 3537 
Q 2597 3491 2834 3397 
z
" transform="scale(0.015625)"/>
      <path id="DejaVuSans-51" d="M 2522 4238 
Q 1834 4238 1429 3725 
Q 1025 3213 1025 2328 
Q 1025 1447 1429 934 
Q 1834 422 2522 422 
Q 3209 422 3611 934 
Q 4013 1447 4013 2328 
Q 4013 3213 3611 3725 
Q 3209 4238 2522 4238 
z
M 3406 84 
L 4238 -825 
L 3475 -825 
L 2784 -78 
Q 2681 -84 2626 -87 
Q 2572 -91 2522 -91 
Q 1538 -91 948 567 
Q 359 1225 359 2328 
Q 359 3434 948 4092 
Q 1538 4750 2522 4750 
Q 3503 4750 4090 4092 
Q 4678 3434 4678 2328 
Q 4678 1516 4351 937 
Q 4025 359 3406 84 
z
" transform="scale(0.015625)"/>
      <path id="DejaVuSans-75" d="M 544 1381 
L 544 3500 
L 1119 3500 
L 1119 1403 
Q 1119 906 1312 657 
Q 1506 409 1894 409 
Q 2359 409 2629 706 
Q 2900 1003 2900 1516 
L 2900 3500 
L 3475 3500 
L 3475 0 
L 2900 0 
L 2900 538 
Q 2691 219 2414 64 
Q 2138 -91 1772 -91 
Q 1169 -91 856 284 
Q 544 659 544 1381 
z
M 1991 3584 
L 1991 3584 
z
" transform="scale(0.015625)"/>
      <path id="DejaVuSans-62" d="M 3116 1747 
Q 3116 2381 2855 2742 
Q 2594 3103 2138 3103 
Q 1681 3103 1420 2742 
Q 1159 2381 1159 1747 
Q 1159 1113 1420 752 
Q 1681 391 2138 391 
Q 2594 391 2855 752 
Q 3116 1113 3116 1747 
z
M 1159 2969 
Q 1341 3281 1617 3432 
Q 1894 3584 2278 3584 
Q 2916 3584 3314 3078 
Q 3713 2572 3713 1747 
Q 3713 922 3314 415 
Q 2916 -91 2278 -91 
Q 1894 -91 1617 61 
Q 1341 213 1159 525 
L 1159 0 
L 581 0 
L 581 4863 
L 1159 4863 
L 1159 2969 
z
" transform="scale(0.015625)"/>
      <path id="DejaVuSans-63" d="M 3122 3366 
L 3122 2828 
Q 2878 2963 2633 3030 
Q 2388 3097 2138 3097 
Q 1578 3097 1268 2742 
Q 959 2388 959 1747 
Q 959 1106 1268 751 
Q 1578 397 2138 397 
Q 2388 397 2633 464 
Q 2878 531 3122 666 
L 3122 134 
Q 2881 22 2623 -34 
Q 2366 -91 2075 -91 
Q 1284 -91 818 406 
Q 353 903 353 1747 
Q 353 2603 823 3093 
Q 1294 3584 2113 3584 
Q 2378 3584 2631 3529 
Q 2884 3475 3122 3366 
z
" transform="scale(0.015625)"/>
     </defs>
     <use xlink:href="#DejaVuSans-6c"/>
     <use xlink:href="#DejaVuSans-69" x="27.783203"/>
     <use xlink:href="#DejaVuSans-6e" x="55.566406"/>
     <use xlink:href="#DejaVuSans-65" x="118.945312"/>
     <use xlink:href="#DejaVuSans-61" x="180.46875"/>
     <use xlink:href="#DejaVuSans-72" x="241.748047"/>
     <use xlink:href="#DejaVuSans-20" x="282.861328"/>
     <use xlink:href="#DejaVuSans-61" x="314.648438"/>
     <use xlink:href="#DejaVuSans-6e" x="375.927734"/>
     <use xlink:href="#DejaVuSans-64" x="439.306641"/>
     <use xlink:href="#DejaVuSans-20" x="502.783203"/>
     <use xlink:href="#DejaVuSans-70" x="534.570312"/>
     <use xlink:href="#DejaVuSans-6f" x="598.046875"/>
     <use xlink:href="#DejaVuSans-6c" x="659.228516"/>
     <use xlink:href="#DejaVuSans-79" x="687.011719"/>
     <use xlink:href="#DejaVuSans-6e" x="746.191406"/>
     <use xlink:href="#DejaVuSans-6f" x="809.570312"/>
     <use xlink:href="#DejaVuSans-6d" x="870.751953"/>
     <use xlink:href="#DejaVuSans-69" x="968.164062"/>
     <use xlink:href="#DejaVuSans-61" x="995.947266"/>
     <use xlink:href="#DejaVuSans-6c" x="1057.226562"/>
     <use xlink:href="#DejaVuSans-20" x="1085.009766"/>
     <use xlink:href="#DejaVuSans-66" x="1116.796875"/>
     <use xlink:href="#DejaVuSans-69" x="1152.001953"/>
     <use xlink:href="#DejaVuSans-74" x="1179.785156"/>
     <use xlink:href="#DejaVuSans-73" x="1218.994141"/>
     <use xlink:href="#DejaVuSans-20" x="1271.09375"/>
     <use xlink:href="#DejaVuSans-6f" x="1302.880859"/>
     <use xlink:href="#DejaVuSans-66" x="1364.0625"/>
     <use xlink:href="#DejaVuSans-20" x="1399.267578"/>
     <use xlink:href="#DejaVuSans-51" x="1431.054688"/>
     <use xlink:href="#DejaVuSans-75" x="1509.765625"/>
     <use xlink:href="#DejaVuSans-65" x="1573.144531"/>
     <use xlink:href="#DejaVuSans-62" x="1634.667969"/>
     <use xlink:href="#DejaVuSans-65" x="1698.144531"/>
     <use xlink:href="#DejaVuSans-63" x="1759.667969"/>
     <use xlink:href="#DejaVuSans-20" x="1814.648438"/>
     <use xlink:href="#DejaVuSans-75" x="1846.435547"/>
     <use xlink:href="#DejaVuSans-6e" x="1909.814453"/>
     <use xlink:href="#DejaVuSans-65" x="1973.193359"/>
     <use xlink:href="#DejaVuSans-6d" x="2034.716797"/>
     <use xlink:href="#DejaVuSans-70" x="2132.128906"/>
     <use xlink:href="#DejaVuSans-6c" x="2195.605469"/>
     <use xlink:href="#DejaVuSans-6f" x="2223.388672"/>
     <use xlink:href="#DejaVuSans-79" x="2284.570312"/>
     <use xlink:href="#DejaVuSans-6d" x="2343.75"/>
     <use xlink:href="#DejaVuSans-65" x="2441.162109"/>
     <use xlink:href="#DejaVuSans-6e" x="2502.685547"/>
     <use xlink:href="#DejaVuSans-74" x="2566.064453"/>
     <use xlink:href="#DejaVuSans-20" x="2605.273438"/>
     <use xlink:href="#DejaVuSans-72" x="2637.060547"/>
     <use xlink:href="#DejaVuSans-61" x="2678.173828"/>
     <use xlink:href="#DejaVuSans-74" x="2739.453125"/>
     <use xlink:href="#DejaVuSans-65" x="2778.662109"/>
    </g>
   </g>
   <g id="legend_1">
    <g id="patch_7">
     <path d="M 226.696562 122.862625 
L 407.72 122.862625 
Q 409.72 122.862625 409.72 120.862625 
L 409.72 48.472 
Q 409.72 46.472 407.72 46.472 
L 226.696562 46.472 
Q 224.696562 46.472 224.696562 48.472 
L 224.696562 120.862625 
Q 224.696562 122.862625 226.696562 122.862625 
z
" style="fill: #ffffff; opacity: 0.8; stroke: #cccccc; stroke-linejoin: miter"/>
    </g>
    <g id="PathCollection_2">
     <g>
      <use xlink:href="#mbac31f1cfa" x="238.696562" y="55.445438" style="fill: #1f77b4; stroke: #1f77b4"/>
     </g>
    </g>
    <g id="text_20">
     <!-- unemployment -->
     <g transform="translate(256.696563 58.070438) scale(0.1 -0.1)">
      <use xlink:href="#DejaVuSans-75"/>
      <use xlink:href="#DejaVuSans-6e" x="63.378906"/>
      <use xlink:href="#DejaVuSans-65" x="126.757812"/>
      <use xlink:href="#DejaVuSans-6d" x="188.28125"/>
      <use xlink:href="#DejaVuSans-70" x="285.693359"/>
      <use xlink:href="#DejaVuSans-6c" x="349.169922"/>
      <use xlink:href="#DejaVuSans-6f" x="376.953125"/>
      <use xlink:href="#DejaVuSans-79" x="438.134766"/>
      <use xlink:href="#DejaVuSans-6d" x="497.314453"/>
      <use xlink:href="#DejaVuSans-65" x="594.726562"/>
      <use xlink:href="#DejaVuSans-6e" x="656.25"/>
      <use xlink:href="#DejaVuSans-74" x="719.628906"/>
     </g>
    </g>
    <g id="line2d_23">
     <path d="M 228.696562 69.248563 
L 238.696562 69.248563 
L 248.696562 69.248563 
" style="fill: none; stroke: #1f77b4; stroke-width: 1.5; stroke-linecap: square"/>
    </g>
    <g id="text_21">
     <!-- prediction with covid cases -->
     <g transform="translate(256.696563 72.748563) scale(0.1 -0.1)">
      <defs>
       <path id="DejaVuSans-77" d="M 269 3500 
L 844 3500 
L 1563 769 
L 2278 3500 
L 2956 3500 
L 3675 769 
L 4391 3500 
L 4966 3500 
L 4050 0 
L 3372 0 
L 2619 2869 
L 1863 0 
L 1184 0 
L 269 3500 
z
" transform="scale(0.015625)"/>
       <path id="DejaVuSans-68" d="M 3513 2113 
L 3513 0 
L 2938 0 
L 2938 2094 
Q 2938 2591 2744 2837 
Q 2550 3084 2163 3084 
Q 1697 3084 1428 2787 
Q 1159 2491 1159 1978 
L 1159 0 
L 581 0 
L 581 4863 
L 1159 4863 
L 1159 2956 
Q 1366 3272 1645 3428 
Q 1925 3584 2291 3584 
Q 2894 3584 3203 3211 
Q 3513 2838 3513 2113 
z
" transform="scale(0.015625)"/>
       <path id="DejaVuSans-76" d="M 191 3500 
L 800 3500 
L 1894 563 
L 2988 3500 
L 3597 3500 
L 2284 0 
L 1503 0 
L 191 3500 
z
" transform="scale(0.015625)"/>
      </defs>
      <use xlink:href="#DejaVuSans-70"/>
      <use xlink:href="#DejaVuSans-72" x="63.476562"/>
      <use xlink:href="#DejaVuSans-65" x="102.339844"/>
      <use xlink:href="#DejaVuSans-64" x="163.863281"/>
      <use xlink:href="#DejaVuSans-69" x="227.339844"/>
      <use xlink:href="#DejaVuSans-63" x="255.123047"/>
      <use xlink:href="#DejaVuSans-74" x="310.103516"/>
      <use xlink:href="#DejaVuSans-69" x="349.3125"/>
      <use xlink:href="#DejaVuSans-6f" x="377.095703"/>
      <use xlink:href="#DejaVuSans-6e" x="438.277344"/>
      <use xlink:href="#DejaVuSans-20" x="501.65625"/>
      <use xlink:href="#DejaVuSans-77" x="533.443359"/>
      <use xlink:href="#DejaVuSans-69" x="615.230469"/>
      <use xlink:href="#DejaVuSans-74" x="643.013672"/>
      <use xlink:href="#DejaVuSans-68" x="682.222656"/>
      <use xlink:href="#DejaVuSans-20" x="745.601562"/>
      <use xlink:href="#DejaVuSans-63" x="777.388672"/>
      <use xlink:href="#DejaVuSans-6f" x="832.369141"/>
      <use xlink:href="#DejaVuSans-76" x="893.550781"/>
      <use xlink:href="#DejaVuSans-69" x="952.730469"/>
      <use xlink:href="#DejaVuSans-64" x="980.513672"/>
      <use xlink:href="#DejaVuSans-20" x="1043.990234"/>
      <use xlink:href="#DejaVuSans-63" x="1075.777344"/>
      <use xlink:href="#DejaVuSans-61" x="1130.757812"/>
      <use xlink:href="#DejaVuSans-73" x="1192.037109"/>
      <use xlink:href="#DejaVuSans-65" x="1244.136719"/>
      <use xlink:href="#DejaVuSans-73" x="1305.660156"/>
     </g>
    </g>
    <g id="line2d_24">
     <path d="M 228.696562 83.926688 
L 238.696562 83.926688 
L 248.696562 83.926688 
" style="fill: none; stroke: #ff7f0e; stroke-width: 1.5; stroke-linecap: square"/>
    </g>
    <g id="text_22">
     <!-- prediction with covid deaths -->
     <g transform="translate(256.696563 87.426688) scale(0.1 -0.1)">
      <use xlink:href="#DejaVuSans-70"/>
      <use xlink:href="#DejaVuSans-72" x="63.476562"/>
      <use xlink:href="#DejaVuSans-65" x="102.339844"/>
      <use xlink:href="#DejaVuSans-64" x="163.863281"/>
      <use xlink:href="#DejaVuSans-69" x="227.339844"/>
      <use xlink:href="#DejaVuSans-63" x="255.123047"/>
      <use xlink:href="#DejaVuSans-74" x="310.103516"/>
      <use xlink:href="#DejaVuSans-69" x="349.3125"/>
      <use xlink:href="#DejaVuSans-6f" x="377.095703"/>
      <use xlink:href="#DejaVuSans-6e" x="438.277344"/>
      <use xlink:href="#DejaVuSans-20" x="501.65625"/>
      <use xlink:href="#DejaVuSans-77" x="533.443359"/>
      <use xlink:href="#DejaVuSans-69" x="615.230469"/>
      <use xlink:href="#DejaVuSans-74" x="643.013672"/>
      <use xlink:href="#DejaVuSans-68" x="682.222656"/>
      <use xlink:href="#DejaVuSans-20" x="745.601562"/>
      <use xlink:href="#DejaVuSans-63" x="777.388672"/>
      <use xlink:href="#DejaVuSans-6f" x="832.369141"/>
      <use xlink:href="#DejaVuSans-76" x="893.550781"/>
      <use xlink:href="#DejaVuSans-69" x="952.730469"/>
      <use xlink:href="#DejaVuSans-64" x="980.513672"/>
      <use xlink:href="#DejaVuSans-20" x="1043.990234"/>
      <use xlink:href="#DejaVuSans-64" x="1075.777344"/>
      <use xlink:href="#DejaVuSans-65" x="1139.253906"/>
      <use xlink:href="#DejaVuSans-61" x="1200.777344"/>
      <use xlink:href="#DejaVuSans-74" x="1262.056641"/>
      <use xlink:href="#DejaVuSans-68" x="1301.265625"/>
      <use xlink:href="#DejaVuSans-73" x="1364.644531"/>
     </g>
    </g>
    <g id="line2d_25">
     <path d="M 228.696562 98.604813 
L 238.696562 98.604813 
L 248.696562 98.604813 
" style="fill: none; stroke: #2ca02c; stroke-width: 1.5; stroke-linecap: square"/>
    </g>
    <g id="text_23">
     <!-- predictions with both -->
     <g transform="translate(256.696563 102.104813) scale(0.1 -0.1)">
      <use xlink:href="#DejaVuSans-70"/>
      <use xlink:href="#DejaVuSans-72" x="63.476562"/>
      <use xlink:href="#DejaVuSans-65" x="102.339844"/>
      <use xlink:href="#DejaVuSans-64" x="163.863281"/>
      <use xlink:href="#DejaVuSans-69" x="227.339844"/>
      <use xlink:href="#DejaVuSans-63" x="255.123047"/>
      <use xlink:href="#DejaVuSans-74" x="310.103516"/>
      <use xlink:href="#DejaVuSans-69" x="349.3125"/>
      <use xlink:href="#DejaVuSans-6f" x="377.095703"/>
      <use xlink:href="#DejaVuSans-6e" x="438.277344"/>
      <use xlink:href="#DejaVuSans-73" x="501.65625"/>
      <use xlink:href="#DejaVuSans-20" x="553.755859"/>
      <use xlink:href="#DejaVuSans-77" x="585.542969"/>
      <use xlink:href="#DejaVuSans-69" x="667.330078"/>
      <use xlink:href="#DejaVuSans-74" x="695.113281"/>
      <use xlink:href="#DejaVuSans-68" x="734.322266"/>
      <use xlink:href="#DejaVuSans-20" x="797.701172"/>
      <use xlink:href="#DejaVuSans-62" x="829.488281"/>
      <use xlink:href="#DejaVuSans-6f" x="892.964844"/>
      <use xlink:href="#DejaVuSans-74" x="954.146484"/>
      <use xlink:href="#DejaVuSans-68" x="993.355469"/>
     </g>
    </g>
    <g id="line2d_26">
     <path d="M 228.696562 113.282938 
L 238.696562 113.282938 
L 248.696562 113.282938 
" style="fill: none; stroke: #d62728; stroke-width: 1.5; stroke-linecap: square"/>
    </g>
    <g id="text_24">
     <!-- polynomial regression of both -->
     <g transform="translate(256.696563 116.782938) scale(0.1 -0.1)">
      <defs>
       <path id="DejaVuSans-67" d="M 2906 1791 
Q 2906 2416 2648 2759 
Q 2391 3103 1925 3103 
Q 1463 3103 1205 2759 
Q 947 2416 947 1791 
Q 947 1169 1205 825 
Q 1463 481 1925 481 
Q 2391 481 2648 825 
Q 2906 1169 2906 1791 
z
M 3481 434 
Q 3481 -459 3084 -895 
Q 2688 -1331 1869 -1331 
Q 1566 -1331 1297 -1286 
Q 1028 -1241 775 -1147 
L 775 -588 
Q 1028 -725 1275 -790 
Q 1522 -856 1778 -856 
Q 2344 -856 2625 -561 
Q 2906 -266 2906 331 
L 2906 616 
Q 2728 306 2450 153 
Q 2172 0 1784 0 
Q 1141 0 747 490 
Q 353 981 353 1791 
Q 353 2603 747 3093 
Q 1141 3584 1784 3584 
Q 2172 3584 2450 3431 
Q 2728 3278 2906 2969 
L 2906 3500 
L 3481 3500 
L 3481 434 
z
" transform="scale(0.015625)"/>
      </defs>
      <use xlink:href="#DejaVuSans-70"/>
      <use xlink:href="#DejaVuSans-6f" x="63.476562"/>
      <use xlink:href="#DejaVuSans-6c" x="124.658203"/>
      <use xlink:href="#DejaVuSans-79" x="152.441406"/>
      <use xlink:href="#DejaVuSans-6e" x="211.621094"/>
      <use xlink:href="#DejaVuSans-6f" x="275"/>
      <use xlink:href="#DejaVuSans-6d" x="336.181641"/>
      <use xlink:href="#DejaVuSans-69" x="433.59375"/>
      <use xlink:href="#DejaVuSans-61" x="461.376953"/>
      <use xlink:href="#DejaVuSans-6c" x="522.65625"/>
      <use xlink:href="#DejaVuSans-20" x="550.439453"/>
      <use xlink:href="#DejaVuSans-72" x="582.226562"/>
      <use xlink:href="#DejaVuSans-65" x="621.089844"/>
      <use xlink:href="#DejaVuSans-67" x="682.613281"/>
      <use xlink:href="#DejaVuSans-72" x="746.089844"/>
      <use xlink:href="#DejaVuSans-65" x="784.953125"/>
      <use xlink:href="#DejaVuSans-73" x="846.476562"/>
      <use xlink:href="#DejaVuSans-73" x="898.576172"/>
      <use xlink:href="#DejaVuSans-69" x="950.675781"/>
      <use xlink:href="#DejaVuSans-6f" x="978.458984"/>
      <use xlink:href="#DejaVuSans-6e" x="1039.640625"/>
      <use xlink:href="#DejaVuSans-20" x="1103.019531"/>
      <use xlink:href="#DejaVuSans-6f" x="1134.806641"/>
      <use xlink:href="#DejaVuSans-66" x="1195.988281"/>
      <use xlink:href="#DejaVuSans-20" x="1231.193359"/>
      <use xlink:href="#DejaVuSans-62" x="1262.980469"/>
      <use xlink:href="#DejaVuSans-6f" x="1326.457031"/>
      <use xlink:href="#DejaVuSans-74" x="1387.638672"/>
      <use xlink:href="#DejaVuSans-68" x="1426.847656"/>
     </g>
    </g>
   </g>
  </g>
 </g>
 <defs>
  <clipPath id="pc0d533db71">
   <rect x="57.6" y="41.472" width="357.12" height="266.112"/>
  </clipPath>
 </defs>
</svg>
