<?xml version="1.0" encoding="utf-8" standalone="no"?>
<!DOCTYPE svg PUBLIC "-//W3C//DTD SVG 1.1//EN"
  "http://www.w3.org/Graphics/SVG/1.1/DTD/svg11.dtd">
<svg xmlns:xlink="http://www.w3.org/1999/xlink" width="460.8pt" height="345.6pt" viewBox="0 0 460.8 345.6" xmlns="http://www.w3.org/2000/svg" version="1.1">
 <metadata>
  <rdf:RDF xmlns:dc="http://purl.org/dc/elements/1.1/" xmlns:cc="http://creativecommons.org/ns#" xmlns:rdf="http://www.w3.org/1999/02/22-rdf-syntax-ns#">
   <cc:Work>
    <dc:type rdf:resource="http://purl.org/dc/dcmitype/StillImage"/>
    <dc:date>2023-07-31T23:58:10.163769</dc:date>
    <dc:format>image/svg+xml</dc:format>
    <dc:creator>
     <cc:Agent>
      <dc:title>Matplotlib v3.7.1, https://matplotlib.org/</dc:title>
     </cc:Agent>
    </dc:creator>
   </cc:Work>
  </rdf:RDF>
 </metadata>
 <defs>
  <style type="text/css">*{stroke-linejoin: round; stroke-linecap: butt}</style>
 </defs>
 <g id="figure_1">
  <g id="patch_1">
   <path d="M 0 345.6 
L 460.8 345.6 
L 460.8 0 
L 0 0 
z
" style="fill: #ffffff"/>
  </g>
  <g id="axes_1">
   <g id="patch_2">
    <path d="M 57.6 307.584 
L 414.72 307.584 
L 414.72 41.472 
L 57.6 41.472 
z
" style="fill: #ffffff"/>
   </g>
   <g id="PathCollection_1">
    <defs>
     <path id="m4720ebcdea" d="M 0 3 
C 0.795609 3 1.55874 2.683901 2.12132 2.12132 
C 2.683901 1.55874 3 0.795609 3 0 
C 3 -0.795609 2.683901 -1.55874 2.12132 -2.12132 
C 1.55874 -2.683901 0.795609 -3 0 -3 
C -0.795609 -3 -1.55874 -2.683901 -2.12132 -2.12132 
C -2.683901 -1.55874 -3 -0.795609 -3 0 
C -3 0.795609 -2.683901 1.55874 -2.12132 2.12132 
C -1.55874 2.683901 -0.795609 3 0 3 
z
" style="stroke: #1f77b4"/>
    </defs>
    <g clip-path="url(#p1678f24f70)">
     <use xlink:href="#m4720ebcdea" x="73.832727" y="174.022577" style="fill: #1f77b4; stroke: #1f77b4"/>
     <use xlink:href="#m4720ebcdea" x="80.076084" y="181.104434" style="fill: #1f77b4; stroke: #1f77b4"/>
     <use xlink:href="#m4720ebcdea" x="85.715245" y="202.83579" style="fill: #1f77b4; stroke: #1f77b4"/>
     <use xlink:href="#m4720ebcdea" x="91.958601" y="207.02442" style="fill: #1f77b4; stroke: #1f77b4"/>
     <use xlink:href="#m4720ebcdea" x="98.000559" y="214.57893" style="fill: #1f77b4; stroke: #1f77b4"/>
     <use xlink:href="#m4720ebcdea" x="104.243916" y="203.253442" style="fill: #1f77b4; stroke: #1f77b4"/>
     <use xlink:href="#m4720ebcdea" x="110.285874" y="215.663993" style="fill: #1f77b4; stroke: #1f77b4"/>
     <use xlink:href="#m4720ebcdea" x="116.529231" y="212.83696" style="fill: #1f77b4; stroke: #1f77b4"/>
     <use xlink:href="#m4720ebcdea" x="122.772587" y="216.671066" style="fill: #1f77b4; stroke: #1f77b4"/>
     <use xlink:href="#m4720ebcdea" x="128.814545" y="226.26522" style="fill: #1f77b4; stroke: #1f77b4"/>
     <use xlink:href="#m4720ebcdea" x="135.057902" y="239.138767" style="fill: #1f77b4; stroke: #1f77b4"/>
     <use xlink:href="#m4720ebcdea" x="141.09986" y="235.858406" style="fill: #1f77b4; stroke: #1f77b4"/>
     <use xlink:href="#m4720ebcdea" x="147.343217" y="246.783022" style="fill: #1f77b4; stroke: #1f77b4"/>
     <use xlink:href="#m4720ebcdea" x="153.586573" y="221.62687" style="fill: #1f77b4; stroke: #1f77b4"/>
     <use xlink:href="#m4720ebcdea" x="159.427133" y="194.11487" style="fill: #1f77b4; stroke: #1f77b4"/>
     <use xlink:href="#m4720ebcdea" x="165.67049" y="140.290676" style="fill: #1f77b4; stroke: #1f77b4"/>
     <use xlink:href="#m4720ebcdea" x="171.712448" y="62.337841" style="fill: #1f77b4; stroke: #1f77b4"/>
     <use xlink:href="#m4720ebcdea" x="177.955804" y="53.568" style="fill: #1f77b4; stroke: #1f77b4"/>
     <use xlink:href="#m4720ebcdea" x="183.997762" y="127.855701" style="fill: #1f77b4; stroke: #1f77b4"/>
     <use xlink:href="#m4720ebcdea" x="190.241119" y="175.451994" style="fill: #1f77b4; stroke: #1f77b4"/>
     <use xlink:href="#m4720ebcdea" x="196.484476" y="164.507352" style="fill: #1f77b4; stroke: #1f77b4"/>
     <use xlink:href="#m4720ebcdea" x="202.526434" y="164.561485" style="fill: #1f77b4; stroke: #1f77b4"/>
     <use xlink:href="#m4720ebcdea" x="208.76979" y="143.703253" style="fill: #1f77b4; stroke: #1f77b4"/>
     <use xlink:href="#m4720ebcdea" x="214.811748" y="151.054171" style="fill: #1f77b4; stroke: #1f77b4"/>
     <use xlink:href="#m4720ebcdea" x="221.055105" y="206.008593" style="fill: #1f77b4; stroke: #1f77b4"/>
     <use xlink:href="#m4720ebcdea" x="227.298462" y="171.423612" style="fill: #1f77b4; stroke: #1f77b4"/>
     <use xlink:href="#m4720ebcdea" x="232.937622" y="219.158456" style="fill: #1f77b4; stroke: #1f77b4"/>
     <use xlink:href="#m4720ebcdea" x="239.180979" y="189.759984" style="fill: #1f77b4; stroke: #1f77b4"/>
     <use xlink:href="#m4720ebcdea" x="245.222937" y="168.798519" style="fill: #1f77b4; stroke: #1f77b4"/>
     <use xlink:href="#m4720ebcdea" x="251.466294" y="113.508637" style="fill: #1f77b4; stroke: #1f77b4"/>
     <use xlink:href="#m4720ebcdea" x="257.508252" y="150.081827" style="fill: #1f77b4; stroke: #1f77b4"/>
     <use xlink:href="#m4720ebcdea" x="263.751608" y="163.911969" style="fill: #1f77b4; stroke: #1f77b4"/>
     <use xlink:href="#m4720ebcdea" x="269.994965" y="157.446683" style="fill: #1f77b4; stroke: #1f77b4"/>
     <use xlink:href="#m4720ebcdea" x="276.036923" y="197.543983" style="fill: #1f77b4; stroke: #1f77b4"/>
     <use xlink:href="#m4720ebcdea" x="282.28028" y="206.058718" style="fill: #1f77b4; stroke: #1f77b4"/>
     <use xlink:href="#m4720ebcdea" x="288.322238" y="216.441687" style="fill: #1f77b4; stroke: #1f77b4"/>
     <use xlink:href="#m4720ebcdea" x="294.565594" y="172.418359" style="fill: #1f77b4; stroke: #1f77b4"/>
     <use xlink:href="#m4720ebcdea" x="300.808951" y="186.885638" style="fill: #1f77b4; stroke: #1f77b4"/>
     <use xlink:href="#m4720ebcdea" x="306.448112" y="216.559063" style="fill: #1f77b4; stroke: #1f77b4"/>
     <use xlink:href="#m4720ebcdea" x="312.691469" y="231.480416" style="fill: #1f77b4; stroke: #1f77b4"/>
     <use xlink:href="#m4720ebcdea" x="318.733427" y="242.756711" style="fill: #1f77b4; stroke: #1f77b4"/>
     <use xlink:href="#m4720ebcdea" x="324.976783" y="285.518177" style="fill: #1f77b4; stroke: #1f77b4"/>
     <use xlink:href="#m4720ebcdea" x="331.018741" y="275.816043" style="fill: #1f77b4; stroke: #1f77b4"/>
     <use xlink:href="#m4720ebcdea" x="337.262098" y="257.780886" style="fill: #1f77b4; stroke: #1f77b4"/>
     <use xlink:href="#m4720ebcdea" x="343.505455" y="230.163889" style="fill: #1f77b4; stroke: #1f77b4"/>
     <use xlink:href="#m4720ebcdea" x="349.547413" y="279.195089" style="fill: #1f77b4; stroke: #1f77b4"/>
     <use xlink:href="#m4720ebcdea" x="355.790769" y="244.748187" style="fill: #1f77b4; stroke: #1f77b4"/>
     <use xlink:href="#m4720ebcdea" x="361.832727" y="294.018819" style="fill: #1f77b4; stroke: #1f77b4"/>
     <use xlink:href="#m4720ebcdea" x="368.076084" y="238.281468" style="fill: #1f77b4; stroke: #1f77b4"/>
     <use xlink:href="#m4720ebcdea" x="374.319441" y="246.761269" style="fill: #1f77b4; stroke: #1f77b4"/>
     <use xlink:href="#m4720ebcdea" x="379.958601" y="269.132492" style="fill: #1f77b4; stroke: #1f77b4"/>
     <use xlink:href="#m4720ebcdea" x="386.201958" y="258.086623" style="fill: #1f77b4; stroke: #1f77b4"/>
     <use xlink:href="#m4720ebcdea" x="392.243916" y="252.843904" style="fill: #1f77b4; stroke: #1f77b4"/>
     <use xlink:href="#m4720ebcdea" x="398.487273" y="227.529032" style="fill: #1f77b4; stroke: #1f77b4"/>
    </g>
   </g>
   <g id="matplotlib.axis_1">
    <g id="xtick_1">
     <g id="line2d_1">
      <defs>
       <path id="m75e5563e38" d="M 0 0 
L 0 3.5 
" style="stroke: #000000; stroke-width: 0.8"/>
      </defs>
      <g>
       <use xlink:href="#m75e5563e38" x="73.832727" y="307.584" style="stroke: #000000; stroke-width: 0.8"/>
      </g>
     </g>
     <g id="text_1">
      <!-- 2019-01 -->
      <g transform="translate(52.941321 322.182437) scale(0.1 -0.1)">
       <defs>
        <path id="DejaVuSans-32" d="M 1228 531 
L 3431 531 
L 3431 0 
L 469 0 
L 469 531 
Q 828 903 1448 1529 
Q 2069 2156 2228 2338 
Q 2531 2678 2651 2914 
Q 2772 3150 2772 3378 
Q 2772 3750 2511 3984 
Q 2250 4219 1831 4219 
Q 1534 4219 1204 4116 
Q 875 4013 500 3803 
L 500 4441 
Q 881 4594 1212 4672 
Q 1544 4750 1819 4750 
Q 2544 4750 2975 4387 
Q 3406 4025 3406 3419 
Q 3406 3131 3298 2873 
Q 3191 2616 2906 2266 
Q 2828 2175 2409 1742 
Q 1991 1309 1228 531 
z
" transform="scale(0.015625)"/>
        <path id="DejaVuSans-30" d="M 2034 4250 
Q 1547 4250 1301 3770 
Q 1056 3291 1056 2328 
Q 1056 1369 1301 889 
Q 1547 409 2034 409 
Q 2525 409 2770 889 
Q 3016 1369 3016 2328 
Q 3016 3291 2770 3770 
Q 2525 4250 2034 4250 
z
M 2034 4750 
Q 2819 4750 3233 4129 
Q 3647 3509 3647 2328 
Q 3647 1150 3233 529 
Q 2819 -91 2034 -91 
Q 1250 -91 836 529 
Q 422 1150 422 2328 
Q 422 3509 836 4129 
Q 1250 4750 2034 4750 
z
" transform="scale(0.015625)"/>
        <path id="DejaVuSans-31" d="M 794 531 
L 1825 531 
L 1825 4091 
L 703 3866 
L 703 4441 
L 1819 4666 
L 2450 4666 
L 2450 531 
L 3481 531 
L 3481 0 
L 794 0 
L 794 531 
z
" transform="scale(0.015625)"/>
        <path id="DejaVuSans-39" d="M 703 97 
L 703 672 
Q 941 559 1184 500 
Q 1428 441 1663 441 
Q 2288 441 2617 861 
Q 2947 1281 2994 2138 
Q 2813 1869 2534 1725 
Q 2256 1581 1919 1581 
Q 1219 1581 811 2004 
Q 403 2428 403 3163 
Q 403 3881 828 4315 
Q 1253 4750 1959 4750 
Q 2769 4750 3195 4129 
Q 3622 3509 3622 2328 
Q 3622 1225 3098 567 
Q 2575 -91 1691 -91 
Q 1453 -91 1209 -44 
Q 966 3 703 97 
z
M 1959 2075 
Q 2384 2075 2632 2365 
Q 2881 2656 2881 3163 
Q 2881 3666 2632 3958 
Q 2384 4250 1959 4250 
Q 1534 4250 1286 3958 
Q 1038 3666 1038 3163 
Q 1038 2656 1286 2365 
Q 1534 2075 1959 2075 
z
" transform="scale(0.015625)"/>
        <path id="DejaVuSans-2d" d="M 313 2009 
L 1997 2009 
L 1997 1497 
L 313 1497 
L 313 2009 
z
" transform="scale(0.015625)"/>
       </defs>
       <use xlink:href="#DejaVuSans-32"/>
       <use xlink:href="#DejaVuSans-30" x="63.623047"/>
       <use xlink:href="#DejaVuSans-31" x="127.246094"/>
       <use xlink:href="#DejaVuSans-39" x="190.869141"/>
       <use xlink:href="#DejaVuSans-2d" x="254.492188"/>
       <use xlink:href="#DejaVuSans-30" x="290.576172"/>
       <use xlink:href="#DejaVuSans-31" x="354.199219"/>
      </g>
     </g>
    </g>
    <g id="xtick_2">
     <g id="line2d_2">
      <g>
       <use xlink:href="#m75e5563e38" x="110.285874" y="307.584" style="stroke: #000000; stroke-width: 0.8"/>
      </g>
     </g>
     <g id="text_2">
      <!-- 2019-07 -->
      <g transform="translate(89.394468 322.182437) scale(0.1 -0.1)">
       <defs>
        <path id="DejaVuSans-37" d="M 525 4666 
L 3525 4666 
L 3525 4397 
L 1831 0 
L 1172 0 
L 2766 4134 
L 525 4134 
L 525 4666 
z
" transform="scale(0.015625)"/>
       </defs>
       <use xlink:href="#DejaVuSans-32"/>
       <use xlink:href="#DejaVuSans-30" x="63.623047"/>
       <use xlink:href="#DejaVuSans-31" x="127.246094"/>
       <use xlink:href="#DejaVuSans-39" x="190.869141"/>
       <use xlink:href="#DejaVuSans-2d" x="254.492188"/>
       <use xlink:href="#DejaVuSans-30" x="290.576172"/>
       <use xlink:href="#DejaVuSans-37" x="354.199219"/>
      </g>
     </g>
    </g>
    <g id="xtick_3">
     <g id="line2d_3">
      <g>
       <use xlink:href="#m75e5563e38" x="147.343217" y="307.584" style="stroke: #000000; stroke-width: 0.8"/>
      </g>
     </g>
     <g id="text_3">
      <!-- 2020-01 -->
      <g transform="translate(126.451811 322.182437) scale(0.1 -0.1)">
       <use xlink:href="#DejaVuSans-32"/>
       <use xlink:href="#DejaVuSans-30" x="63.623047"/>
       <use xlink:href="#DejaVuSans-32" x="127.246094"/>
       <use xlink:href="#DejaVuSans-30" x="190.869141"/>
       <use xlink:href="#DejaVuSans-2d" x="254.492188"/>
       <use xlink:href="#DejaVuSans-30" x="290.576172"/>
       <use xlink:href="#DejaVuSans-31" x="354.199219"/>
      </g>
     </g>
    </g>
    <g id="xtick_4">
     <g id="line2d_4">
      <g>
       <use xlink:href="#m75e5563e38" x="183.997762" y="307.584" style="stroke: #000000; stroke-width: 0.8"/>
      </g>
     </g>
     <g id="text_4">
      <!-- 2020-07 -->
      <g transform="translate(163.106356 322.182437) scale(0.1 -0.1)">
       <use xlink:href="#DejaVuSans-32"/>
       <use xlink:href="#DejaVuSans-30" x="63.623047"/>
       <use xlink:href="#DejaVuSans-32" x="127.246094"/>
       <use xlink:href="#DejaVuSans-30" x="190.869141"/>
       <use xlink:href="#DejaVuSans-2d" x="254.492188"/>
       <use xlink:href="#DejaVuSans-30" x="290.576172"/>
       <use xlink:href="#DejaVuSans-37" x="354.199219"/>
      </g>
     </g>
    </g>
    <g id="xtick_5">
     <g id="line2d_5">
      <g>
       <use xlink:href="#m75e5563e38" x="221.055105" y="307.584" style="stroke: #000000; stroke-width: 0.8"/>
      </g>
     </g>
     <g id="text_5">
      <!-- 2021-01 -->
      <g transform="translate(200.163699 322.182437) scale(0.1 -0.1)">
       <use xlink:href="#DejaVuSans-32"/>
       <use xlink:href="#DejaVuSans-30" x="63.623047"/>
       <use xlink:href="#DejaVuSans-32" x="127.246094"/>
       <use xlink:href="#DejaVuSans-31" x="190.869141"/>
       <use xlink:href="#DejaVuSans-2d" x="254.492188"/>
       <use xlink:href="#DejaVuSans-30" x="290.576172"/>
       <use xlink:href="#DejaVuSans-31" x="354.199219"/>
      </g>
     </g>
    </g>
    <g id="xtick_6">
     <g id="line2d_6">
      <g>
       <use xlink:href="#m75e5563e38" x="257.508252" y="307.584" style="stroke: #000000; stroke-width: 0.8"/>
      </g>
     </g>
     <g id="text_6">
      <!-- 2021-07 -->
      <g transform="translate(236.616845 322.182437) scale(0.1 -0.1)">
       <use xlink:href="#DejaVuSans-32"/>
       <use xlink:href="#DejaVuSans-30" x="63.623047"/>
       <use xlink:href="#DejaVuSans-32" x="127.246094"/>
       <use xlink:href="#DejaVuSans-31" x="190.869141"/>
       <use xlink:href="#DejaVuSans-2d" x="254.492188"/>
       <use xlink:href="#DejaVuSans-30" x="290.576172"/>
       <use xlink:href="#DejaVuSans-37" x="354.199219"/>
      </g>
     </g>
    </g>
    <g id="xtick_7">
     <g id="line2d_7">
      <g>
       <use xlink:href="#m75e5563e38" x="294.565594" y="307.584" style="stroke: #000000; stroke-width: 0.8"/>
      </g>
     </g>
     <g id="text_7">
      <!-- 2022-01 -->
      <g transform="translate(273.674188 322.182437) scale(0.1 -0.1)">
       <use xlink:href="#DejaVuSans-32"/>
       <use xlink:href="#DejaVuSans-30" x="63.623047"/>
       <use xlink:href="#DejaVuSans-32" x="127.246094"/>
       <use xlink:href="#DejaVuSans-32" x="190.869141"/>
       <use xlink:href="#DejaVuSans-2d" x="254.492188"/>
       <use xlink:href="#DejaVuSans-30" x="290.576172"/>
       <use xlink:href="#DejaVuSans-31" x="354.199219"/>
      </g>
     </g>
    </g>
    <g id="xtick_8">
     <g id="line2d_8">
      <g>
       <use xlink:href="#m75e5563e38" x="331.018741" y="307.584" style="stroke: #000000; stroke-width: 0.8"/>
      </g>
     </g>
     <g id="text_8">
      <!-- 2022-07 -->
      <g transform="translate(310.127335 322.182437) scale(0.1 -0.1)">
       <use xlink:href="#DejaVuSans-32"/>
       <use xlink:href="#DejaVuSans-30" x="63.623047"/>
       <use xlink:href="#DejaVuSans-32" x="127.246094"/>
       <use xlink:href="#DejaVuSans-32" x="190.869141"/>
       <use xlink:href="#DejaVuSans-2d" x="254.492188"/>
       <use xlink:href="#DejaVuSans-30" x="290.576172"/>
       <use xlink:href="#DejaVuSans-37" x="354.199219"/>
      </g>
     </g>
    </g>
    <g id="xtick_9">
     <g id="line2d_9">
      <g>
       <use xlink:href="#m75e5563e38" x="368.076084" y="307.584" style="stroke: #000000; stroke-width: 0.8"/>
      </g>
     </g>
     <g id="text_9">
      <!-- 2023-01 -->
      <g transform="translate(347.184678 322.182437) scale(0.1 -0.1)">
       <defs>
        <path id="DejaVuSans-33" d="M 2597 2516 
Q 3050 2419 3304 2112 
Q 3559 1806 3559 1356 
Q 3559 666 3084 287 
Q 2609 -91 1734 -91 
Q 1441 -91 1130 -33 
Q 819 25 488 141 
L 488 750 
Q 750 597 1062 519 
Q 1375 441 1716 441 
Q 2309 441 2620 675 
Q 2931 909 2931 1356 
Q 2931 1769 2642 2001 
Q 2353 2234 1838 2234 
L 1294 2234 
L 1294 2753 
L 1863 2753 
Q 2328 2753 2575 2939 
Q 2822 3125 2822 3475 
Q 2822 3834 2567 4026 
Q 2313 4219 1838 4219 
Q 1578 4219 1281 4162 
Q 984 4106 628 3988 
L 628 4550 
Q 988 4650 1302 4700 
Q 1616 4750 1894 4750 
Q 2613 4750 3031 4423 
Q 3450 4097 3450 3541 
Q 3450 3153 3228 2886 
Q 3006 2619 2597 2516 
z
" transform="scale(0.015625)"/>
       </defs>
       <use xlink:href="#DejaVuSans-32"/>
       <use xlink:href="#DejaVuSans-30" x="63.623047"/>
       <use xlink:href="#DejaVuSans-32" x="127.246094"/>
       <use xlink:href="#DejaVuSans-33" x="190.869141"/>
       <use xlink:href="#DejaVuSans-2d" x="254.492188"/>
       <use xlink:href="#DejaVuSans-30" x="290.576172"/>
       <use xlink:href="#DejaVuSans-31" x="354.199219"/>
      </g>
     </g>
    </g>
    <g id="xtick_10">
     <g id="line2d_10">
      <g>
       <use xlink:href="#m75e5563e38" x="404.529231" y="307.584" style="stroke: #000000; stroke-width: 0.8"/>
      </g>
     </g>
     <g id="text_10">
      <!-- 2023-07 -->
      <g transform="translate(383.637825 322.182437) scale(0.1 -0.1)">
       <use xlink:href="#DejaVuSans-32"/>
       <use xlink:href="#DejaVuSans-30" x="63.623047"/>
       <use xlink:href="#DejaVuSans-32" x="127.246094"/>
       <use xlink:href="#DejaVuSans-33" x="190.869141"/>
       <use xlink:href="#DejaVuSans-2d" x="254.492188"/>
       <use xlink:href="#DejaVuSans-30" x="290.576172"/>
       <use xlink:href="#DejaVuSans-37" x="354.199219"/>
      </g>
     </g>
    </g>
   </g>
   <g id="matplotlib.axis_2">
    <g id="ytick_1">
     <g id="line2d_11">
      <defs>
       <path id="m91213976dc" d="M 0 0 
L -3.5 0 
" style="stroke: #000000; stroke-width: 0.8"/>
      </defs>
      <g>
       <use xlink:href="#m91213976dc" x="57.6" y="283.830141" style="stroke: #000000; stroke-width: 0.8"/>
      </g>
     </g>
     <g id="text_11">
      <!-- 6 -->
      <g transform="translate(44.2375 287.629359) scale(0.1 -0.1)">
       <defs>
        <path id="DejaVuSans-36" d="M 2113 2584 
Q 1688 2584 1439 2293 
Q 1191 2003 1191 1497 
Q 1191 994 1439 701 
Q 1688 409 2113 409 
Q 2538 409 2786 701 
Q 3034 994 3034 1497 
Q 3034 2003 2786 2293 
Q 2538 2584 2113 2584 
z
M 3366 4563 
L 3366 3988 
Q 3128 4100 2886 4159 
Q 2644 4219 2406 4219 
Q 1781 4219 1451 3797 
Q 1122 3375 1075 2522 
Q 1259 2794 1537 2939 
Q 1816 3084 2150 3084 
Q 2853 3084 3261 2657 
Q 3669 2231 3669 1497 
Q 3669 778 3244 343 
Q 2819 -91 2113 -91 
Q 1303 -91 875 529 
Q 447 1150 447 2328 
Q 447 3434 972 4092 
Q 1497 4750 2381 4750 
Q 2619 4750 2861 4703 
Q 3103 4656 3366 4563 
z
" transform="scale(0.015625)"/>
       </defs>
       <use xlink:href="#DejaVuSans-36"/>
      </g>
     </g>
    </g>
    <g id="ytick_2">
     <g id="line2d_12">
      <g>
       <use xlink:href="#m91213976dc" x="57.6" y="228.280585" style="stroke: #000000; stroke-width: 0.8"/>
      </g>
     </g>
     <g id="text_12">
      <!-- 8 -->
      <g transform="translate(44.2375 232.079803) scale(0.1 -0.1)">
       <defs>
        <path id="DejaVuSans-38" d="M 2034 2216 
Q 1584 2216 1326 1975 
Q 1069 1734 1069 1313 
Q 1069 891 1326 650 
Q 1584 409 2034 409 
Q 2484 409 2743 651 
Q 3003 894 3003 1313 
Q 3003 1734 2745 1975 
Q 2488 2216 2034 2216 
z
M 1403 2484 
Q 997 2584 770 2862 
Q 544 3141 544 3541 
Q 544 4100 942 4425 
Q 1341 4750 2034 4750 
Q 2731 4750 3128 4425 
Q 3525 4100 3525 3541 
Q 3525 3141 3298 2862 
Q 3072 2584 2669 2484 
Q 3125 2378 3379 2068 
Q 3634 1759 3634 1313 
Q 3634 634 3220 271 
Q 2806 -91 2034 -91 
Q 1263 -91 848 271 
Q 434 634 434 1313 
Q 434 1759 690 2068 
Q 947 2378 1403 2484 
z
M 1172 3481 
Q 1172 3119 1398 2916 
Q 1625 2713 2034 2713 
Q 2441 2713 2670 2916 
Q 2900 3119 2900 3481 
Q 2900 3844 2670 4047 
Q 2441 4250 2034 4250 
Q 1625 4250 1398 4047 
Q 1172 3844 1172 3481 
z
" transform="scale(0.015625)"/>
       </defs>
       <use xlink:href="#DejaVuSans-38"/>
      </g>
     </g>
    </g>
    <g id="ytick_3">
     <g id="line2d_13">
      <g>
       <use xlink:href="#m91213976dc" x="57.6" y="172.731028" style="stroke: #000000; stroke-width: 0.8"/>
      </g>
     </g>
     <g id="text_13">
      <!-- 10 -->
      <g transform="translate(37.875 176.530247) scale(0.1 -0.1)">
       <use xlink:href="#DejaVuSans-31"/>
       <use xlink:href="#DejaVuSans-30" x="63.623047"/>
      </g>
     </g>
    </g>
    <g id="ytick_4">
     <g id="line2d_14">
      <g>
       <use xlink:href="#m91213976dc" x="57.6" y="117.181472" style="stroke: #000000; stroke-width: 0.8"/>
      </g>
     </g>
     <g id="text_14">
      <!-- 12 -->
      <g transform="translate(37.875 120.980691) scale(0.1 -0.1)">
       <use xlink:href="#DejaVuSans-31"/>
       <use xlink:href="#DejaVuSans-32" x="63.623047"/>
      </g>
     </g>
    </g>
    <g id="ytick_5">
     <g id="line2d_15">
      <g>
       <use xlink:href="#m91213976dc" x="57.6" y="61.631916" style="stroke: #000000; stroke-width: 0.8"/>
      </g>
     </g>
     <g id="text_15">
      <!-- 14 -->
      <g transform="translate(37.875 65.431135) scale(0.1 -0.1)">
       <defs>
        <path id="DejaVuSans-34" d="M 2419 4116 
L 825 1625 
L 2419 1625 
L 2419 4116 
z
M 2253 4666 
L 3047 4666 
L 3047 1625 
L 3713 1625 
L 3713 1100 
L 3047 1100 
L 3047 0 
L 2419 0 
L 2419 1100 
L 313 1100 
L 313 1709 
L 2253 4666 
z
" transform="scale(0.015625)"/>
       </defs>
       <use xlink:href="#DejaVuSans-31"/>
       <use xlink:href="#DejaVuSans-34" x="63.623047"/>
      </g>
     </g>
    </g>
   </g>
   <g id="line2d_16">
    <path d="M 73.832727 202.667438 
L 80.076084 202.667438 
L 85.715245 202.667438 
L 91.958601 202.667438 
L 98.000559 202.667438 
L 104.243916 202.667438 
L 110.285874 202.667438 
L 116.529231 202.667438 
L 122.772587 202.667438 
L 128.814545 202.667438 
L 135.057902 202.667438 
L 141.09986 202.667438 
L 147.343217 202.667438 
L 153.586573 202.66636 
L 159.427133 201.035198 
L 165.67049 150.43583 
L 171.712448 134.550141 
L 177.955804 191.559537 
L 183.997762 198.953204 
L 190.241119 199.226376 
L 196.484476 198.822652 
L 202.526434 185.448668 
L 208.76979 168.552588 
L 214.811748 143.585945 
L 221.055105 118.80522 
L 227.298462 172.944868 
L 232.937622 184.940291 
L 239.180979 174.227857 
L 245.222937 169.391226 
L 251.466294 192.598631 
L 257.508252 197.734336 
L 263.751608 196.962523 
L 269.994965 186.046196 
L 276.036923 177.92234 
L 282.28028 189.491413 
L 288.322238 182.302419 
L 294.565594 197.965544 
L 300.808951 208.799575 
L 306.448112 211.874468 
L 312.691469 252.13301 
L 318.733427 243.317626 
L 324.976783 292.719095 
L 331.018741 229.016653 
L 337.262098 240.312906 
L 343.505455 242.952013 
L 349.547413 257.378344 
L 355.790769 271.768604 
L 361.832727 204.982071 
L 368.076084 237.524722 
L 374.319441 225.533012 
L 379.958601 219.50646 
L 386.201958 262.855482 
L 392.243916 195.519183 
L 398.487273 198.188696 
" clip-path="url(#p1678f24f70)" style="fill: none; stroke: #1f77b4; stroke-width: 1.5; stroke-linecap: square"/>
   </g>
   <g id="line2d_17">
    <path d="M 73.832727 198.266268 
L 80.076084 198.266268 
L 85.715245 198.266268 
L 91.958601 198.266268 
L 98.000559 198.266268 
L 104.243916 198.266268 
L 110.285874 198.266268 
L 116.529231 198.266268 
L 122.772587 198.266268 
L 128.814545 198.266268 
L 135.057902 198.266268 
L 141.09986 198.266268 
L 147.343217 198.266268 
L 153.586573 198.266255 
L 159.427133 197.476271 
L 165.67049 133.664356 
L 171.712448 63.575911 
L 177.955804 189.208533 
L 183.997762 196.097803 
L 190.241119 194.34751 
L 196.484476 186.977445 
L 202.526434 163.905714 
L 208.76979 155.633563 
L 214.811748 141.727137 
L 221.055105 208.490541 
L 227.298462 151.747208 
L 232.937622 188.352931 
L 239.180979 184.737702 
L 245.222937 175.129981 
L 251.466294 178.651548 
L 257.508252 190.917985 
L 263.751608 155.421941 
L 269.994965 183.468782 
L 276.036923 202.554718 
L 282.28028 191.673739 
L 288.322238 216.924299 
L 294.565594 172.54197 
L 300.808951 186.886666 
L 306.448112 216.501484 
L 312.691469 231.451141 
L 318.733427 242.819168 
L 324.976783 290.359007 
L 331.018741 276.536198 
L 337.262098 253.808885 
L 343.505455 222.637654 
L 349.547413 282.899159 
L 355.790769 239.044917 
L 361.832727 295.488 
L 368.076084 235.48159 
L 374.319441 230.675986 
L 379.958601 283.446133 
L 386.201958 271.432291 
L 392.243916 190.915817 
L 398.487273 195.88854 
" clip-path="url(#p1678f24f70)" style="fill: none; stroke: #ff7f0e; stroke-width: 1.5; stroke-linecap: square"/>
   </g>
   <g id="patch_3">
    <path d="M 57.6 307.584 
L 57.6 41.472 
" style="fill: none; stroke: #000000; stroke-width: 0.8; stroke-linejoin: miter; stroke-linecap: square"/>
   </g>
   <g id="patch_4">
    <path d="M 414.72 307.584 
L 414.72 41.472 
" style="fill: none; stroke: #000000; stroke-width: 0.8; stroke-linejoin: miter; stroke-linecap: square"/>
   </g>
   <g id="patch_5">
    <path d="M 57.6 307.584 
L 414.72 307.584 
" style="fill: none; stroke: #000000; stroke-width: 0.8; stroke-linejoin: miter; stroke-linecap: square"/>
   </g>
   <g id="patch_6">
    <path d="M 57.6 41.472 
L 414.72 41.472 
" style="fill: none; stroke: #000000; stroke-width: 0.8; stroke-linejoin: miter; stroke-linecap: square"/>
   </g>
   <g id="text_16">
    <!-- linear and polynomial fits of Prince Edward Island unemployment rateusing local and Canada COVID-19 data -->
    <g transform="translate(-90.151875 35.472) scale(0.12 -0.12)">
     <defs>
      <path id="DejaVuSans-6c" d="M 603 4863 
L 1178 4863 
L 1178 0 
L 603 0 
L 603 4863 
z
" transform="scale(0.015625)"/>
      <path id="DejaVuSans-69" d="M 603 3500 
L 1178 3500 
L 1178 0 
L 603 0 
L 603 3500 
z
M 603 4863 
L 1178 4863 
L 1178 4134 
L 603 4134 
L 603 4863 
z
" transform="scale(0.015625)"/>
      <path id="DejaVuSans-6e" d="M 3513 2113 
L 3513 0 
L 2938 0 
L 2938 2094 
Q 2938 2591 2744 2837 
Q 2550 3084 2163 3084 
Q 1697 3084 1428 2787 
Q 1159 2491 1159 1978 
L 1159 0 
L 581 0 
L 581 3500 
L 1159 3500 
L 1159 2956 
Q 1366 3272 1645 3428 
Q 1925 3584 2291 3584 
Q 2894 3584 3203 3211 
Q 3513 2838 3513 2113 
z
" transform="scale(0.015625)"/>
      <path id="DejaVuSans-65" d="M 3597 1894 
L 3597 1613 
L 953 1613 
Q 991 1019 1311 708 
Q 1631 397 2203 397 
Q 2534 397 2845 478 
Q 3156 559 3463 722 
L 3463 178 
Q 3153 47 2828 -22 
Q 2503 -91 2169 -91 
Q 1331 -91 842 396 
Q 353 884 353 1716 
Q 353 2575 817 3079 
Q 1281 3584 2069 3584 
Q 2775 3584 3186 3129 
Q 3597 2675 3597 1894 
z
M 3022 2063 
Q 3016 2534 2758 2815 
Q 2500 3097 2075 3097 
Q 1594 3097 1305 2825 
Q 1016 2553 972 2059 
L 3022 2063 
z
" transform="scale(0.015625)"/>
      <path id="DejaVuSans-61" d="M 2194 1759 
Q 1497 1759 1228 1600 
Q 959 1441 959 1056 
Q 959 750 1161 570 
Q 1363 391 1709 391 
Q 2188 391 2477 730 
Q 2766 1069 2766 1631 
L 2766 1759 
L 2194 1759 
z
M 3341 1997 
L 3341 0 
L 2766 0 
L 2766 531 
Q 2569 213 2275 61 
Q 1981 -91 1556 -91 
Q 1019 -91 701 211 
Q 384 513 384 1019 
Q 384 1609 779 1909 
Q 1175 2209 1959 2209 
L 2766 2209 
L 2766 2266 
Q 2766 2663 2505 2880 
Q 2244 3097 1772 3097 
Q 1472 3097 1187 3025 
Q 903 2953 641 2809 
L 641 3341 
Q 956 3463 1253 3523 
Q 1550 3584 1831 3584 
Q 2591 3584 2966 3190 
Q 3341 2797 3341 1997 
z
" transform="scale(0.015625)"/>
      <path id="DejaVuSans-72" d="M 2631 2963 
Q 2534 3019 2420 3045 
Q 2306 3072 2169 3072 
Q 1681 3072 1420 2755 
Q 1159 2438 1159 1844 
L 1159 0 
L 581 0 
L 581 3500 
L 1159 3500 
L 1159 2956 
Q 1341 3275 1631 3429 
Q 1922 3584 2338 3584 
Q 2397 3584 2469 3576 
Q 2541 3569 2628 3553 
L 2631 2963 
z
" transform="scale(0.015625)"/>
      <path id="DejaVuSans-20" transform="scale(0.015625)"/>
      <path id="DejaVuSans-64" d="M 2906 2969 
L 2906 4863 
L 3481 4863 
L 3481 0 
L 2906 0 
L 2906 525 
Q 2725 213 2448 61 
Q 2172 -91 1784 -91 
Q 1150 -91 751 415 
Q 353 922 353 1747 
Q 353 2572 751 3078 
Q 1150 3584 1784 3584 
Q 2172 3584 2448 3432 
Q 2725 3281 2906 2969 
z
M 947 1747 
Q 947 1113 1208 752 
Q 1469 391 1925 391 
Q 2381 391 2643 752 
Q 2906 1113 2906 1747 
Q 2906 2381 2643 2742 
Q 2381 3103 1925 3103 
Q 1469 3103 1208 2742 
Q 947 2381 947 1747 
z
" transform="scale(0.015625)"/>
      <path id="DejaVuSans-70" d="M 1159 525 
L 1159 -1331 
L 581 -1331 
L 581 3500 
L 1159 3500 
L 1159 2969 
Q 1341 3281 1617 3432 
Q 1894 3584 2278 3584 
Q 2916 3584 3314 3078 
Q 3713 2572 3713 1747 
Q 3713 922 3314 415 
Q 2916 -91 2278 -91 
Q 1894 -91 1617 61 
Q 1341 213 1159 525 
z
M 3116 1747 
Q 3116 2381 2855 2742 
Q 2594 3103 2138 3103 
Q 1681 3103 1420 2742 
Q 1159 2381 1159 1747 
Q 1159 1113 1420 752 
Q 1681 391 2138 391 
Q 2594 391 2855 752 
Q 3116 1113 3116 1747 
z
" transform="scale(0.015625)"/>
      <path id="DejaVuSans-6f" d="M 1959 3097 
Q 1497 3097 1228 2736 
Q 959 2375 959 1747 
Q 959 1119 1226 758 
Q 1494 397 1959 397 
Q 2419 397 2687 759 
Q 2956 1122 2956 1747 
Q 2956 2369 2687 2733 
Q 2419 3097 1959 3097 
z
M 1959 3584 
Q 2709 3584 3137 3096 
Q 3566 2609 3566 1747 
Q 3566 888 3137 398 
Q 2709 -91 1959 -91 
Q 1206 -91 779 398 
Q 353 888 353 1747 
Q 353 2609 779 3096 
Q 1206 3584 1959 3584 
z
" transform="scale(0.015625)"/>
      <path id="DejaVuSans-79" d="M 2059 -325 
Q 1816 -950 1584 -1140 
Q 1353 -1331 966 -1331 
L 506 -1331 
L 506 -850 
L 844 -850 
Q 1081 -850 1212 -737 
Q 1344 -625 1503 -206 
L 1606 56 
L 191 3500 
L 800 3500 
L 1894 763 
L 2988 3500 
L 3597 3500 
L 2059 -325 
z
" transform="scale(0.015625)"/>
      <path id="DejaVuSans-6d" d="M 3328 2828 
Q 3544 3216 3844 3400 
Q 4144 3584 4550 3584 
Q 5097 3584 5394 3201 
Q 5691 2819 5691 2113 
L 5691 0 
L 5113 0 
L 5113 2094 
Q 5113 2597 4934 2840 
Q 4756 3084 4391 3084 
Q 3944 3084 3684 2787 
Q 3425 2491 3425 1978 
L 3425 0 
L 2847 0 
L 2847 2094 
Q 2847 2600 2669 2842 
Q 2491 3084 2119 3084 
Q 1678 3084 1418 2786 
Q 1159 2488 1159 1978 
L 1159 0 
L 581 0 
L 581 3500 
L 1159 3500 
L 1159 2956 
Q 1356 3278 1631 3431 
Q 1906 3584 2284 3584 
Q 2666 3584 2933 3390 
Q 3200 3197 3328 2828 
z
" transform="scale(0.015625)"/>
      <path id="DejaVuSans-66" d="M 2375 4863 
L 2375 4384 
L 1825 4384 
Q 1516 4384 1395 4259 
Q 1275 4134 1275 3809 
L 1275 3500 
L 2222 3500 
L 2222 3053 
L 1275 3053 
L 1275 0 
L 697 0 
L 697 3053 
L 147 3053 
L 147 3500 
L 697 3500 
L 697 3744 
Q 697 4328 969 4595 
Q 1241 4863 1831 4863 
L 2375 4863 
z
" transform="scale(0.015625)"/>
      <path id="DejaVuSans-74" d="M 1172 4494 
L 1172 3500 
L 2356 3500 
L 2356 3053 
L 1172 3053 
L 1172 1153 
Q 1172 725 1289 603 
Q 1406 481 1766 481 
L 2356 481 
L 2356 0 
L 1766 0 
Q 1100 0 847 248 
Q 594 497 594 1153 
L 594 3053 
L 172 3053 
L 172 3500 
L 594 3500 
L 594 4494 
L 1172 4494 
z
" transform="scale(0.015625)"/>
      <path id="DejaVuSans-73" d="M 2834 3397 
L 2834 2853 
Q 2591 2978 2328 3040 
Q 2066 3103 1784 3103 
Q 1356 3103 1142 2972 
Q 928 2841 928 2578 
Q 928 2378 1081 2264 
Q 1234 2150 1697 2047 
L 1894 2003 
Q 2506 1872 2764 1633 
Q 3022 1394 3022 966 
Q 3022 478 2636 193 
Q 2250 -91 1575 -91 
Q 1294 -91 989 -36 
Q 684 19 347 128 
L 347 722 
Q 666 556 975 473 
Q 1284 391 1588 391 
Q 1994 391 2212 530 
Q 2431 669 2431 922 
Q 2431 1156 2273 1281 
Q 2116 1406 1581 1522 
L 1381 1569 
Q 847 1681 609 1914 
Q 372 2147 372 2553 
Q 372 3047 722 3315 
Q 1072 3584 1716 3584 
Q 2034 3584 2315 3537 
Q 2597 3491 2834 3397 
z
" transform="scale(0.015625)"/>
      <path id="DejaVuSans-50" d="M 1259 4147 
L 1259 2394 
L 2053 2394 
Q 2494 2394 2734 2622 
Q 2975 2850 2975 3272 
Q 2975 3691 2734 3919 
Q 2494 4147 2053 4147 
L 1259 4147 
z
M 628 4666 
L 2053 4666 
Q 2838 4666 3239 4311 
Q 3641 3956 3641 3272 
Q 3641 2581 3239 2228 
Q 2838 1875 2053 1875 
L 1259 1875 
L 1259 0 
L 628 0 
L 628 4666 
z
" transform="scale(0.015625)"/>
      <path id="DejaVuSans-63" d="M 3122 3366 
L 3122 2828 
Q 2878 2963 2633 3030 
Q 2388 3097 2138 3097 
Q 1578 3097 1268 2742 
Q 959 2388 959 1747 
Q 959 1106 1268 751 
Q 1578 397 2138 397 
Q 2388 397 2633 464 
Q 2878 531 3122 666 
L 3122 134 
Q 2881 22 2623 -34 
Q 2366 -91 2075 -91 
Q 1284 -91 818 406 
Q 353 903 353 1747 
Q 353 2603 823 3093 
Q 1294 3584 2113 3584 
Q 2378 3584 2631 3529 
Q 2884 3475 3122 3366 
z
" transform="scale(0.015625)"/>
      <path id="DejaVuSans-45" d="M 628 4666 
L 3578 4666 
L 3578 4134 
L 1259 4134 
L 1259 2753 
L 3481 2753 
L 3481 2222 
L 1259 2222 
L 1259 531 
L 3634 531 
L 3634 0 
L 628 0 
L 628 4666 
z
" transform="scale(0.015625)"/>
      <path id="DejaVuSans-77" d="M 269 3500 
L 844 3500 
L 1563 769 
L 2278 3500 
L 2956 3500 
L 3675 769 
L 4391 3500 
L 4966 3500 
L 4050 0 
L 3372 0 
L 2619 2869 
L 1863 0 
L 1184 0 
L 269 3500 
z
" transform="scale(0.015625)"/>
      <path id="DejaVuSans-49" d="M 628 4666 
L 1259 4666 
L 1259 0 
L 628 0 
L 628 4666 
z
" transform="scale(0.015625)"/>
      <path id="DejaVuSans-75" d="M 544 1381 
L 544 3500 
L 1119 3500 
L 1119 1403 
Q 1119 906 1312 657 
Q 1506 409 1894 409 
Q 2359 409 2629 706 
Q 2900 1003 2900 1516 
L 2900 3500 
L 3475 3500 
L 3475 0 
L 2900 0 
L 2900 538 
Q 2691 219 2414 64 
Q 2138 -91 1772 -91 
Q 1169 -91 856 284 
Q 544 659 544 1381 
z
M 1991 3584 
L 1991 3584 
z
" transform="scale(0.015625)"/>
      <path id="DejaVuSans-67" d="M 2906 1791 
Q 2906 2416 2648 2759 
Q 2391 3103 1925 3103 
Q 1463 3103 1205 2759 
Q 947 2416 947 1791 
Q 947 1169 1205 825 
Q 1463 481 1925 481 
Q 2391 481 2648 825 
Q 2906 1169 2906 1791 
z
M 3481 434 
Q 3481 -459 3084 -895 
Q 2688 -1331 1869 -1331 
Q 1566 -1331 1297 -1286 
Q 1028 -1241 775 -1147 
L 775 -588 
Q 1028 -725 1275 -790 
Q 1522 -856 1778 -856 
Q 2344 -856 2625 -561 
Q 2906 -266 2906 331 
L 2906 616 
Q 2728 306 2450 153 
Q 2172 0 1784 0 
Q 1141 0 747 490 
Q 353 981 353 1791 
Q 353 2603 747 3093 
Q 1141 3584 1784 3584 
Q 2172 3584 2450 3431 
Q 2728 3278 2906 2969 
L 2906 3500 
L 3481 3500 
L 3481 434 
z
" transform="scale(0.015625)"/>
      <path id="DejaVuSans-43" d="M 4122 4306 
L 4122 3641 
Q 3803 3938 3442 4084 
Q 3081 4231 2675 4231 
Q 1875 4231 1450 3742 
Q 1025 3253 1025 2328 
Q 1025 1406 1450 917 
Q 1875 428 2675 428 
Q 3081 428 3442 575 
Q 3803 722 4122 1019 
L 4122 359 
Q 3791 134 3420 21 
Q 3050 -91 2638 -91 
Q 1578 -91 968 557 
Q 359 1206 359 2328 
Q 359 3453 968 4101 
Q 1578 4750 2638 4750 
Q 3056 4750 3426 4639 
Q 3797 4528 4122 4306 
z
" transform="scale(0.015625)"/>
      <path id="DejaVuSans-4f" d="M 2522 4238 
Q 1834 4238 1429 3725 
Q 1025 3213 1025 2328 
Q 1025 1447 1429 934 
Q 1834 422 2522 422 
Q 3209 422 3611 934 
Q 4013 1447 4013 2328 
Q 4013 3213 3611 3725 
Q 3209 4238 2522 4238 
z
M 2522 4750 
Q 3503 4750 4090 4092 
Q 4678 3434 4678 2328 
Q 4678 1225 4090 567 
Q 3503 -91 2522 -91 
Q 1538 -91 948 565 
Q 359 1222 359 2328 
Q 359 3434 948 4092 
Q 1538 4750 2522 4750 
z
" transform="scale(0.015625)"/>
      <path id="DejaVuSans-56" d="M 1831 0 
L 50 4666 
L 709 4666 
L 2188 738 
L 3669 4666 
L 4325 4666 
L 2547 0 
L 1831 0 
z
" transform="scale(0.015625)"/>
      <path id="DejaVuSans-44" d="M 1259 4147 
L 1259 519 
L 2022 519 
Q 2988 519 3436 956 
Q 3884 1394 3884 2338 
Q 3884 3275 3436 3711 
Q 2988 4147 2022 4147 
L 1259 4147 
z
M 628 4666 
L 1925 4666 
Q 3281 4666 3915 4102 
Q 4550 3538 4550 2338 
Q 4550 1131 3912 565 
Q 3275 0 1925 0 
L 628 0 
L 628 4666 
z
" transform="scale(0.015625)"/>
     </defs>
     <use xlink:href="#DejaVuSans-6c"/>
     <use xlink:href="#DejaVuSans-69" x="27.783203"/>
     <use xlink:href="#DejaVuSans-6e" x="55.566406"/>
     <use xlink:href="#DejaVuSans-65" x="118.945312"/>
     <use xlink:href="#DejaVuSans-61" x="180.46875"/>
     <use xlink:href="#DejaVuSans-72" x="241.748047"/>
     <use xlink:href="#DejaVuSans-20" x="282.861328"/>
     <use xlink:href="#DejaVuSans-61" x="314.648438"/>
     <use xlink:href="#DejaVuSans-6e" x="375.927734"/>
     <use xlink:href="#DejaVuSans-64" x="439.306641"/>
     <use xlink:href="#DejaVuSans-20" x="502.783203"/>
     <use xlink:href="#DejaVuSans-70" x="534.570312"/>
     <use xlink:href="#DejaVuSans-6f" x="598.046875"/>
     <use xlink:href="#DejaVuSans-6c" x="659.228516"/>
     <use xlink:href="#DejaVuSans-79" x="687.011719"/>
     <use xlink:href="#DejaVuSans-6e" x="746.191406"/>
     <use xlink:href="#DejaVuSans-6f" x="809.570312"/>
     <use xlink:href="#DejaVuSans-6d" x="870.751953"/>
     <use xlink:href="#DejaVuSans-69" x="968.164062"/>
     <use xlink:href="#DejaVuSans-61" x="995.947266"/>
     <use xlink:href="#DejaVuSans-6c" x="1057.226562"/>
     <use xlink:href="#DejaVuSans-20" x="1085.009766"/>
     <use xlink:href="#DejaVuSans-66" x="1116.796875"/>
     <use xlink:href="#DejaVuSans-69" x="1152.001953"/>
     <use xlink:href="#DejaVuSans-74" x="1179.785156"/>
     <use xlink:href="#DejaVuSans-73" x="1218.994141"/>
     <use xlink:href="#DejaVuSans-20" x="1271.09375"/>
     <use xlink:href="#DejaVuSans-6f" x="1302.880859"/>
     <use xlink:href="#DejaVuSans-66" x="1364.0625"/>
     <use xlink:href="#DejaVuSans-20" x="1399.267578"/>
     <use xlink:href="#DejaVuSans-50" x="1431.054688"/>
     <use xlink:href="#DejaVuSans-72" x="1489.607422"/>
     <use xlink:href="#DejaVuSans-69" x="1530.720703"/>
     <use xlink:href="#DejaVuSans-6e" x="1558.503906"/>
     <use xlink:href="#DejaVuSans-63" x="1621.882812"/>
     <use xlink:href="#DejaVuSans-65" x="1676.863281"/>
     <use xlink:href="#DejaVuSans-20" x="1738.386719"/>
     <use xlink:href="#DejaVuSans-45" x="1770.173828"/>
     <use xlink:href="#DejaVuSans-64" x="1833.357422"/>
     <use xlink:href="#DejaVuSans-77" x="1896.833984"/>
     <use xlink:href="#DejaVuSans-61" x="1978.621094"/>
     <use xlink:href="#DejaVuSans-72" x="2039.900391"/>
     <use xlink:href="#DejaVuSans-64" x="2079.263672"/>
     <use xlink:href="#DejaVuSans-20" x="2142.740234"/>
     <use xlink:href="#DejaVuSans-49" x="2174.527344"/>
     <use xlink:href="#DejaVuSans-73" x="2204.019531"/>
     <use xlink:href="#DejaVuSans-6c" x="2256.119141"/>
     <use xlink:href="#DejaVuSans-61" x="2283.902344"/>
     <use xlink:href="#DejaVuSans-6e" x="2345.181641"/>
     <use xlink:href="#DejaVuSans-64" x="2408.560547"/>
     <use xlink:href="#DejaVuSans-20" x="2472.037109"/>
     <use xlink:href="#DejaVuSans-75" x="2503.824219"/>
     <use xlink:href="#DejaVuSans-6e" x="2567.203125"/>
     <use xlink:href="#DejaVuSans-65" x="2630.582031"/>
     <use xlink:href="#DejaVuSans-6d" x="2692.105469"/>
     <use xlink:href="#DejaVuSans-70" x="2789.517578"/>
     <use xlink:href="#DejaVuSans-6c" x="2852.994141"/>
     <use xlink:href="#DejaVuSans-6f" x="2880.777344"/>
     <use xlink:href="#DejaVuSans-79" x="2941.958984"/>
     <use xlink:href="#DejaVuSans-6d" x="3001.138672"/>
     <use xlink:href="#DejaVuSans-65" x="3098.550781"/>
     <use xlink:href="#DejaVuSans-6e" x="3160.074219"/>
     <use xlink:href="#DejaVuSans-74" x="3223.453125"/>
     <use xlink:href="#DejaVuSans-20" x="3262.662109"/>
     <use xlink:href="#DejaVuSans-72" x="3294.449219"/>
     <use xlink:href="#DejaVuSans-61" x="3335.5625"/>
     <use xlink:href="#DejaVuSans-74" x="3396.841797"/>
     <use xlink:href="#DejaVuSans-65" x="3436.050781"/>
     <use xlink:href="#DejaVuSans-75" x="3497.574219"/>
     <use xlink:href="#DejaVuSans-73" x="3560.953125"/>
     <use xlink:href="#DejaVuSans-69" x="3613.052734"/>
     <use xlink:href="#DejaVuSans-6e" x="3640.835938"/>
     <use xlink:href="#DejaVuSans-67" x="3704.214844"/>
     <use xlink:href="#DejaVuSans-20" x="3767.691406"/>
     <use xlink:href="#DejaVuSans-6c" x="3799.478516"/>
     <use xlink:href="#DejaVuSans-6f" x="3827.261719"/>
     <use xlink:href="#DejaVuSans-63" x="3888.443359"/>
     <use xlink:href="#DejaVuSans-61" x="3943.423828"/>
     <use xlink:href="#DejaVuSans-6c" x="4004.703125"/>
     <use xlink:href="#DejaVuSans-20" x="4032.486328"/>
     <use xlink:href="#DejaVuSans-61" x="4064.273438"/>
     <use xlink:href="#DejaVuSans-6e" x="4125.552734"/>
     <use xlink:href="#DejaVuSans-64" x="4188.931641"/>
     <use xlink:href="#DejaVuSans-20" x="4252.408203"/>
     <use xlink:href="#DejaVuSans-43" x="4284.195312"/>
     <use xlink:href="#DejaVuSans-61" x="4354.019531"/>
     <use xlink:href="#DejaVuSans-6e" x="4415.298828"/>
     <use xlink:href="#DejaVuSans-61" x="4478.677734"/>
     <use xlink:href="#DejaVuSans-64" x="4539.957031"/>
     <use xlink:href="#DejaVuSans-61" x="4603.433594"/>
     <use xlink:href="#DejaVuSans-20" x="4664.712891"/>
     <use xlink:href="#DejaVuSans-43" x="4696.5"/>
     <use xlink:href="#DejaVuSans-4f" x="4766.324219"/>
     <use xlink:href="#DejaVuSans-56" x="4843.285156"/>
     <use xlink:href="#DejaVuSans-49" x="4911.693359"/>
     <use xlink:href="#DejaVuSans-44" x="4941.185547"/>
     <use xlink:href="#DejaVuSans-2d" x="5018.1875"/>
     <use xlink:href="#DejaVuSans-31" x="5054.271484"/>
     <use xlink:href="#DejaVuSans-39" x="5117.894531"/>
     <use xlink:href="#DejaVuSans-20" x="5181.517578"/>
     <use xlink:href="#DejaVuSans-64" x="5213.304688"/>
     <use xlink:href="#DejaVuSans-61" x="5276.78125"/>
     <use xlink:href="#DejaVuSans-74" x="5338.060547"/>
     <use xlink:href="#DejaVuSans-61" x="5377.269531"/>
    </g>
   </g>
   <g id="legend_1">
    <g id="patch_7">
     <path d="M 44.234062 93.506375 
L 407.72 93.506375 
Q 409.72 93.506375 409.72 91.506375 
L 409.72 48.472 
Q 409.72 46.472 407.72 46.472 
L 44.234062 46.472 
Q 42.234062 46.472 42.234062 48.472 
L 42.234062 91.506375 
Q 42.234062 93.506375 44.234062 93.506375 
z
" style="fill: #ffffff; opacity: 0.8; stroke: #cccccc; stroke-linejoin: miter"/>
    </g>
    <g id="PathCollection_2">
     <g>
      <use xlink:href="#m4720ebcdea" x="56.234062" y="55.445438" style="fill: #1f77b4; stroke: #1f77b4"/>
     </g>
    </g>
    <g id="text_17">
     <!-- unemployment -->
     <g transform="translate(74.234062 58.070438) scale(0.1 -0.1)">
      <use xlink:href="#DejaVuSans-75"/>
      <use xlink:href="#DejaVuSans-6e" x="63.378906"/>
      <use xlink:href="#DejaVuSans-65" x="126.757812"/>
      <use xlink:href="#DejaVuSans-6d" x="188.28125"/>
      <use xlink:href="#DejaVuSans-70" x="285.693359"/>
      <use xlink:href="#DejaVuSans-6c" x="349.169922"/>
      <use xlink:href="#DejaVuSans-6f" x="376.953125"/>
      <use xlink:href="#DejaVuSans-79" x="438.134766"/>
      <use xlink:href="#DejaVuSans-6d" x="497.314453"/>
      <use xlink:href="#DejaVuSans-65" x="594.726562"/>
      <use xlink:href="#DejaVuSans-6e" x="656.25"/>
      <use xlink:href="#DejaVuSans-74" x="719.628906"/>
     </g>
    </g>
    <g id="line2d_18">
     <path d="M 46.234062 69.248563 
L 56.234062 69.248563 
L 66.234062 69.248563 
" style="fill: none; stroke: #1f77b4; stroke-width: 1.5; stroke-linecap: square"/>
    </g>
    <g id="text_18">
     <!-- predictions with augmented local and national covid data -->
     <g transform="translate(74.234062 72.748563) scale(0.1 -0.1)">
      <defs>
       <path id="DejaVuSans-68" d="M 3513 2113 
L 3513 0 
L 2938 0 
L 2938 2094 
Q 2938 2591 2744 2837 
Q 2550 3084 2163 3084 
Q 1697 3084 1428 2787 
Q 1159 2491 1159 1978 
L 1159 0 
L 581 0 
L 581 4863 
L 1159 4863 
L 1159 2956 
Q 1366 3272 1645 3428 
Q 1925 3584 2291 3584 
Q 2894 3584 3203 3211 
Q 3513 2838 3513 2113 
z
" transform="scale(0.015625)"/>
       <path id="DejaVuSans-76" d="M 191 3500 
L 800 3500 
L 1894 563 
L 2988 3500 
L 3597 3500 
L 2284 0 
L 1503 0 
L 191 3500 
z
" transform="scale(0.015625)"/>
      </defs>
      <use xlink:href="#DejaVuSans-70"/>
      <use xlink:href="#DejaVuSans-72" x="63.476562"/>
      <use xlink:href="#DejaVuSans-65" x="102.339844"/>
      <use xlink:href="#DejaVuSans-64" x="163.863281"/>
      <use xlink:href="#DejaVuSans-69" x="227.339844"/>
      <use xlink:href="#DejaVuSans-63" x="255.123047"/>
      <use xlink:href="#DejaVuSans-74" x="310.103516"/>
      <use xlink:href="#DejaVuSans-69" x="349.3125"/>
      <use xlink:href="#DejaVuSans-6f" x="377.095703"/>
      <use xlink:href="#DejaVuSans-6e" x="438.277344"/>
      <use xlink:href="#DejaVuSans-73" x="501.65625"/>
      <use xlink:href="#DejaVuSans-20" x="553.755859"/>
      <use xlink:href="#DejaVuSans-77" x="585.542969"/>
      <use xlink:href="#DejaVuSans-69" x="667.330078"/>
      <use xlink:href="#DejaVuSans-74" x="695.113281"/>
      <use xlink:href="#DejaVuSans-68" x="734.322266"/>
      <use xlink:href="#DejaVuSans-20" x="797.701172"/>
      <use xlink:href="#DejaVuSans-61" x="829.488281"/>
      <use xlink:href="#DejaVuSans-75" x="890.767578"/>
      <use xlink:href="#DejaVuSans-67" x="954.146484"/>
      <use xlink:href="#DejaVuSans-6d" x="1017.623047"/>
      <use xlink:href="#DejaVuSans-65" x="1115.035156"/>
      <use xlink:href="#DejaVuSans-6e" x="1176.558594"/>
      <use xlink:href="#DejaVuSans-74" x="1239.9375"/>
      <use xlink:href="#DejaVuSans-65" x="1279.146484"/>
      <use xlink:href="#DejaVuSans-64" x="1340.669922"/>
      <use xlink:href="#DejaVuSans-20" x="1404.146484"/>
      <use xlink:href="#DejaVuSans-6c" x="1435.933594"/>
      <use xlink:href="#DejaVuSans-6f" x="1463.716797"/>
      <use xlink:href="#DejaVuSans-63" x="1524.898438"/>
      <use xlink:href="#DejaVuSans-61" x="1579.878906"/>
      <use xlink:href="#DejaVuSans-6c" x="1641.158203"/>
      <use xlink:href="#DejaVuSans-20" x="1668.941406"/>
      <use xlink:href="#DejaVuSans-61" x="1700.728516"/>
      <use xlink:href="#DejaVuSans-6e" x="1762.007812"/>
      <use xlink:href="#DejaVuSans-64" x="1825.386719"/>
      <use xlink:href="#DejaVuSans-20" x="1888.863281"/>
      <use xlink:href="#DejaVuSans-6e" x="1920.650391"/>
      <use xlink:href="#DejaVuSans-61" x="1984.029297"/>
      <use xlink:href="#DejaVuSans-74" x="2045.308594"/>
      <use xlink:href="#DejaVuSans-69" x="2084.517578"/>
      <use xlink:href="#DejaVuSans-6f" x="2112.300781"/>
      <use xlink:href="#DejaVuSans-6e" x="2173.482422"/>
      <use xlink:href="#DejaVuSans-61" x="2236.861328"/>
      <use xlink:href="#DejaVuSans-6c" x="2298.140625"/>
      <use xlink:href="#DejaVuSans-20" x="2325.923828"/>
      <use xlink:href="#DejaVuSans-63" x="2357.710938"/>
      <use xlink:href="#DejaVuSans-6f" x="2412.691406"/>
      <use xlink:href="#DejaVuSans-76" x="2473.873047"/>
      <use xlink:href="#DejaVuSans-69" x="2533.052734"/>
      <use xlink:href="#DejaVuSans-64" x="2560.835938"/>
      <use xlink:href="#DejaVuSans-20" x="2624.3125"/>
      <use xlink:href="#DejaVuSans-64" x="2656.099609"/>
      <use xlink:href="#DejaVuSans-61" x="2719.576172"/>
      <use xlink:href="#DejaVuSans-74" x="2780.855469"/>
      <use xlink:href="#DejaVuSans-61" x="2820.064453"/>
     </g>
    </g>
    <g id="line2d_19">
     <path d="M 46.234062 83.926688 
L 56.234062 83.926688 
L 66.234062 83.926688 
" style="fill: none; stroke: #ff7f0e; stroke-width: 1.5; stroke-linecap: square"/>
    </g>
    <g id="text_19">
     <!-- polynomial regression of augmented local and national covid data -->
     <g transform="translate(74.234062 87.426688) scale(0.1 -0.1)">
      <use xlink:href="#DejaVuSans-70"/>
      <use xlink:href="#DejaVuSans-6f" x="63.476562"/>
      <use xlink:href="#DejaVuSans-6c" x="124.658203"/>
      <use xlink:href="#DejaVuSans-79" x="152.441406"/>
      <use xlink:href="#DejaVuSans-6e" x="211.621094"/>
      <use xlink:href="#DejaVuSans-6f" x="275"/>
      <use xlink:href="#DejaVuSans-6d" x="336.181641"/>
      <use xlink:href="#DejaVuSans-69" x="433.59375"/>
      <use xlink:href="#DejaVuSans-61" x="461.376953"/>
      <use xlink:href="#DejaVuSans-6c" x="522.65625"/>
      <use xlink:href="#DejaVuSans-20" x="550.439453"/>
      <use xlink:href="#DejaVuSans-72" x="582.226562"/>
      <use xlink:href="#DejaVuSans-65" x="621.089844"/>
      <use xlink:href="#DejaVuSans-67" x="682.613281"/>
      <use xlink:href="#DejaVuSans-72" x="746.089844"/>
      <use xlink:href="#DejaVuSans-65" x="784.953125"/>
      <use xlink:href="#DejaVuSans-73" x="846.476562"/>
      <use xlink:href="#DejaVuSans-73" x="898.576172"/>
      <use xlink:href="#DejaVuSans-69" x="950.675781"/>
      <use xlink:href="#DejaVuSans-6f" x="978.458984"/>
      <use xlink:href="#DejaVuSans-6e" x="1039.640625"/>
      <use xlink:href="#DejaVuSans-20" x="1103.019531"/>
      <use xlink:href="#DejaVuSans-6f" x="1134.806641"/>
      <use xlink:href="#DejaVuSans-66" x="1195.988281"/>
      <use xlink:href="#DejaVuSans-20" x="1231.193359"/>
      <use xlink:href="#DejaVuSans-61" x="1262.980469"/>
      <use xlink:href="#DejaVuSans-75" x="1324.259766"/>
      <use xlink:href="#DejaVuSans-67" x="1387.638672"/>
      <use xlink:href="#DejaVuSans-6d" x="1451.115234"/>
      <use xlink:href="#DejaVuSans-65" x="1548.527344"/>
      <use xlink:href="#DejaVuSans-6e" x="1610.050781"/>
      <use xlink:href="#DejaVuSans-74" x="1673.429688"/>
      <use xlink:href="#DejaVuSans-65" x="1712.638672"/>
      <use xlink:href="#DejaVuSans-64" x="1774.162109"/>
      <use xlink:href="#DejaVuSans-20" x="1837.638672"/>
      <use xlink:href="#DejaVuSans-6c" x="1869.425781"/>
      <use xlink:href="#DejaVuSans-6f" x="1897.208984"/>
      <use xlink:href="#DejaVuSans-63" x="1958.390625"/>
      <use xlink:href="#DejaVuSans-61" x="2013.371094"/>
      <use xlink:href="#DejaVuSans-6c" x="2074.650391"/>
      <use xlink:href="#DejaVuSans-20" x="2102.433594"/>
      <use xlink:href="#DejaVuSans-61" x="2134.220703"/>
      <use xlink:href="#DejaVuSans-6e" x="2195.5"/>
      <use xlink:href="#DejaVuSans-64" x="2258.878906"/>
      <use xlink:href="#DejaVuSans-20" x="2322.355469"/>
      <use xlink:href="#DejaVuSans-6e" x="2354.142578"/>
      <use xlink:href="#DejaVuSans-61" x="2417.521484"/>
      <use xlink:href="#DejaVuSans-74" x="2478.800781"/>
      <use xlink:href="#DejaVuSans-69" x="2518.009766"/>
      <use xlink:href="#DejaVuSans-6f" x="2545.792969"/>
      <use xlink:href="#DejaVuSans-6e" x="2606.974609"/>
      <use xlink:href="#DejaVuSans-61" x="2670.353516"/>
      <use xlink:href="#DejaVuSans-6c" x="2731.632812"/>
      <use xlink:href="#DejaVuSans-20" x="2759.416016"/>
      <use xlink:href="#DejaVuSans-63" x="2791.203125"/>
      <use xlink:href="#DejaVuSans-6f" x="2846.183594"/>
      <use xlink:href="#DejaVuSans-76" x="2907.365234"/>
      <use xlink:href="#DejaVuSans-69" x="2966.544922"/>
      <use xlink:href="#DejaVuSans-64" x="2994.328125"/>
      <use xlink:href="#DejaVuSans-20" x="3057.804688"/>
      <use xlink:href="#DejaVuSans-64" x="3089.591797"/>
      <use xlink:href="#DejaVuSans-61" x="3153.068359"/>
      <use xlink:href="#DejaVuSans-74" x="3214.347656"/>
      <use xlink:href="#DejaVuSans-61" x="3253.556641"/>
     </g>
    </g>
   </g>
  </g>
 </g>
 <defs>
  <clipPath id="p1678f24f70">
   <rect x="57.6" y="41.472" width="357.12" height="266.112"/>
  </clipPath>
 </defs>
</svg>
